<svg width="42" height="42" viewBox="0 0 42 42" fill="none" xmlns="http://www.w3.org/2000/svg">
<mask id="mask0_1526_10340" style="mask-type:alpha" maskUnits="userSpaceOnUse" x="0" y="0" width="42" height="42">
<rect width="42" height="42" fill="#D9D9D9"/>
</mask>
<g mask="url(#mask0_1526_10340)">
<path d="M11.375 34.1246C8.95417 34.1246 6.89033 33.2858 5.1835 31.6081C3.47783 29.9316 2.625 27.8829 2.625 25.4621C2.625 23.3038 3.31042 21.3934 4.68125 19.7309C6.05208 18.0684 7.80208 17.0913 9.93125 16.7996C10.3104 14.6704 11.4701 12.6725 13.4102 10.8059C15.3492 8.93919 17.4417 8.00586 19.6875 8.00586C20.4167 8.00586 21.0362 8.26836 21.546 8.79336C22.057 9.31836 22.3125 9.93086 22.3125 10.6309V22.3121L25.5063 19.1621L27.3438 20.9996L21 27.3434L14.6562 20.9996L16.4938 19.1621L19.6875 22.3121V10.6309C17.4708 10.8934 15.6771 11.9142 14.3063 13.6934C12.9354 15.4725 12.25 17.3246 12.25 19.2496H11.375C9.68333 19.2496 8.23958 19.8475 7.04375 21.0434C5.84792 22.2392 5.25 23.6829 5.25 25.3746C5.25 27.0663 5.84792 28.51 7.04375 29.7059C8.23958 30.9017 9.68333 31.4996 11.375 31.4996H32.375C33.6 31.4996 34.6354 31.0767 35.4813 30.2309C36.3271 29.385 36.75 28.3496 36.75 27.1246C36.75 25.8996 36.3271 24.8642 35.4813 24.0184C34.6354 23.1725 33.6 22.7496 32.375 22.7496H29.75V19.2496C29.75 17.8204 29.4292 16.5004 28.7875 15.2894C28.1458 14.0795 27.3 13.0663 26.25 12.2496V9.18711C28.1458 10.1496 29.6403 11.535 30.7335 13.3434C31.8278 15.1517 32.375 17.1204 32.375 19.2496V20.1246H32.9C34.7667 20.2704 36.3125 21.0142 37.5375 22.3559C38.7625 23.6975 39.375 25.2871 39.375 27.1246C39.375 29.0788 38.6966 30.7337 37.3397 32.0894C35.9841 33.4462 34.3292 34.1246 32.375 34.1246H11.375Z" fill="#AA8500"/>
</g>
</svg>
