<svg width="56" height="61" viewBox="0 0 56 61" fill="none" xmlns="http://www.w3.org/2000/svg">
    <rect x="0.5" y="0.5" width="55" height="59.08" rx="3.5" fill="#D1EAFE"/>
    <g clip-path="url(#clip0_1347_1972)">
        <path d="M42.9 35.804C42.96 35.722 43 35.622 43 35.5C43.0027 35.4199 42.9851 35.3405 42.9487 35.2691C42.9123 35.1978 42.8584 35.1368 42.792 35.092L36.907 29.207C36.8622 29.1374 36.7983 29.0822 36.723 29.048C36.6552 28.9977 36.5751 28.9667 36.4911 28.9583C36.4071 28.9498 36.3224 28.9642 36.246 29H29V15.5C29 15.2 28.8 15 28.5 15H21.5C21.4153 15.0005 21.3319 15.0214 21.257 15.061C21.199 15.079 21.139 15.1 21.1 15.1L13.1 23.1C13.1 23.139 13.079 23.199 13.061 23.257C13.0214 23.3319 13.0005 23.4153 13 23.5V36.5C13 36.8 13.2 37 13.5 37H20V44.5C20 44.8 20.2 45 20.5 45H42.5C42.8 45 43 44.8 42.9 44.5V35.804ZM37 30.7L41.3 35H37V30.7ZM21 16.7V23H14.7L21 16.7ZM14 24H21.5C21.8 24 22 23.8 22 23.5V16H28V36H14V24ZM21 44V37H28.5C28.8 37 29 36.8 29 36.5V30H36V35.5C36 35.8 36.2 36 36.5 36H42V44H21Z"
              fill="#091540"/>
        <path d="M31.208 19.908L33.15 21.85C33.25 21.95 33.45 21.95 33.55 21.95C33.65 21.95 33.85 21.95 33.85 21.75C34.05 21.55 34.05 21.25 33.85 21.05L32.8 20H36C37.1 20 38 20.9 38 22V25.4L36.8 24.2C36.6 24 36.3 24 36.1 24.2C35.9 24.4 35.9 24.7 36.1 24.9L38.1 26.9C38.144 26.944 38.21 26.963 38.275 26.977C38.286 26.983 38.289 26.995 38.3 27H38.5C38.6 27 38.8 27 38.8 26.9L40.8 24.9C41 24.7 41 24.4 40.8 24.2C40.6 24 40.3 24 40.1 24.2L39 25.3V22C39 20.3 37.7 19 36 19H32.7L33.85 17.85C34.05 17.65 34.05 17.35 33.85 17.15C33.65 16.95 33.35 16.95 33.15 17.15L31.208 19.092C31.081 19.178 31 19.317 31 19.5C31 19.683 31.081 19.822 31.208 19.908Z"
              fill="#091540"/>
    </g>
    <g clip-path="url(#clip1_1347_1972)">
        <path d="M42.9 35.804C42.96 35.722 43 35.622 43 35.5C43.0027 35.4199 42.9851 35.3405 42.9487 35.2691C42.9123 35.1978 42.8584 35.1368 42.792 35.092L36.907 29.207C36.8622 29.1374 36.7983 29.0822 36.723 29.048C36.6552 28.9977 36.5751 28.9667 36.4911 28.9583C36.4071 28.9498 36.3224 28.9642 36.246 29H29V15.5C29 15.2 28.8 15 28.5 15H21.5C21.4153 15.0005 21.3319 15.0214 21.257 15.061C21.199 15.079 21.139 15.1 21.1 15.1L13.1 23.1C13.1 23.139 13.079 23.199 13.061 23.257C13.0214 23.3319 13.0005 23.4153 13 23.5V36.5C13 36.8 13.2 37 13.5 37H20V44.5C20 44.8 20.2 45 20.5 45H42.5C42.8 45 43 44.8 42.9 44.5V35.804ZM37 30.7L41.3 35H37V30.7ZM21 16.7V23H14.7L21 16.7ZM14 24H21.5C21.8 24 22 23.8 22 23.5V16H28V36H14V24ZM21 44V37H28.5C28.8 37 29 36.8 29 36.5V30H36V35.5C36 35.8 36.2 36 36.5 36H42V44H21Z"
              fill="#060E2B"/>
        <path d="M31.208 19.908L33.15 21.85C33.25 21.95 33.45 21.95 33.55 21.95C33.65 21.95 33.85 21.95 33.85 21.75C34.05 21.55 34.05 21.25 33.85 21.05L32.8 20H36C37.1 20 38 20.9 38 22V25.4L36.8 24.2C36.6 24 36.3 24 36.1 24.2C35.9 24.4 35.9 24.7 36.1 24.9L38.1 26.9C38.144 26.944 38.21 26.963 38.275 26.977C38.286 26.983 38.289 26.995 38.3 27H38.5C38.6 27 38.8 27 38.8 26.9L40.8 24.9C41 24.7 41 24.4 40.8 24.2C40.6 24 40.3 24 40.1 24.2L39 25.3V22C39 20.3 37.7 19 36 19H32.7L33.85 17.85C34.05 17.65 34.05 17.35 33.85 17.15C33.65 16.95 33.35 16.95 33.15 17.15L31.208 19.092C31.081 19.178 31 19.317 31 19.5C31 19.683 31.081 19.822 31.208 19.908Z"
              fill="#060E2B"/>
    </g>
    <rect x="0.5" y="0.5" width="55" height="59.08" rx="3.5" stroke="#74C0FC"/>
    <defs>
        <clipPath id="clip0_1347_1972">
            <rect width="30" height="30" fill="white" transform="translate(13 15)"/>
        </clipPath>
        <clipPath id="clip1_1347_1972">
            <rect width="30" height="30" fill="white" transform="translate(13 15)"/>
        </clipPath>
    </defs>
</svg>
