<svg width="16" height="16" viewBox="0 0 16 16" fill="none" xmlns="http://www.w3.org/2000/svg">
<mask id="mask0_2258_33926" style="mask-type:alpha" maskUnits="userSpaceOnUse" x="0" y="0" width="16" height="16">
<rect width="16" height="16" fill="#D9D9D9"/>
</mask>
<g mask="url(#mask0_2258_33926)">
<path d="M2.86797 13C2.53464 13 2.2513 12.8833 2.01797 12.65C1.78464 12.4167 1.66797 12.1333 1.66797 11.8V4.46667C1.66797 4.12222 1.78464 3.83333 2.01797 3.6C2.2513 3.36667 2.53464 3.25 2.86797 3.25H6.91797L8.0013 4.33333H13.1346C13.468 4.33333 13.7513 4.45 13.9846 4.68333C14.218 4.91667 14.3346 5.2 14.3346 5.53333V11.8C14.3346 12.1333 14.218 12.4167 13.9846 12.65C13.7513 12.8833 13.468 13 13.1346 13H2.86797ZM10.668 12H13.1346C13.1902 12 13.2375 11.9807 13.2766 11.942C13.3153 11.9029 13.3346 11.8556 13.3346 11.8V5.53333C13.3346 5.47778 13.3153 5.43044 13.2766 5.39133C13.2375 5.35267 13.1902 5.33333 13.1346 5.33333H10.668V6.66667H12.0013V8H10.668V9.33333H12.0013V10.6667H10.668V12ZM2.86797 12H9.33464V10.6667H10.668V9.33333H9.33464V8H10.668V6.66667H9.33464V5.33333H7.58464L6.51797 4.25H2.86797C2.81241 4.25 2.7653 4.26956 2.72664 4.30867C2.68752 4.34733 2.66797 4.4 2.66797 4.46667V11.8C2.66797 11.8556 2.68752 11.9029 2.72664 11.942C2.7653 11.9807 2.81241 12 2.86797 12Z" fill="#1C1B1F"/>
</g>
</svg>
