<svg width="43" height="42" viewBox="0 0 43 42" fill="none" xmlns="http://www.w3.org/2000/svg">
<mask id="mask0_1526_10321" style="mask-type:alpha" maskUnits="userSpaceOnUse" x="0" y="0" width="43" height="42">
<rect x="0.5" width="42" height="42" fill="#D9D9D9"/>
</mask>
<g mask="url(#mask0_1526_10321)">
<path d="M17.3 26.6438L19.1375 24.7625L15.375 21L19.1375 17.2375L17.3 15.3562L11.6562 21L17.3 26.6438ZM25.7 26.6438L31.3438 21L25.7 15.3562L23.8625 17.2375L27.625 21L23.8625 24.7625L25.7 26.6438ZM9.775 35.875C8.9 35.875 8.15625 35.5688 7.54375 34.9562C6.93125 34.3438 6.625 33.6 6.625 32.725V9.275C6.625 8.4 6.93125 7.65625 7.54375 7.04375C8.15625 6.43125 8.9 6.125 9.775 6.125H17.5625C17.6792 5.1625 18.1097 4.33825 18.854 3.65225C19.5972 2.96742 20.4792 2.625 21.5 2.625C22.55 2.625 23.4396 2.96742 24.1687 3.65225C24.8979 4.33825 25.3208 5.1625 25.4375 6.125H33.225C34.1 6.125 34.8438 6.43125 35.4563 7.04375C36.0688 7.65625 36.375 8.4 36.375 9.275V32.725C36.375 33.6 36.0688 34.3438 35.4563 34.9562C34.8438 35.5688 34.1 35.875 33.225 35.875H9.775ZM9.775 33.25H33.225C33.3417 33.25 33.4583 33.1917 33.575 33.075C33.6917 32.9583 33.75 32.8417 33.75 32.725V9.275C33.75 9.15833 33.6917 9.04167 33.575 8.925C33.4583 8.80833 33.3417 8.75 33.225 8.75H9.775C9.65833 8.75 9.54167 8.80833 9.425 8.925C9.30833 9.04167 9.25 9.15833 9.25 9.275V32.725C9.25 32.8417 9.30833 32.9583 9.425 33.075C9.54167 33.1917 9.65833 33.25 9.775 33.25ZM21.5 7.6125C21.8792 7.6125 22.193 7.48825 22.4415 7.23975C22.6888 6.99242 22.8125 6.67917 22.8125 6.3C22.8125 5.92083 22.6888 5.607 22.4415 5.3585C22.193 5.11117 21.8792 4.9875 21.5 4.9875C21.1208 4.9875 20.8076 5.11117 20.5603 5.3585C20.3118 5.607 20.1875 5.92083 20.1875 6.3C20.1875 6.67917 20.3118 6.99242 20.5603 7.23975C20.8076 7.48825 21.1208 7.6125 21.5 7.6125Z" fill="#AA8500"/>
</g>
</svg>
