<svg width="596" height="579" viewBox="0 0 596 579" fill="none" xmlns="http://www.w3.org/2000/svg">
<path d="M256.934 578.5C382.219 578.5 483.782 572.172 483.782 564.367C483.782 556.562 382.219 550.235 256.934 550.235C131.649 550.235 30.0859 556.562 30.0859 564.367C30.0859 572.172 131.649 578.5 256.934 578.5Z" fill="#92E3A9"/>
<path opacity="0.8" d="M256.934 578.5C382.219 578.5 483.782 572.172 483.782 564.367C483.782 556.562 382.219 550.235 256.934 550.235C131.649 550.235 30.0859 556.562 30.0859 564.367C30.0859 572.172 131.649 578.5 256.934 578.5Z" fill="white"/>
<path d="M427.398 26.9795H199.303C183.555 26.9795 170.789 39.7455 170.789 55.4932V537.043C170.789 552.79 183.555 565.556 199.303 565.556H427.398C443.146 565.556 455.912 552.79 455.912 537.043V55.4932C455.912 39.7455 443.146 26.9795 427.398 26.9795Z" fill="#07285E"/>
<path d="M443.232 86.1201H183.453V506.415H443.232V86.1201Z" fill="white" stroke="#07285E" stroke-width="0.23204" stroke-miterlimit="10"/>
<path d="M353.167 256.31C375.157 234.32 375.157 198.668 353.167 176.678C331.177 154.688 295.525 154.688 273.535 176.678C251.545 198.668 251.545 234.32 273.535 256.31C295.525 278.3 331.177 278.3 353.167 256.31Z" fill="#407BFF"/>
<path d="M387.274 479.986H239.437C239.105 479.988 238.775 479.924 238.467 479.798C238.159 479.672 237.879 479.486 237.643 479.252C237.407 479.017 237.22 478.738 237.092 478.431C236.964 478.124 236.898 477.794 236.898 477.462C236.897 477.128 236.961 476.797 237.088 476.488C237.215 476.179 237.402 475.898 237.638 475.662C237.874 475.426 238.155 475.239 238.463 475.112C238.772 474.985 239.103 474.921 239.437 474.923H387.274C387.607 474.923 387.937 474.989 388.244 475.116C388.551 475.244 388.83 475.431 389.064 475.667C389.299 475.903 389.485 476.183 389.611 476.491C389.737 476.799 389.8 477.129 389.799 477.462C389.799 478.131 389.533 478.773 389.059 479.247C388.586 479.72 387.944 479.986 387.274 479.986Z" fill="#407BFF"/>
<path d="M392.09 304.457H234.611C231.361 304.457 228.727 307.092 228.727 310.342V328.906C228.727 332.156 231.361 334.79 234.611 334.79H392.09C395.34 334.79 397.975 332.156 397.975 328.906V310.342C397.975 307.092 395.34 304.457 392.09 304.457Z" fill="#407BFF"/>
<path d="M392.09 361.19H234.611C231.361 361.19 228.727 363.825 228.727 367.075V385.639C228.727 388.889 231.361 391.524 234.611 391.524H392.09C395.34 391.524 397.975 388.889 397.975 385.639V367.075C397.975 363.825 395.34 361.19 392.09 361.19Z" fill="#407BFF"/>
<path d="M341.388 244.582L324.82 235.044V227.163C327.219 224.261 328.957 220.87 329.912 217.228C330.482 217.431 331.083 217.535 331.688 217.536C333.742 217.536 335.048 211.167 335.268 206.618C337.66 201.555 334.403 198.591 334.403 198.591C334.403 198.591 335.753 197.241 336.648 191.825C337.543 186.41 333.493 188.67 330.338 183.71C327.182 178.75 324.922 173.349 314.562 173.349C311.707 173.256 308.89 174.023 306.477 175.551C304.064 177.08 302.166 179.299 301.031 181.92C298.452 181.929 295.883 182.229 293.371 182.815C290.201 183.71 289.306 194.085 292.006 198.15C293.215 200.372 293.86 202.856 293.885 205.385C293.166 204.505 292.417 204.27 292.006 206.266C291.111 210.771 294.721 217.081 294.721 217.081L296.585 216.553C297.524 220.446 299.335 224.074 301.883 227.163V235.044L285.314 244.582C283.379 245.7 281.772 247.306 280.654 249.24C279.537 251.175 278.947 253.369 278.945 255.603V261.063C288.799 268.675 300.899 272.804 313.351 272.804C325.803 272.804 337.903 268.675 347.757 261.063V255.603C347.758 253.369 347.17 251.173 346.052 249.238C344.933 247.303 343.325 245.697 341.388 244.582Z" fill="#07285E"/>
<path d="M250.169 383.981C249.789 383.976 249.426 383.823 249.157 383.555C249.012 383.426 248.897 383.268 248.819 383.091C248.74 382.914 248.7 382.722 248.702 382.528C248.706 382.263 248.782 382.005 248.922 381.78L251.563 377.553L246.412 377.715C246.218 377.727 246.024 377.698 245.842 377.63C245.66 377.561 245.494 377.455 245.356 377.318C245.117 377.05 244.984 376.702 244.984 376.343C244.984 375.983 245.117 375.635 245.356 375.367C245.491 375.225 245.656 375.115 245.838 375.043C246.021 374.972 246.217 374.943 246.412 374.956L251.49 375.146L248.878 370.935C248.736 370.705 248.66 370.441 248.658 370.172C248.656 369.978 248.696 369.786 248.775 369.609C248.853 369.432 248.968 369.274 249.113 369.144C249.382 368.877 249.745 368.724 250.125 368.719C250.375 368.72 250.62 368.793 250.83 368.928C251.041 369.063 251.208 369.255 251.314 369.482L253.823 374.017L256.304 369.511C256.421 369.271 256.602 369.067 256.827 368.922C257.052 368.778 257.313 368.697 257.58 368.689C257.766 368.691 257.949 368.73 258.118 368.806C258.288 368.882 258.439 368.992 258.563 369.13C258.833 369.409 258.981 369.784 258.974 370.172C258.974 370.424 258.908 370.671 258.784 370.891L256.127 375.146L261.278 374.956C261.474 374.943 261.67 374.972 261.852 375.043C262.035 375.115 262.2 375.225 262.335 375.367C262.585 375.626 262.722 375.975 262.717 376.335C262.716 376.699 262.58 377.049 262.335 377.318C262.197 377.455 262.031 377.561 261.849 377.63C261.667 377.698 261.472 377.727 261.278 377.715L256.098 377.553L258.681 381.736C258.826 381.969 258.902 382.239 258.901 382.513C258.901 382.903 258.746 383.276 258.471 383.551C258.196 383.826 257.823 383.981 257.434 383.981C257.182 383.978 256.937 383.901 256.728 383.76C256.52 383.619 256.357 383.421 256.26 383.188L253.809 378.786L251.373 383.188C251.265 383.419 251.095 383.614 250.883 383.754C250.67 383.894 250.423 383.973 250.169 383.981Z" fill="#07285E"/>
<path d="M273.972 383.981C273.592 383.976 273.229 383.823 272.96 383.555C272.815 383.426 272.7 383.268 272.622 383.091C272.543 382.914 272.503 382.722 272.505 382.528C272.509 382.263 272.585 382.005 272.725 381.78L275.366 377.553L270.23 377.715C270.034 377.724 269.838 377.693 269.654 377.625C269.47 377.557 269.302 377.453 269.159 377.318C268.964 377.117 268.834 376.863 268.786 376.587C268.738 376.311 268.774 376.027 268.89 375.772C269.006 375.518 269.195 375.303 269.434 375.158C269.673 375.012 269.95 374.942 270.23 374.956L275.293 375.147L272.681 370.935C272.539 370.705 272.462 370.441 272.461 370.172C272.459 369.978 272.499 369.786 272.577 369.609C272.656 369.432 272.771 369.274 272.916 369.144C273.185 368.877 273.548 368.724 273.928 368.719C274.178 368.72 274.423 368.793 274.633 368.928C274.844 369.063 275.011 369.255 275.117 369.482L277.626 374.017L280.106 369.511C280.224 369.271 280.405 369.067 280.63 368.922C280.855 368.778 281.116 368.697 281.383 368.689C281.569 368.689 281.753 368.728 281.922 368.803C282.092 368.879 282.243 368.991 282.366 369.13C282.502 369.267 282.61 369.429 282.683 369.608C282.756 369.787 282.793 369.979 282.792 370.172C282.787 370.425 282.716 370.673 282.586 370.891L279.93 375.147L285.096 374.985C285.289 374.972 285.483 375.002 285.663 375.073C285.843 375.144 286.006 375.255 286.138 375.396C286.388 375.656 286.525 376.004 286.519 376.365C286.518 376.728 286.382 377.079 286.138 377.348C286.002 377.484 285.839 377.59 285.66 377.658C285.48 377.727 285.288 377.756 285.096 377.744L279.901 377.583L282.484 381.765C282.628 381.999 282.705 382.268 282.704 382.543C282.704 382.932 282.549 383.305 282.274 383.58C281.999 383.856 281.626 384.01 281.236 384.01C280.985 384.007 280.74 383.93 280.531 383.789C280.322 383.649 280.16 383.45 280.062 383.218L277.612 378.815L275.176 383.218C275.063 383.442 274.892 383.632 274.68 383.767C274.468 383.901 274.223 383.975 273.972 383.981Z" fill="#07285E"/>
<path d="M297.785 383.981C297.4 383.979 297.031 383.826 296.757 383.555C296.613 383.426 296.498 383.268 296.419 383.091C296.341 382.914 296.301 382.722 296.303 382.528C296.307 382.263 296.383 382.005 296.523 381.78L299.164 377.553L294.028 377.715C293.751 377.726 293.478 377.654 293.242 377.509C293.006 377.364 292.819 377.152 292.704 376.9C292.589 376.648 292.552 376.368 292.597 376.095C292.642 375.822 292.767 375.568 292.957 375.367C293.095 375.225 293.263 375.115 293.447 375.045C293.632 374.974 293.83 374.943 294.028 374.956L299.091 375.147L296.479 370.935C296.336 370.705 296.26 370.441 296.258 370.172C296.263 369.979 296.306 369.789 296.384 369.613C296.462 369.437 296.574 369.277 296.713 369.144C296.987 368.873 297.356 368.72 297.741 368.719C297.988 368.723 298.23 368.797 298.437 368.932C298.645 369.067 298.81 369.257 298.915 369.482L301.424 374.017L303.904 369.511C304.022 369.271 304.203 369.067 304.428 368.922C304.653 368.778 304.913 368.697 305.181 368.689C305.367 368.689 305.551 368.728 305.72 368.803C305.89 368.879 306.041 368.991 306.164 369.13C306.3 369.267 306.408 369.429 306.481 369.608C306.554 369.787 306.591 369.979 306.59 370.172C306.585 370.425 306.514 370.673 306.384 370.891L303.728 375.147L308.894 374.956C309.084 374.937 309.275 374.959 309.456 375.02C309.637 375.081 309.802 375.181 309.941 375.311C310.081 375.442 310.19 375.601 310.262 375.778C310.335 375.954 310.369 376.145 310.361 376.335C310.364 376.697 310.234 377.047 309.994 377.318C309.856 377.455 309.691 377.561 309.508 377.63C309.326 377.698 309.132 377.727 308.938 377.715L303.757 377.553L306.326 381.736C306.47 381.969 306.547 382.239 306.546 382.513C306.541 382.706 306.499 382.896 306.42 383.072C306.342 383.249 306.23 383.408 306.091 383.541C305.963 383.678 305.809 383.788 305.637 383.864C305.466 383.939 305.28 383.979 305.093 383.981C304.843 383.977 304.601 383.899 304.394 383.758C304.188 383.618 304.028 383.419 303.934 383.188L301.468 378.786L299.032 383.188C298.922 383.426 298.746 383.628 298.525 383.768C298.304 383.909 298.047 383.983 297.785 383.981Z" fill="#07285E"/>
<path d="M321.59 383.981C321.205 383.979 320.836 383.826 320.563 383.555C320.287 383.284 320.128 382.915 320.123 382.528C320.118 382.264 320.19 382.004 320.328 381.78L322.97 377.553L317.833 377.715C317.637 377.724 317.442 377.693 317.258 377.625C317.074 377.557 316.905 377.453 316.762 377.318C316.523 377.05 316.391 376.702 316.391 376.343C316.391 375.983 316.523 375.635 316.762 375.367C316.904 375.23 317.072 375.123 317.256 375.052C317.44 374.982 317.636 374.949 317.833 374.956L322.911 375.147L320.314 370.935C320.171 370.705 320.095 370.441 320.093 370.172C320.098 369.979 320.141 369.789 320.219 369.613C320.297 369.437 320.409 369.277 320.548 369.144C320.822 368.873 321.191 368.72 321.576 368.719C321.826 368.72 322.07 368.793 322.281 368.928C322.491 369.063 322.659 369.255 322.764 369.482L325.259 374.017L327.739 369.511C327.857 369.271 328.038 369.067 328.263 368.922C328.488 368.778 328.748 368.697 329.016 368.689C329.202 368.689 329.385 368.728 329.555 368.803C329.725 368.879 329.876 368.991 329.999 369.13C330.135 369.267 330.243 369.429 330.316 369.608C330.389 369.787 330.426 369.979 330.425 370.172C330.419 370.425 330.349 370.673 330.219 370.891L327.563 375.147L332.729 374.956C332.919 374.937 333.11 374.959 333.291 375.02C333.472 375.081 333.637 375.181 333.776 375.311C333.915 375.442 334.025 375.601 334.097 375.778C334.17 375.954 334.203 376.145 334.196 376.335C334.199 376.697 334.069 377.047 333.829 377.318C333.691 377.455 333.525 377.561 333.343 377.63C333.161 377.698 332.967 377.727 332.773 377.715L327.592 377.553L330.161 381.736C330.305 381.969 330.382 382.239 330.381 382.513C330.382 382.707 330.342 382.899 330.264 383.076C330.185 383.253 330.07 383.412 329.926 383.541C329.798 383.678 329.644 383.788 329.472 383.864C329.301 383.939 329.115 383.979 328.928 383.981C328.678 383.977 328.435 383.899 328.229 383.758C328.023 383.618 327.863 383.419 327.768 383.188L325.303 378.786L322.867 383.188C322.755 383.431 322.574 383.635 322.348 383.776C322.121 383.917 321.857 383.988 321.59 383.981Z" fill="#07285E"/>
<path d="M345.395 383.981C345.01 383.979 344.641 383.826 344.368 383.555C344.14 383.325 343.995 383.026 343.956 382.705C343.916 382.384 343.983 382.059 344.148 381.78L346.774 377.553L341.638 377.715C341.442 377.724 341.246 377.693 341.062 377.625C340.878 377.557 340.71 377.453 340.567 377.318C340.328 377.05 340.195 376.702 340.195 376.343C340.195 375.983 340.328 375.635 340.567 375.367C340.709 375.23 340.877 375.123 341.061 375.052C341.245 374.982 341.441 374.949 341.638 374.956L346.716 375.147L344.104 370.935C343.961 370.705 343.885 370.441 343.883 370.172C343.889 369.785 344.047 369.415 344.324 369.144C344.597 368.873 344.966 368.72 345.351 368.719C345.601 368.72 345.845 368.793 346.056 368.928C346.266 369.063 346.434 369.255 346.54 369.482L349.034 374.017L351.514 369.511C351.632 369.271 351.813 369.067 352.038 368.922C352.263 368.778 352.524 368.697 352.791 368.689C352.979 368.688 353.165 368.727 353.337 368.803C353.509 368.879 353.663 368.99 353.789 369.13C354.058 369.409 354.206 369.784 354.2 370.172C354.195 370.425 354.124 370.673 353.995 370.891L351.338 375.147L356.504 374.956C356.694 374.937 356.886 374.959 357.066 375.02C357.247 375.081 357.413 375.181 357.552 375.312C357.691 375.442 357.8 375.601 357.873 375.778C357.945 375.954 357.979 376.145 357.972 376.335C357.975 376.697 357.844 377.047 357.605 377.318C357.466 377.455 357.301 377.561 357.119 377.63C356.937 377.698 356.742 377.727 356.548 377.715L351.368 377.553L353.936 381.736C354.081 381.969 354.157 382.239 354.156 382.513C354.157 382.707 354.118 382.899 354.039 383.076C353.961 383.253 353.845 383.412 353.701 383.541C353.573 383.678 353.419 383.788 353.247 383.864C353.076 383.939 352.891 383.979 352.703 383.981C352.454 383.977 352.211 383.899 352.005 383.758C351.799 383.618 351.638 383.419 351.544 383.188L349.078 378.786L346.642 383.188C346.532 383.426 346.356 383.628 346.135 383.768C345.914 383.909 345.657 383.983 345.395 383.981Z" fill="#07285E"/>
<path d="M369.193 383.981C368.813 383.976 368.45 383.823 368.181 383.555C368.036 383.426 367.921 383.268 367.843 383.091C367.764 382.914 367.724 382.722 367.726 382.528C367.73 382.263 367.806 382.005 367.946 381.78L370.573 377.553L365.436 377.715C365.247 377.729 365.058 377.704 364.879 377.641C364.7 377.578 364.537 377.478 364.399 377.348C364.261 377.218 364.151 377.061 364.077 376.887C364.003 376.713 363.966 376.525 363.969 376.335C363.968 376.156 364.002 375.978 364.07 375.811C364.138 375.645 364.239 375.494 364.365 375.367C364.5 375.225 364.665 375.115 364.848 375.044C365.03 374.972 365.226 374.943 365.422 374.956L370.499 375.147L367.887 370.935C367.745 370.705 367.669 370.441 367.667 370.172C367.673 369.785 367.831 369.415 368.107 369.144C368.381 368.873 368.75 368.72 369.135 368.719C369.385 368.72 369.629 368.793 369.839 368.928C370.05 369.063 370.218 369.255 370.323 369.482L372.818 374.017L375.313 369.511C375.429 369.273 375.608 369.071 375.83 368.926C376.053 368.781 376.31 368.7 376.575 368.689C376.763 368.688 376.949 368.727 377.121 368.803C377.293 368.879 377.447 368.99 377.573 369.13C377.842 369.409 377.99 369.784 377.984 370.172C377.983 370.424 377.917 370.671 377.793 370.891L375.137 375.147L380.288 374.956C380.483 374.943 380.679 374.972 380.862 375.044C381.044 375.115 381.209 375.225 381.344 375.367C381.594 375.626 381.732 375.975 381.726 376.335C381.725 376.699 381.589 377.049 381.344 377.318C381.206 377.455 381.04 377.561 380.858 377.63C380.676 377.698 380.482 377.727 380.288 377.715L375.107 377.553L377.675 381.736C377.82 381.969 377.896 382.239 377.896 382.513C377.89 382.901 377.732 383.27 377.455 383.541C377.188 383.814 376.825 383.972 376.443 383.981C376.193 383.977 375.95 383.899 375.744 383.758C375.538 383.618 375.378 383.419 375.283 383.188L372.818 378.786L370.382 383.188C370.276 383.418 370.109 383.613 369.9 383.753C369.69 383.893 369.445 383.972 369.193 383.981Z" fill="#07285E"/>
<g style="mix-blend-mode:multiply">
<path d="M443.232 86.6777H183.453V102.952H443.232V86.6777Z" fill="#407BFF"/>
</g>
<path d="M341.594 56.6966H285.095C284.075 56.6966 283.097 56.2915 282.376 55.5705C281.655 54.8494 281.25 53.8714 281.25 52.8517C281.25 51.832 281.655 50.854 282.376 50.133C283.097 49.4119 284.075 49.0068 285.095 49.0068H341.594C342.614 49.0068 343.592 49.4119 344.313 50.133C345.034 50.854 345.439 51.832 345.439 52.8517C345.439 53.8714 345.034 54.8494 344.313 55.5705C343.592 56.2915 342.614 56.6966 341.594 56.6966Z" fill="#407BFF" stroke="#07285E" stroke-width="0.23204" stroke-linecap="round" stroke-linejoin="round"/>
<path d="M328.755 530.16C328.758 527.111 327.857 524.13 326.164 521.594C324.472 519.057 322.066 517.08 319.25 515.912C316.434 514.744 313.334 514.438 310.344 515.032C307.353 515.626 304.607 517.094 302.451 519.249C300.295 521.405 298.827 524.152 298.233 527.143C297.639 530.133 297.945 533.233 299.113 536.049C300.281 538.865 302.259 541.271 304.795 542.963C307.331 544.655 310.312 545.557 313.361 545.554C317.443 545.55 321.356 543.927 324.242 541.041C327.128 538.155 328.751 534.241 328.755 530.16Z" fill="#407BFF"/>
<path d="M321.161 522.353H305.547V537.967H321.161V522.353Z" fill="#407BFF" stroke="#07285E" stroke-width="0.23204" stroke-linecap="round" stroke-linejoin="round"/>
<path d="M499.347 352.973C499.347 352.973 478.89 300.994 497.102 294.815C516.062 288.373 515.226 322.698 514.492 339.428C512.951 375.176 509.004 381.824 506.054 373.093L499.347 352.973ZM493.199 393.52C498.819 400.858 500.404 393.256 490.263 358.931C485.509 342.788 475.177 310.136 459.328 322.39C444.11 334.13 480.328 376.688 480.328 376.688L493.199 393.52ZM482.339 423.311C487.695 428.066 487.798 422.063 475.075 397.277C469.102 385.669 456.467 362.174 446.121 373.797C436.186 385.009 470.041 412.26 470.041 412.26L482.339 423.311ZM470.599 458.737C475.955 463.506 476.058 457.489 463.335 432.718C457.362 421.11 444.727 397.6 434.381 409.237C424.504 420.479 458.257 447.73 458.257 447.73L470.599 458.737ZM504.498 386.623C495.928 389.969 502.737 393.608 538.53 393.506C555.318 393.506 589.599 392.743 582.291 374.09C575.291 356.172 524.31 378.992 524.31 378.992L504.498 386.623ZM494.739 410.455C485.67 412.026 491.628 416.956 526.731 423.971C543.182 427.273 576.92 433.363 573.471 413.699C570.17 394.738 515.666 406.977 515.666 406.977L494.739 410.455ZM483.821 439.556C476.102 440.671 481.033 444.971 510.545 451.722C524.383 454.892 552.78 460.835 550.314 444.061C547.966 427.919 501.593 437.047 501.593 437.047L483.821 439.556ZM475.53 466.514C467.972 468.437 473.328 472.194 503.412 475.774C517.5 477.447 546.366 480.353 542.155 463.932C538.09 448.17 492.949 462.126 492.949 462.126L475.53 466.514ZM519.76 357.375C515.358 367.237 524.501 365.74 555.582 338.621C570.14 325.897 599.344 299.277 576.216 286.025C554.012 273.287 530.136 334.746 530.136 334.746L519.76 357.375ZM476.674 501.632C472.022 504.347 476.586 505.403 497.924 501.148C507.932 499.166 528.287 494.764 521.404 486.076C514.742 477.711 487.446 495.322 487.446 495.322L476.674 501.632Z" fill="#407BFF"/>
<path opacity="0.3" d="M499.347 352.973C499.347 352.973 478.89 300.994 497.102 294.815C516.062 288.373 515.226 322.698 514.492 339.428C512.951 375.176 509.004 381.824 506.054 373.093L499.347 352.973ZM493.199 393.52C498.819 400.858 500.404 393.256 490.263 358.931C485.509 342.788 475.177 310.136 459.328 322.39C444.11 334.13 480.328 376.688 480.328 376.688L493.199 393.52ZM482.339 423.311C487.695 428.066 487.798 422.063 475.075 397.277C469.102 385.669 456.467 362.174 446.121 373.797C436.186 385.009 470.041 412.26 470.041 412.26L482.339 423.311ZM470.599 458.737C475.955 463.506 476.058 457.489 463.335 432.718C457.362 421.11 444.727 397.6 434.381 409.237C424.504 420.479 458.257 447.73 458.257 447.73L470.599 458.737ZM504.498 386.623C495.928 389.969 502.737 393.608 538.53 393.506C555.318 393.506 589.599 392.743 582.291 374.09C575.291 356.172 524.31 378.992 524.31 378.992L504.498 386.623ZM494.739 410.455C485.67 412.026 491.628 416.956 526.731 423.971C543.182 427.273 576.92 433.363 573.471 413.699C570.17 394.738 515.666 406.977 515.666 406.977L494.739 410.455ZM483.821 439.556C476.102 440.671 481.033 444.971 510.545 451.722C524.383 454.892 552.78 460.835 550.314 444.061C547.966 427.919 501.593 437.047 501.593 437.047L483.821 439.556ZM475.53 466.514C467.972 468.437 473.328 472.194 503.412 475.774C517.5 477.447 546.366 480.353 542.155 463.932C538.09 448.17 492.949 462.126 492.949 462.126L475.53 466.514ZM519.76 357.375C515.358 367.237 524.501 365.74 555.582 338.621C570.14 325.897 599.344 299.277 576.216 286.025C554.012 273.287 530.136 334.746 530.136 334.746L519.76 357.375ZM476.674 501.632C472.022 504.347 476.586 505.403 497.924 501.148C507.932 499.166 528.287 494.764 521.404 486.076C514.742 477.711 487.446 495.322 487.446 495.322L476.674 501.632Z" fill="white"/>
<path d="M508.37 377.173L504.804 317.841L508.37 377.173ZM497.085 396.749L474.544 345.724L497.085 396.749ZM555.257 381.913L501.238 389.661L555.257 381.913ZM485.403 424.25L456.156 386.726L485.403 424.25ZM490.54 412.745L530.837 414.77L490.54 412.745ZM481.001 441.523L511.818 444.576L481.001 441.523ZM473.56 459.808L458.254 436.783L473.56 459.808ZM471.799 467.938L508.032 468.276L471.799 467.938ZM464.462 535.913C464.705 535.895 464.93 535.781 465.09 535.597C465.249 535.413 465.329 535.173 465.313 534.93C463.009 500.326 476.393 443.651 497.862 397.131C511.584 367.399 565.368 308.963 565.94 308.376C566.113 308.202 566.21 307.968 566.21 307.723C566.21 307.478 566.113 307.243 565.94 307.07C565.856 306.984 565.755 306.917 565.644 306.871C565.533 306.825 565.415 306.801 565.295 306.801C565.175 306.801 565.056 306.825 564.945 306.871C564.834 306.917 564.733 306.984 564.649 307.07C564.106 307.657 510.101 366.313 496.263 396.309C474.397 443.959 461.189 499.607 463.537 535.048C463.556 535.281 463.661 535.5 463.832 535.66C464.003 535.82 464.228 535.91 464.462 535.913ZM508.355 378.082C508.598 378.067 508.825 377.957 508.987 377.776C509.149 377.595 509.233 377.357 509.221 377.114L505.714 317.753C505.708 317.632 505.678 317.514 505.626 317.405C505.575 317.295 505.501 317.197 505.411 317.117C505.321 317.036 505.216 316.974 505.101 316.935C504.987 316.896 504.866 316.879 504.745 316.887C504.502 316.902 504.275 317.013 504.113 317.194C503.951 317.375 503.867 317.613 503.879 317.856L507.445 377.187C507.457 377.421 507.557 377.641 507.727 377.802C507.896 377.964 508.121 378.053 508.355 378.053V378.082ZM497.407 397.586C497.627 397.486 497.8 397.305 497.887 397.08C497.975 396.855 497.971 396.605 497.877 396.382L475.321 345.357C475.224 345.135 475.043 344.961 474.817 344.873C474.591 344.785 474.34 344.79 474.118 344.887C473.896 344.985 473.722 345.166 473.634 345.392C473.546 345.618 473.551 345.869 473.648 346.091L496.189 397.116C496.26 397.28 496.377 397.42 496.525 397.519C496.674 397.618 496.848 397.671 497.026 397.674C497.178 397.682 497.329 397.651 497.466 397.586H497.407ZM501.311 390.542L555.301 382.823C555.431 382.82 555.56 382.79 555.677 382.734C555.795 382.678 555.9 382.598 555.985 382.499C556.069 382.4 556.132 382.284 556.169 382.159C556.206 382.033 556.215 381.902 556.198 381.773C556.18 381.643 556.135 381.519 556.066 381.409C555.997 381.298 555.905 381.203 555.797 381.131C555.689 381.058 555.566 381.009 555.438 380.987C555.309 380.965 555.178 380.97 555.051 381.003L501.062 388.722C500.82 388.738 500.595 388.848 500.435 389.03C500.276 389.212 500.195 389.449 500.21 389.691C500.226 389.932 500.337 390.157 500.518 390.317C500.7 390.476 500.938 390.557 501.179 390.542H501.311ZM485.917 424.984C486.109 424.834 486.233 424.614 486.263 424.372C486.294 424.13 486.227 423.886 486.078 423.693L456.816 386.095C456.666 385.901 456.445 385.773 456.202 385.742C455.958 385.71 455.712 385.777 455.517 385.926C455.323 386.076 455.196 386.297 455.164 386.541C455.132 386.784 455.199 387.031 455.349 387.225L484.669 424.881C484.755 424.991 484.864 425.08 484.988 425.141C485.113 425.202 485.25 425.234 485.389 425.234C485.608 425.223 485.816 425.134 485.976 424.984H485.917ZM531.645 414.814C531.653 414.572 531.565 414.335 531.4 414.157C531.235 413.978 531.007 413.872 530.764 413.86L490.54 411.821C490.313 411.836 490.101 411.934 489.943 412.096C489.784 412.258 489.69 412.472 489.679 412.699C489.669 412.925 489.741 413.147 489.884 413.324C490.026 413.5 490.228 413.618 490.451 413.655L530.749 415.695C530.992 415.703 531.228 415.615 531.407 415.45C531.585 415.285 531.692 415.057 531.703 414.814H531.645ZM512.67 444.664C512.684 444.543 512.674 444.42 512.64 444.304C512.606 444.187 512.549 444.078 512.472 443.984C512.396 443.889 512.301 443.811 512.194 443.754C512.087 443.697 511.969 443.662 511.848 443.651L481.03 440.613C480.91 440.601 480.79 440.613 480.675 440.648C480.56 440.682 480.453 440.74 480.36 440.816C480.267 440.892 480.19 440.987 480.134 441.093C480.078 441.199 480.043 441.315 480.032 441.435C480.012 441.676 480.086 441.915 480.24 442.101C480.393 442.288 480.614 442.407 480.854 442.433L511.672 445.485H511.76C511.996 445.502 512.23 445.425 512.411 445.271C512.592 445.118 512.706 444.9 512.728 444.664H512.67ZM474.001 460.571C474.204 460.437 474.347 460.227 474.396 459.987C474.446 459.748 474.398 459.499 474.265 459.295L459.032 436.269C458.893 436.071 458.682 435.934 458.444 435.888C458.206 435.841 457.959 435.889 457.755 436.02C457.552 436.155 457.409 436.365 457.36 436.604C457.31 436.843 457.358 437.092 457.491 437.297L472.724 460.322C472.811 460.448 472.927 460.551 473.063 460.622C473.198 460.694 473.349 460.732 473.502 460.733C473.701 460.744 473.897 460.687 474.059 460.571H474.001ZM508.957 468.276C508.953 468.034 508.857 467.803 508.687 467.631C508.518 467.459 508.288 467.359 508.047 467.351L471.814 467.014C471.573 467.014 471.341 467.11 471.171 467.28C471 467.451 470.904 467.682 470.904 467.924C470.9 468.045 470.921 468.166 470.965 468.279C471.009 468.392 471.076 468.495 471.161 468.581C471.246 468.667 471.348 468.736 471.46 468.782C471.572 468.828 471.693 468.85 471.814 468.848L508.047 469.186C508.171 469.192 508.295 469.173 508.411 469.13C508.527 469.087 508.634 469.021 508.724 468.936C508.814 468.851 508.887 468.749 508.937 468.636C508.987 468.522 509.014 468.4 509.015 468.276H508.957ZM460.338 522.456C460.412 522.295 466.59 505.272 485.168 501.207C485.408 501.154 485.616 501.009 485.748 500.802C485.88 500.596 485.925 500.345 485.873 500.106C485.814 499.872 485.666 499.669 485.461 499.54C485.256 499.412 485.009 499.367 484.772 499.416C465.181 503.702 458.68 521.679 458.606 521.855C458.531 522.086 458.548 522.338 458.655 522.557C458.762 522.777 458.95 522.945 459.179 523.029H459.472C459.667 523.046 459.863 522.999 460.029 522.896C460.196 522.793 460.325 522.639 460.397 522.456H460.338ZM464.462 535.913C464.705 535.895 464.93 535.781 465.09 535.597C465.249 535.413 465.329 535.173 465.313 534.93C463.009 500.326 476.393 443.651 497.862 397.131C511.584 367.399 565.368 308.963 565.94 308.376C566.113 308.202 566.21 307.968 566.21 307.723C566.21 307.478 566.113 307.243 565.94 307.07C565.856 306.984 565.755 306.917 565.644 306.871C565.533 306.825 565.415 306.801 565.295 306.801C565.175 306.801 565.056 306.825 564.945 306.871C564.834 306.917 564.733 306.984 564.649 307.07C564.106 307.657 510.101 366.313 496.263 396.309C474.397 443.959 461.189 499.607 463.537 535.048C463.556 535.281 463.661 535.5 463.832 535.66C464.003 535.82 464.228 535.91 464.462 535.913ZM508.355 378.082C508.598 378.067 508.825 377.957 508.987 377.776C509.149 377.595 509.233 377.357 509.221 377.114L505.714 317.753C505.708 317.632 505.678 317.514 505.626 317.405C505.575 317.295 505.501 317.197 505.411 317.117C505.321 317.036 505.216 316.974 505.101 316.935C504.987 316.896 504.866 316.879 504.745 316.887C504.502 316.902 504.275 317.013 504.113 317.194C503.951 317.375 503.867 317.613 503.879 317.856L507.445 377.187C507.457 377.421 507.557 377.641 507.727 377.802C507.896 377.964 508.121 378.053 508.355 378.053V378.082ZM497.407 397.586C497.627 397.486 497.8 397.305 497.887 397.08C497.975 396.855 497.971 396.605 497.877 396.382L475.321 345.357C475.224 345.135 475.043 344.961 474.817 344.873C474.591 344.785 474.34 344.79 474.118 344.887C473.896 344.985 473.722 345.166 473.634 345.392C473.546 345.618 473.551 345.869 473.648 346.091L496.189 397.116C496.26 397.28 496.377 397.42 496.525 397.519C496.674 397.618 496.848 397.671 497.026 397.674C497.178 397.682 497.329 397.651 497.466 397.586H497.407ZM501.311 390.542L555.301 382.823C555.431 382.82 555.56 382.79 555.677 382.734C555.795 382.678 555.9 382.598 555.985 382.499C556.069 382.4 556.132 382.284 556.169 382.159C556.206 382.033 556.215 381.902 556.198 381.773C556.18 381.643 556.135 381.519 556.066 381.409C555.997 381.298 555.905 381.203 555.797 381.131C555.689 381.058 555.566 381.009 555.438 380.987C555.309 380.965 555.178 380.97 555.051 381.003L501.062 388.722C500.82 388.738 500.595 388.848 500.435 389.03C500.276 389.212 500.195 389.449 500.21 389.691C500.226 389.932 500.337 390.157 500.518 390.317C500.7 390.476 500.938 390.557 501.179 390.542H501.311ZM485.917 424.984C486.109 424.834 486.233 424.614 486.263 424.372C486.294 424.13 486.227 423.886 486.078 423.693L456.816 386.095C456.742 385.999 456.649 385.918 456.544 385.857C456.439 385.797 456.322 385.757 456.202 385.742C456.081 385.726 455.959 385.734 455.841 385.766C455.724 385.798 455.614 385.852 455.517 385.926C455.421 386.001 455.34 386.093 455.28 386.198C455.219 386.304 455.18 386.42 455.164 386.541C455.148 386.661 455.157 386.784 455.188 386.901C455.22 387.019 455.274 387.129 455.349 387.225L484.669 424.881C484.755 424.991 484.864 425.08 484.988 425.141C485.113 425.202 485.25 425.234 485.389 425.234C485.608 425.223 485.816 425.134 485.976 424.984H485.917ZM531.645 414.814C531.653 414.572 531.565 414.335 531.4 414.157C531.235 413.978 531.007 413.872 530.764 413.86L490.54 411.821C490.313 411.836 490.101 411.934 489.943 412.096C489.784 412.258 489.69 412.472 489.679 412.699C489.669 412.925 489.741 413.147 489.884 413.324C490.026 413.5 490.228 413.618 490.451 413.655L530.749 415.695C530.992 415.703 531.228 415.615 531.407 415.45C531.585 415.285 531.692 415.057 531.703 414.814H531.645ZM512.67 444.664C512.684 444.543 512.674 444.42 512.64 444.304C512.606 444.187 512.549 444.078 512.472 443.984C512.396 443.889 512.301 443.811 512.194 443.754C512.087 443.697 511.969 443.662 511.848 443.651L481.03 440.613C480.91 440.601 480.79 440.613 480.675 440.648C480.56 440.682 480.453 440.74 480.36 440.816C480.267 440.892 480.19 440.987 480.134 441.093C480.078 441.199 480.043 441.315 480.032 441.435C480.012 441.676 480.086 441.915 480.24 442.101C480.393 442.288 480.614 442.407 480.854 442.433L511.672 445.485H511.76C511.996 445.502 512.23 445.425 512.411 445.271C512.592 445.118 512.706 444.9 512.728 444.664H512.67ZM474.001 460.571C474.204 460.437 474.347 460.227 474.396 459.987C474.446 459.748 474.398 459.499 474.265 459.295L459.032 436.269C458.893 436.071 458.682 435.934 458.444 435.888C458.206 435.841 457.959 435.889 457.755 436.02C457.552 436.155 457.409 436.365 457.36 436.604C457.31 436.843 457.358 437.092 457.491 437.297L472.724 460.322C472.811 460.448 472.927 460.551 473.063 460.622C473.198 460.694 473.349 460.732 473.502 460.733C473.701 460.744 473.897 460.687 474.059 460.571H474.001ZM508.957 468.276C508.953 468.034 508.857 467.803 508.687 467.631C508.518 467.459 508.288 467.359 508.047 467.351L471.814 467.014C471.573 467.014 471.341 467.11 471.171 467.28C471 467.451 470.904 467.682 470.904 467.924C470.9 468.045 470.921 468.166 470.965 468.279C471.009 468.392 471.076 468.495 471.161 468.581C471.246 468.667 471.348 468.736 471.46 468.782C471.572 468.828 471.693 468.85 471.814 468.848L508.047 469.186C508.171 469.192 508.295 469.173 508.411 469.13C508.527 469.087 508.634 469.021 508.724 468.936C508.814 468.851 508.887 468.749 508.937 468.636C508.987 468.522 509.014 468.4 509.015 468.276H508.957ZM460.338 522.456C460.412 522.295 466.59 505.272 485.168 501.207C485.408 501.154 485.616 501.009 485.748 500.802C485.88 500.596 485.925 500.345 485.873 500.106C485.814 499.872 485.666 499.669 485.461 499.54C485.256 499.412 485.009 499.367 484.772 499.416C465.181 503.702 458.68 521.679 458.606 521.855C458.531 522.086 458.548 522.338 458.655 522.557C458.762 522.777 458.95 522.945 459.179 523.029H459.472C459.667 523.046 459.863 522.999 460.029 522.896C460.196 522.793 460.325 522.639 460.397 522.456H460.338Z" fill="#407BFF"/>
<path opacity="0.2" d="M508.37 377.173L504.804 317.841L508.37 377.173ZM497.085 396.749L474.544 345.724L497.085 396.749ZM555.257 381.913L501.238 389.661L555.257 381.913ZM485.403 424.25L456.156 386.726L485.403 424.25ZM490.54 412.745L530.837 414.77L490.54 412.745ZM481.001 441.523L511.818 444.576L481.001 441.523ZM473.56 459.808L458.254 436.783L473.56 459.808ZM471.799 467.938L508.032 468.276L471.799 467.938ZM464.462 535.913C464.705 535.895 464.93 535.781 465.09 535.597C465.249 535.413 465.329 535.173 465.313 534.93C463.009 500.326 476.393 443.651 497.862 397.131C511.584 367.399 565.368 308.963 565.94 308.376C566.113 308.202 566.21 307.968 566.21 307.723C566.21 307.478 566.113 307.243 565.94 307.07C565.856 306.984 565.755 306.917 565.644 306.871C565.533 306.825 565.415 306.801 565.295 306.801C565.175 306.801 565.056 306.825 564.945 306.871C564.834 306.917 564.733 306.984 564.649 307.07C564.106 307.657 510.101 366.313 496.263 396.309C474.397 443.959 461.189 499.607 463.537 535.048C463.556 535.281 463.661 535.5 463.832 535.66C464.003 535.82 464.228 535.91 464.462 535.913ZM508.355 378.082C508.598 378.067 508.825 377.957 508.987 377.776C509.149 377.595 509.233 377.357 509.221 377.114L505.714 317.753C505.708 317.632 505.678 317.514 505.626 317.405C505.575 317.295 505.501 317.197 505.411 317.117C505.321 317.036 505.216 316.974 505.101 316.935C504.987 316.896 504.866 316.879 504.745 316.887C504.502 316.902 504.275 317.013 504.113 317.194C503.951 317.375 503.867 317.613 503.879 317.856L507.445 377.187C507.457 377.421 507.557 377.641 507.727 377.802C507.896 377.964 508.121 378.053 508.355 378.053V378.082ZM497.407 397.586C497.627 397.486 497.8 397.305 497.887 397.08C497.975 396.855 497.971 396.605 497.877 396.382L475.321 345.357C475.224 345.135 475.043 344.961 474.817 344.873C474.591 344.785 474.34 344.79 474.118 344.887C473.896 344.985 473.722 345.166 473.634 345.392C473.546 345.618 473.551 345.869 473.648 346.091L496.189 397.116C496.26 397.28 496.377 397.42 496.525 397.519C496.674 397.618 496.848 397.671 497.026 397.674C497.178 397.682 497.329 397.651 497.466 397.586H497.407ZM501.311 390.542L555.301 382.823C555.431 382.82 555.56 382.79 555.677 382.734C555.795 382.678 555.9 382.598 555.985 382.499C556.069 382.4 556.132 382.284 556.169 382.159C556.206 382.033 556.215 381.902 556.198 381.773C556.18 381.643 556.135 381.519 556.066 381.409C555.997 381.298 555.905 381.203 555.797 381.131C555.689 381.058 555.566 381.009 555.438 380.987C555.309 380.965 555.178 380.97 555.051 381.003L501.062 388.722C500.82 388.738 500.595 388.848 500.435 389.03C500.276 389.212 500.195 389.449 500.21 389.691C500.226 389.932 500.337 390.157 500.518 390.317C500.7 390.476 500.938 390.557 501.179 390.542H501.311ZM485.917 424.984C486.109 424.834 486.233 424.614 486.263 424.372C486.294 424.13 486.227 423.886 486.078 423.693L456.816 386.095C456.666 385.901 456.445 385.773 456.202 385.742C455.958 385.71 455.712 385.777 455.517 385.926C455.323 386.076 455.196 386.297 455.164 386.541C455.132 386.784 455.199 387.031 455.349 387.225L484.669 424.881C484.755 424.991 484.864 425.08 484.988 425.141C485.113 425.202 485.25 425.234 485.389 425.234C485.608 425.223 485.816 425.134 485.976 424.984H485.917ZM531.645 414.814C531.653 414.572 531.565 414.335 531.4 414.157C531.235 413.978 531.007 413.872 530.764 413.86L490.54 411.821C490.313 411.836 490.101 411.934 489.943 412.096C489.784 412.258 489.69 412.472 489.679 412.699C489.669 412.925 489.741 413.147 489.884 413.324C490.026 413.5 490.228 413.618 490.451 413.655L530.749 415.695C530.992 415.703 531.228 415.615 531.407 415.45C531.585 415.285 531.692 415.057 531.703 414.814H531.645ZM512.67 444.664C512.684 444.543 512.674 444.42 512.64 444.304C512.606 444.187 512.549 444.078 512.472 443.984C512.396 443.889 512.301 443.811 512.194 443.754C512.087 443.697 511.969 443.662 511.848 443.651L481.03 440.613C480.91 440.601 480.79 440.613 480.675 440.648C480.56 440.682 480.453 440.74 480.36 440.816C480.267 440.892 480.19 440.987 480.134 441.093C480.078 441.199 480.043 441.315 480.032 441.435C480.012 441.676 480.086 441.915 480.24 442.101C480.393 442.288 480.614 442.407 480.854 442.433L511.672 445.485H511.76C511.996 445.502 512.23 445.425 512.411 445.271C512.592 445.118 512.706 444.9 512.728 444.664H512.67ZM474.001 460.571C474.204 460.437 474.347 460.227 474.396 459.987C474.446 459.748 474.398 459.499 474.265 459.295L459.032 436.269C458.893 436.071 458.682 435.934 458.444 435.888C458.206 435.841 457.959 435.889 457.755 436.02C457.552 436.155 457.409 436.365 457.36 436.604C457.31 436.843 457.358 437.092 457.491 437.297L472.724 460.322C472.811 460.448 472.927 460.551 473.063 460.622C473.198 460.694 473.349 460.732 473.502 460.733C473.701 460.744 473.897 460.687 474.059 460.571H474.001ZM508.957 468.276C508.953 468.034 508.857 467.803 508.687 467.631C508.518 467.459 508.288 467.359 508.047 467.351L471.814 467.014C471.573 467.014 471.341 467.11 471.171 467.28C471 467.451 470.904 467.682 470.904 467.924C470.9 468.045 470.921 468.166 470.965 468.279C471.009 468.392 471.076 468.495 471.161 468.581C471.246 468.667 471.348 468.736 471.46 468.782C471.572 468.828 471.693 468.85 471.814 468.848L508.047 469.186C508.171 469.192 508.295 469.173 508.411 469.13C508.527 469.087 508.634 469.021 508.724 468.936C508.814 468.851 508.887 468.749 508.937 468.636C508.987 468.522 509.014 468.4 509.015 468.276H508.957ZM460.338 522.456C460.412 522.295 466.59 505.272 485.168 501.207C485.408 501.154 485.616 501.009 485.748 500.802C485.88 500.596 485.925 500.345 485.873 500.106C485.814 499.872 485.666 499.669 485.461 499.54C485.256 499.412 485.009 499.367 484.772 499.416C465.181 503.702 458.68 521.679 458.606 521.855C458.531 522.086 458.548 522.338 458.655 522.557C458.762 522.777 458.95 522.945 459.179 523.029H459.472C459.667 523.046 459.863 522.999 460.029 522.896C460.196 522.793 460.325 522.639 460.397 522.456H460.338ZM464.462 535.913C464.705 535.895 464.93 535.781 465.09 535.597C465.249 535.413 465.329 535.173 465.313 534.93C463.009 500.326 476.393 443.651 497.862 397.131C511.584 367.399 565.368 308.963 565.94 308.376C566.113 308.202 566.21 307.968 566.21 307.723C566.21 307.478 566.113 307.243 565.94 307.07C565.856 306.984 565.755 306.917 565.644 306.871C565.533 306.825 565.415 306.801 565.295 306.801C565.175 306.801 565.056 306.825 564.945 306.871C564.834 306.917 564.733 306.984 564.649 307.07C564.106 307.657 510.101 366.313 496.263 396.309C474.397 443.959 461.189 499.607 463.537 535.048C463.556 535.281 463.661 535.5 463.832 535.66C464.003 535.82 464.228 535.91 464.462 535.913ZM508.355 378.082C508.598 378.067 508.825 377.957 508.987 377.776C509.149 377.595 509.233 377.357 509.221 377.114L505.714 317.753C505.708 317.632 505.678 317.514 505.626 317.405C505.575 317.295 505.501 317.197 505.411 317.117C505.321 317.036 505.216 316.974 505.101 316.935C504.987 316.896 504.866 316.879 504.745 316.887C504.502 316.902 504.275 317.013 504.113 317.194C503.951 317.375 503.867 317.613 503.879 317.856L507.445 377.187C507.457 377.421 507.557 377.641 507.727 377.802C507.896 377.964 508.121 378.053 508.355 378.053V378.082ZM497.407 397.586C497.627 397.486 497.8 397.305 497.887 397.08C497.975 396.855 497.971 396.605 497.877 396.382L475.321 345.357C475.224 345.135 475.043 344.961 474.817 344.873C474.591 344.785 474.34 344.79 474.118 344.887C473.896 344.985 473.722 345.166 473.634 345.392C473.546 345.618 473.551 345.869 473.648 346.091L496.189 397.116C496.26 397.28 496.377 397.42 496.525 397.519C496.674 397.618 496.848 397.671 497.026 397.674C497.178 397.682 497.329 397.651 497.466 397.586H497.407ZM501.311 390.542L555.301 382.823C555.431 382.82 555.56 382.79 555.677 382.734C555.795 382.678 555.9 382.598 555.985 382.499C556.069 382.4 556.132 382.284 556.169 382.159C556.206 382.033 556.215 381.902 556.198 381.773C556.18 381.643 556.135 381.519 556.066 381.409C555.997 381.298 555.905 381.203 555.797 381.131C555.689 381.058 555.566 381.009 555.438 380.987C555.309 380.965 555.178 380.97 555.051 381.003L501.062 388.722C500.82 388.738 500.595 388.848 500.435 389.03C500.276 389.212 500.195 389.449 500.21 389.691C500.226 389.932 500.337 390.157 500.518 390.317C500.7 390.476 500.938 390.557 501.179 390.542H501.311ZM485.917 424.984C486.109 424.834 486.233 424.614 486.263 424.372C486.294 424.13 486.227 423.886 486.078 423.693L456.816 386.095C456.742 385.999 456.649 385.918 456.544 385.857C456.439 385.797 456.322 385.757 456.202 385.742C456.081 385.726 455.959 385.734 455.841 385.766C455.724 385.798 455.614 385.852 455.517 385.926C455.421 386.001 455.34 386.093 455.28 386.198C455.219 386.304 455.18 386.42 455.164 386.541C455.148 386.661 455.157 386.784 455.188 386.901C455.22 387.019 455.274 387.129 455.349 387.225L484.669 424.881C484.755 424.991 484.864 425.08 484.988 425.141C485.113 425.202 485.25 425.234 485.389 425.234C485.608 425.223 485.816 425.134 485.976 424.984H485.917ZM531.645 414.814C531.653 414.572 531.565 414.335 531.4 414.157C531.235 413.978 531.007 413.872 530.764 413.86L490.54 411.821C490.313 411.836 490.101 411.934 489.943 412.096C489.784 412.258 489.69 412.472 489.679 412.699C489.669 412.925 489.741 413.147 489.884 413.324C490.026 413.5 490.228 413.618 490.451 413.655L530.749 415.695C530.992 415.703 531.228 415.615 531.407 415.45C531.585 415.285 531.692 415.057 531.703 414.814H531.645ZM512.67 444.664C512.684 444.543 512.674 444.42 512.64 444.304C512.606 444.187 512.549 444.078 512.472 443.984C512.396 443.889 512.301 443.811 512.194 443.754C512.087 443.697 511.969 443.662 511.848 443.651L481.03 440.613C480.91 440.601 480.79 440.613 480.675 440.648C480.56 440.682 480.453 440.74 480.36 440.816C480.267 440.892 480.19 440.987 480.134 441.093C480.078 441.199 480.043 441.315 480.032 441.435C480.012 441.676 480.086 441.915 480.24 442.101C480.393 442.288 480.614 442.407 480.854 442.433L511.672 445.485H511.76C511.996 445.502 512.23 445.425 512.411 445.271C512.592 445.118 512.706 444.9 512.728 444.664H512.67ZM474.001 460.571C474.204 460.437 474.347 460.227 474.396 459.987C474.446 459.748 474.398 459.499 474.265 459.295L459.032 436.269C458.893 436.071 458.682 435.934 458.444 435.888C458.206 435.841 457.959 435.889 457.755 436.02C457.552 436.155 457.409 436.365 457.36 436.604C457.31 436.843 457.358 437.092 457.491 437.297L472.724 460.322C472.811 460.448 472.927 460.551 473.063 460.622C473.198 460.694 473.349 460.732 473.502 460.733C473.701 460.744 473.897 460.687 474.059 460.571H474.001ZM508.957 468.276C508.953 468.034 508.857 467.803 508.687 467.631C508.518 467.459 508.288 467.359 508.047 467.351L471.814 467.014C471.573 467.014 471.341 467.11 471.171 467.28C471 467.451 470.904 467.682 470.904 467.924C470.9 468.045 470.921 468.166 470.965 468.279C471.009 468.392 471.076 468.495 471.161 468.581C471.246 468.667 471.348 468.736 471.46 468.782C471.572 468.828 471.693 468.85 471.814 468.848L508.047 469.186C508.171 469.192 508.295 469.173 508.411 469.13C508.527 469.087 508.634 469.021 508.724 468.936C508.814 468.851 508.887 468.749 508.937 468.636C508.987 468.522 509.014 468.4 509.015 468.276H508.957ZM460.338 522.456C460.412 522.295 466.59 505.272 485.168 501.207C485.408 501.154 485.616 501.009 485.748 500.802C485.88 500.596 485.925 500.345 485.873 500.106C485.814 499.872 485.666 499.669 485.461 499.54C485.256 499.412 485.009 499.367 484.772 499.416C465.181 503.702 458.68 521.679 458.606 521.855C458.531 522.086 458.548 522.338 458.655 522.557C458.762 522.777 458.95 522.945 459.179 523.029H459.472C459.667 523.046 459.863 522.999 460.029 522.896C460.196 522.793 460.325 522.639 460.397 522.456H460.338Z" fill="black"/>
<path d="M488.428 510.04H446.883V518.64H450.508L458.007 565.556H477.304L484.803 518.64H488.428V510.04Z" fill="#407BFF"/>
<path opacity="0.3" d="M488.428 510.04H446.883V518.64H450.508L458.007 565.556H477.304L484.803 518.64H488.428V510.04Z" fill="white"/>
<path d="M114.391 249.997L66.0659 234.222L61.7661 222.863L51.9484 222.555L34.1328 219.18L36.2754 222.863L58.699 239.138L64.2315 241.897L114.773 268.297L114.391 249.997Z" fill="white" stroke="#263238" stroke-width="0.174189" stroke-miterlimit="10"/>
<path d="M61.7702 222.863L57.1622 220.104L47.9609 223.48L49.4871 225.314L61.7702 222.863Z" fill="white" stroke="#263238" stroke-width="0.174189" stroke-linejoin="round"/>
<path d="M114.391 249.997L66.0659 234.222L61.7661 222.863L51.9484 222.555L34.1328 219.18L36.2754 222.863L58.699 239.138L64.2315 241.897L114.773 268.297L114.391 249.997Z" fill="white"/>
<path opacity="0.5" d="M114.391 249.997L66.0659 234.222L61.7661 222.863L51.9484 222.555L34.1328 219.18L36.2754 222.863L58.699 239.138L64.2315 241.897L114.773 268.297L114.391 249.997Z" fill="white" stroke="#263238" stroke-width="0.174189" stroke-miterlimit="10"/>
<path d="M114.391 249.997L66.0659 234.222L61.7661 222.863L51.9484 222.555L34.1328 219.18L36.2754 222.863L58.699 239.138L64.2315 241.897L114.773 268.297L114.391 249.997Z" stroke="#263238" stroke-width="0.174189" stroke-miterlimit="10"/>
<path d="M61.7702 222.863L57.1622 220.104L47.9609 223.48L49.4871 225.314L61.7702 222.863Z" fill="white"/>
<path opacity="0.5" d="M61.7702 222.863L57.1622 220.104L47.9609 223.48L49.4871 225.314L61.7702 222.863Z" fill="#407BFF" stroke="#263238" stroke-width="0.174189" stroke-linejoin="round"/>
<path d="M61.7702 222.863L57.1622 220.104L47.9609 223.48L49.4871 225.314L61.7702 222.863Z" stroke="#263238" stroke-width="0.174189" stroke-linejoin="round"/>
<path d="M124.65 147.609C124.65 147.609 123.901 154.213 125.765 158.454C127.629 162.695 137.975 177.062 137.975 177.062L118.662 192.545C118.662 192.545 110.65 176.402 109.124 173.79C107.597 171.178 105.763 159.937 110.738 151.88C115.713 143.823 122.874 141.651 124.65 147.609Z" fill="white"/>
<g style="mix-blend-mode:multiply" opacity="0.5">
<path d="M114.732 168.83L123.111 186.205L118.65 192.56L110.227 177.518L114.732 168.83Z" fill="white"/>
</g>
<path d="M124.65 147.609C124.65 147.609 123.901 154.213 125.765 158.454C127.629 162.695 137.975 177.062 137.975 177.062L118.662 192.545C118.662 192.545 110.65 176.402 109.124 173.79C107.597 171.178 105.763 159.937 110.738 151.88C115.713 143.823 122.874 141.651 124.65 147.609Z" stroke="#263238" stroke-width="0.174189" stroke-miterlimit="10"/>
<path d="M130.642 135.517C129.453 128.18 121.044 113.255 107.704 113.828C99.046 114.209 94.9957 115.955 91.2388 118.083C88.1765 119.888 85.3221 122.023 82.7273 124.452C76.2115 132.274 73.9222 134.417 75.1842 140.404C75.0807 142.792 75.4549 145.177 76.2849 147.419C78.2807 152.746 79.6455 156.224 81.3771 158.763C80.8488 161.243 79.4694 167.788 79.396 169.285C79.3226 170.782 83.7985 169.74 86.0585 169.167C90.2556 178.559 97.9454 185.075 100.337 185.824C104.505 187.13 111.094 180.276 114.587 174.964C118.08 169.652 115.438 163.679 115.453 161.302C115.467 158.924 123.304 153.7 126.21 152.042C129.115 150.383 131.816 142.84 130.642 135.517Z" fill="white"/>
<g style="mix-blend-mode:multiply" opacity="0.5">
<path d="M75.2409 140.404C75.1374 142.792 75.5115 145.177 76.3415 147.419C78.3373 152.746 79.7021 156.224 81.4338 158.763C80.9055 161.243 79.526 167.788 79.4527 169.285C79.3793 170.781 83.8552 169.739 86.1152 169.167C90.3122 178.559 98.002 185.075 100.394 185.823C104.562 187.13 111.151 180.276 114.644 174.964C115.516 173.638 116.083 172.134 116.302 170.561C116.111 169.872 115.979 169.446 115.979 169.446C115.979 169.446 114.013 177.004 110.109 176.02C106.205 175.037 100.233 167.215 96.9014 164.515C93.5701 161.815 94.9349 158.264 94.2745 154.243C93.6141 150.222 83.7525 146.685 83.0921 144.381C82.4317 142.077 84.7357 132.538 84.7357 132.538C84.7357 132.538 88.4778 127.549 87.6707 129.603C87.1002 131.384 86.8933 133.262 87.0622 135.125C87.2311 136.988 87.7724 138.798 88.6539 140.448C89.2725 141.75 90.2539 142.845 91.48 143.603C92.7061 144.36 94.1249 144.748 95.5659 144.718L99.1467 126.976L91.589 120.725L82.7839 124.393C76.2094 132.274 73.9642 134.416 75.2409 140.404Z" fill="white"/>
</g>
<path d="M130.642 135.517C129.453 128.18 121.044 113.255 107.704 113.828C99.046 114.209 94.9957 115.955 91.2388 118.083C88.1765 119.888 85.3221 122.023 82.7273 124.452C76.2115 132.274 73.9222 134.417 75.1842 140.404C75.0807 142.792 75.4549 145.177 76.2849 147.419C78.2807 152.746 79.6455 156.224 81.3771 158.763C80.8488 161.243 79.4694 167.788 79.396 169.285C79.3226 170.782 83.7985 169.74 86.0585 169.167C90.2556 178.559 97.9454 185.075 100.337 185.824C104.505 187.13 111.094 180.276 114.587 174.964C118.08 169.652 115.438 163.679 115.453 161.302C115.467 158.924 123.304 153.7 126.21 152.042C129.115 150.383 131.816 142.84 130.642 135.517Z" stroke="#263238" stroke-width="0.173502" stroke-miterlimit="10"/>
<path d="M83.1953 154.331L84.6628 158.528C84.6628 158.528 87.818 159.57 91.6629 155.373" stroke="#263238" stroke-width="0.173502" stroke-miterlimit="10" stroke-linecap="round"/>
<path d="M94.0391 173.936C94.0391 173.936 97.5317 173.584 98.9406 168.683" stroke="#263238" stroke-width="0.173502" stroke-miterlimit="10" stroke-linecap="round"/>
<path d="M80.7422 150.823C80.7422 150.823 81.7841 147.668 88.0797 147.668" stroke="#263238" stroke-width="0.173502" stroke-miterlimit="10" stroke-linecap="round"/>
<path d="M113.018 107.987C108.443 107.329 103.83 106.976 99.2087 106.93C99.2087 106.93 85.3848 98.9616 72.1038 107.458C58.8228 115.955 65.2065 130.836 65.2065 134.549C65.2065 138.262 60.9507 138.276 63.6069 143.06C66.2631 147.844 75.2443 145.203 75.2443 145.203C75.3392 143.398 75.816 141.635 76.6432 140.028C77.4705 138.422 78.6293 137.009 80.043 135.884C84.8271 132.171 88.6426 131.364 90.2276 132.436C90.2276 132.436 89.1709 140.404 90.7559 143.589C90.7559 143.589 96.0682 146.245 97.6678 146.245C99.2674 146.245 96.6259 148.49 101.924 150.486C102.889 150.833 103.921 150.951 104.94 150.831C105.958 150.711 106.935 150.357 107.794 149.796C108.571 146.568 110.274 141.71 113.444 142.84C118.096 144.498 122.337 155.945 116.041 159.849C123.613 161.228 132.785 147.83 133.328 135.62C133.871 123.41 120.884 109.366 113.018 107.987Z" fill="#263238"/>
<path d="M90.4609 127.197C90.4609 127.197 94.3645 125.098 99.1486 129.589C103.933 134.079 113.237 140.082 125.564 136.78" stroke="white" stroke-width="0.0867511" stroke-linecap="round" stroke-linejoin="round"/>
<path d="M89.9141 123.601C89.9141 123.601 92.5996 119.404 97.0902 119.404C101.581 119.404 112.073 125.7 120.453 125.7" stroke="white" stroke-width="0.0867511" stroke-linecap="round" stroke-linejoin="round"/>
<path d="M86.8626 131.687C86.8626 131.687 81.7703 125.406 76.9862 130.498C72.2021 135.591 75.2399 140.404 75.2399 140.404" stroke="white" stroke-width="0.0867511" stroke-linecap="round" stroke-linejoin="round"/>
<path d="M66.5078 135.884C69.426 133.252 71.24 129.614 71.5854 125.7C72.1871 119.11 81.1829 113.416 86.8622 118.817" stroke="white" stroke-width="0.0867511" stroke-linecap="round" stroke-linejoin="round"/>
<path d="M75.7812 111.92C75.7812 111.92 84.7771 103.232 92.2614 114.312" stroke="white" stroke-width="0.0867511" stroke-linecap="round" stroke-linejoin="round"/>
<path d="M149.001 539.068C149.001 539.068 154.534 547.668 153.917 553.201L153.316 558.733C153.316 558.733 133.02 564.295 128.72 564.295C124.42 564.295 101.659 562.138 101.659 562.138L100.676 558.234C100.607 557.946 100.64 557.643 100.768 557.375C100.896 557.108 101.112 556.893 101.38 556.767L121.676 547.301L128.074 540.301L149.001 539.068Z" fill="white" stroke="#263238" stroke-width="0.174189" stroke-miterlimit="10"/>
<path d="M131.8 559.965C137.303 560.391 147.752 557.03 153.813 554.888L153.387 558.733C153.387 558.733 133.018 564.294 128.718 564.294C124.419 564.294 101.658 562.137 101.658 562.137L100.953 559.349C104.593 559.364 124.521 559.408 131.8 559.965Z" fill="#407BFF" stroke="#263238" stroke-width="0.174189" stroke-miterlimit="10"/>
<path d="M121.702 547.301L92.1609 560.156C92.1609 560.156 89.6368 566.481 92.1609 567.744C94.685 569.006 149.717 567.744 149.717 567.744C149.717 567.744 153.518 557.75 147.515 551.043C141.513 544.337 121.702 547.301 121.702 547.301Z" fill="white" stroke="#263238" stroke-width="0.174189" stroke-miterlimit="10"/>
<path d="M149.719 567.744C149.719 567.744 94.6873 569.006 92.1632 567.744C90.9451 567.127 90.9011 565.352 91.1799 563.664H150.688C150.493 565.051 150.169 566.417 149.719 567.744Z" fill="#407BFF" stroke="#263238" stroke-width="0.174189" stroke-miterlimit="10"/>
<path d="M107.731 323.931C107.731 323.931 100.011 358.139 97.0911 379.536C94.1708 400.932 92.4538 443.798 93.0702 448.714C93.6865 453.63 124.416 536.002 124.416 536.002L127.483 543.339L148.997 539.039C148.997 539.039 139.165 507.693 135.481 490.479C131.798 473.266 123.741 444.987 123.741 440.07C123.741 435.154 142.819 341.263 144.184 335.099C145.548 328.936 151.741 319.47 151.741 319.47L110.548 318.634L107.731 323.931Z" fill="#091540" stroke="#263238" stroke-width="0.174189" stroke-miterlimit="10"/>
<path d="M107.732 323.931C107.732 323.931 103.212 355.175 105.076 376.894C106.939 398.613 110.946 444.854 110.946 451.737C110.946 458.62 122.055 499.725 122.686 512.639C123.669 531.291 122.29 540.521 122.29 540.521L121.629 547.287C121.629 547.287 134.587 549.136 137.42 549.943C140.691 550.786 144.067 551.151 147.443 551.029C147.443 551.029 152.153 530.293 152.153 512.624C152.153 494.955 148.235 458.59 146.283 443.856C144.332 429.123 150.48 372.286 153.973 361.676C157.466 351.066 165.097 328.598 159.961 317.122C154.824 305.646 107.732 323.931 107.732 323.931Z" fill="#091540" stroke="#263238" stroke-width="0.174189" stroke-miterlimit="10"/>
<path d="M165.665 311.369L165.196 325.34C165.196 325.34 156.831 326.998 145.56 328.95C136.256 330.564 112.894 328.524 105.028 327.761C104.311 327.698 103.648 327.354 103.184 326.804C102.719 326.254 102.491 325.544 102.548 324.826L103.311 312.206L165.665 311.369Z" fill="#263238"/>
<path d="M132.977 172.103C132.977 172.103 119.769 186.381 114.794 195.26C109.819 204.138 107.853 217.742 105.989 228.455C104.125 239.168 109.174 264.321 107.75 275.87L103.245 312.25C103.245 312.25 102.276 314.715 105.519 317.416C108.763 320.116 124.597 321.099 138.905 321.818C144.13 322.082 159.729 318.722 162.283 318.56C165.365 318.369 165.467 314.451 165.599 311.369C166.216 296.885 168.828 258.275 170.545 241.457C174.082 207.161 154.725 174.054 132.977 172.103Z" fill="white" stroke="#263238" stroke-width="0.174189" stroke-miterlimit="10"/>
<g style="mix-blend-mode:multiply">
<path d="M168.93 260.961C169.517 253.344 170.104 246.432 170.618 241.457C170.765 239.99 170.853 238.522 170.926 237.055L135.838 242.925L105.695 232.652C105.699 238.889 106.051 245.121 106.752 251.319L136.322 259.596L168.93 260.961Z" fill="#407BFF"/>
</g>
<g style="mix-blend-mode:multiply">
<path d="M131.667 173.54C129.671 175.756 125.709 180.261 121.938 185.045L144.214 207.689L151.552 204.754L131.667 173.54Z" fill="#407BFF"/>
</g>
<path d="M132.975 172.103C132.975 172.103 119.767 186.381 114.793 195.26C113.317 197.958 112.123 200.8 111.227 203.742L137.789 173.056C136.219 172.581 134.607 172.262 132.975 172.103Z" fill="#263238"/>
<g style="mix-blend-mode:multiply">
<path d="M107.016 222.673L135.838 232.153L170.838 228.132C170.289 219.413 168.352 210.838 165.1 202.73L136.879 214.044L111.653 202.612C109.59 209.169 108.04 215.876 107.016 222.673Z" fill="#407BFF"/>
</g>
<g style="mix-blend-mode:multiply">
<path d="M156.625 296.885C142.007 299.339 127.008 298.114 112.982 293.319L105.952 290.912L103.766 308.522L111.778 310.768C127.011 315.026 142.931 316.253 158.636 314.378L165.108 313.6C165.444 312.887 165.634 312.113 165.665 311.325C165.841 307.407 166.15 301.713 166.546 295.183L156.625 296.885Z" fill="#407BFF"/>
</g>
<g style="mix-blend-mode:multiply">
<path d="M160.551 272.906C145.932 275.37 130.929 274.139 116.907 269.325L107.955 266.258C108.177 269.455 108.133 272.665 107.823 275.855L106.781 284.323L115.704 286.818C130.93 291.081 146.846 292.313 162.547 290.442L166.949 289.914C167.316 284.044 167.742 277.792 168.197 271.614L160.551 272.906Z" fill="#407BFF"/>
</g>
<path d="M22.8673 210.847L51.2422 233.661L52.4652 232.14L24.0903 209.326L22.8673 210.847Z" fill="#263238"/>
<path d="M146.639 187.937C146.639 187.937 157.044 195.025 157.279 211.769C157.381 219.106 156.618 225.96 154.931 237.979C153.243 249.998 142.765 289.136 134.605 293.891C126.446 298.646 113.782 289.664 113.782 289.664L52.5276 249L37.7204 237.039L30.3828 223.186L32.6868 218.784L50.7519 232.637L41.0223 223.641L42.93 221.22L46.4521 223.67L56.7246 227.515L58.9699 242.19L62.1398 244.362L120.738 265.773C120.738 265.773 120.004 234.237 120.547 228.205C121.09 222.174 121.838 207.014 128.295 196.023" fill="white"/>
<g style="mix-blend-mode:multiply" opacity="0.5">
<path d="M120.326 241.942C120.326 252.83 120.693 265.774 120.693 265.774L62.1542 244.451L58.9844 242.279L56.7391 227.604L46.4665 223.759L42.9592 221.264L41.0514 223.686L50.7517 232.637L32.6866 218.784L30.5 223.113L37.8376 236.967L52.6447 249L56.3722 251.48L137.305 277.558L120.326 241.942Z" fill="white"/>
</g>
<path d="M146.639 187.937C146.639 187.937 157.044 195.025 157.279 211.769C157.381 219.106 156.618 225.96 154.931 237.979C153.243 249.998 142.765 289.136 134.605 293.891C126.446 298.646 113.782 289.664 113.782 289.664L52.5276 249L37.7204 237.039L30.3828 223.186L32.6868 218.784L50.7519 232.637L41.0223 223.641L42.93 221.22L46.4521 223.67L56.7246 227.515L58.9699 242.19L62.1398 244.362L120.738 265.773C120.738 265.773 120.004 234.237 120.547 228.205C121.09 222.174 121.838 207.014 128.295 196.023" stroke="#263238" stroke-width="0.174189" stroke-miterlimit="10"/>
<path d="M120.735 265.773L143.099 281.916L148.896 271.643C148.896 271.643 152.902 268.488 153.489 266.111C154.076 263.734 153.328 259.874 153.93 257.497C154.531 255.119 157.525 252.889 157.804 247.136C158.083 241.383 157.804 236.585 157.804 236.585C157.804 236.585 162.647 216.67 162.118 208.012C161.59 199.354 153.24 184.048 146.548 183.71C139.856 183.373 131.154 184.385 124.403 194.599C117.653 204.813 119.032 234.633 117.976 236.497C116.919 238.36 118.387 247.562 118.387 247.562C117.8 247.999 117.313 248.556 116.959 249.197C116.605 249.837 116.391 250.545 116.332 251.274C116.215 253.666 118.797 259.551 118.797 259.551L120.735 265.773Z" fill="white" stroke="#263238" stroke-width="0.174189" stroke-miterlimit="10"/>
<g style="mix-blend-mode:multiply">
<path d="M118.561 228.836C118.607 231.397 118.416 233.956 117.989 236.482C117.05 238.155 118.121 245.712 118.356 247.253C130.935 251.16 144.236 252.164 157.259 250.188C157.539 249.168 157.706 248.119 157.758 247.062C158.052 241.324 157.758 236.511 157.758 236.511C157.758 236.511 158.184 234.735 158.771 232.035C145.284 232.892 131.743 231.815 118.561 228.836Z" fill="#407BFF"/>
</g>
<g style="mix-blend-mode:multiply">
<path d="M123.494 196.229C121.396 200.44 120.222 206.765 119.547 213.178C132.869 218.263 147.233 220.011 161.386 218.271C161.95 214.877 162.201 211.438 162.134 207.998C161.88 205.279 161.237 202.61 160.226 200.073C147.869 200.362 135.525 199.07 123.494 196.229Z" fill="#407BFF"/>
</g>
<path d="M118.797 259.713L120.69 265.774L143.055 281.916L148.852 271.644C148.852 271.644 152.858 268.489 153.445 266.111C153.55 265.698 153.613 265.275 153.636 264.849C141.85 264.646 130.14 262.919 118.797 259.713Z" fill="#263238"/>
<path d="M134.986 549.751C134.986 549.751 135.485 537.043 137.921 518.464C140.357 499.885 134.502 473.499 133.519 469.097C132.535 464.694 134.017 454.921 133.034 451.487C132.051 448.053 127.296 433.407 130.099 416.413C132.902 399.419 135.177 354.499 135.177 354.499C135.177 354.499 128.118 348.761 126.049 341.291C123.98 333.822 125.565 331.474 125.565 331.474" stroke="#263238" stroke-width="0.174189" stroke-miterlimit="10"/>
<path d="M138.254 332.164L135.539 347.191" stroke="#263238" stroke-width="0.174189" stroke-miterlimit="10"/>
</svg>
