<svg width="16" height="16" viewBox="0 0 16 16" fill="none" xmlns="http://www.w3.org/2000/svg">
<mask id="mask0_2258_33922" style="mask-type:alpha" maskUnits="userSpaceOnUse" x="0" y="0" width="16" height="16">
<rect width="16" height="16" fill="#D9D9D9"/>
</mask>
<g mask="url(#mask0_2258_33922)">
<path d="M7.03333 10.6L11.3 6.33333L10.8333 5.86667L7.03333 9.66667L5.13333 7.76667L4.66667 8.23333L7.03333 10.6ZM8 14C7.16667 14 6.38622 13.8418 5.65867 13.5253C4.93067 13.2084 4.29733 12.7804 3.75867 12.2413C3.21956 11.7027 2.79156 11.0693 2.47467 10.3413C2.15822 9.61378 2 8.83333 2 8C2 7.16667 2.15822 6.386 2.47467 5.658C2.79156 4.93044 3.21956 4.29711 3.75867 3.758C4.29733 3.21933 4.93067 2.79156 5.65867 2.47467C6.38622 2.15822 7.16667 2 8 2C8.83333 2 9.614 2.15822 10.342 2.47467C11.0696 2.79156 11.7029 3.21933 12.242 3.758C12.7807 4.29711 13.2084 4.93044 13.5253 5.658C13.8418 6.386 14 7.16667 14 8C14 8.83333 13.8418 9.61378 13.5253 10.3413C13.2084 11.0693 12.7807 11.7027 12.242 12.2413C11.7029 12.7804 11.0696 13.2084 10.342 13.5253C9.614 13.8418 8.83333 14 8 14ZM8 13.3333C9.48889 13.3333 10.75 12.8167 11.7833 11.7833C12.8167 10.75 13.3333 9.48889 13.3333 8C13.3333 6.51111 12.8167 5.25 11.7833 4.21667C10.75 3.18333 9.48889 2.66667 8 2.66667C6.51111 2.66667 5.25 3.18333 4.21667 4.21667C3.18333 5.25 2.66667 6.51111 2.66667 8C2.66667 9.48889 3.18333 10.75 4.21667 11.7833C5.25 12.8167 6.51111 13.3333 8 13.3333Z" fill="#0DC00A"/>
</g>
</svg>
