<svg width="42" height="42" viewBox="0 0 42 42" fill="none" xmlns="http://www.w3.org/2000/svg">
<path d="M23.1875 12.7969V3.5H9.51562C8.60645 3.5 7.875 4.23145 7.875 5.14062V36.8594C7.875 37.7686 8.60645 38.5 9.51562 38.5H32.4844C33.3936 38.5 34.125 37.7686 34.125 36.8594V14.4375H24.8281C23.9258 14.4375 23.1875 13.6992 23.1875 12.7969ZM16.625 22.6406C16.625 22.9428 16.3803 23.1875 16.0781 23.1875H15.5312C14.927 23.1875 14.4375 23.677 14.4375 24.2812V26.4688C14.4375 27.073 14.927 27.5625 15.5312 27.5625H16.0781C16.3803 27.5625 16.625 27.8072 16.625 28.1094V29.2031C16.625 29.5053 16.3803 29.75 16.0781 29.75H15.5312C13.719 29.75 12.25 28.281 12.25 26.4688V24.2812C12.25 22.469 13.719 21 15.5312 21H16.0781C16.3803 21 16.625 21.2447 16.625 21.5469V22.6406ZM19.6513 29.75H18.8125C18.5104 29.75 18.2656 29.5053 18.2656 29.2031V28.1094C18.2656 27.8072 18.5104 27.5625 18.8125 27.5625H19.6513C20.058 27.5625 20.3629 27.3232 20.3629 27.11C20.3629 27.0211 20.3116 26.9281 20.218 26.8475L18.7216 25.5644C18.1426 25.0708 17.8104 24.3694 17.8104 23.6407C17.8104 22.1847 19.1105 21.0007 20.7095 21.0007H21.5469C21.849 21.0007 22.0938 21.2454 22.0938 21.5476V22.6413C22.0938 22.9435 21.849 23.1882 21.5469 23.1882H20.7081C20.3014 23.1882 19.9965 23.4274 19.9965 23.6407C19.9965 23.7296 20.0478 23.8226 20.1414 23.9032L21.6378 25.1863C22.2168 25.6799 22.549 26.3813 22.549 27.11C22.5497 28.5653 21.2502 29.75 19.6513 29.75V29.75ZM25.375 21.5469V22.9687C25.375 24.3544 25.7646 25.7147 26.4688 26.857C27.1729 25.7154 27.5625 24.3544 27.5625 22.9687V21.5469C27.5625 21.2447 27.8072 21 28.1094 21H29.2031C29.5053 21 29.75 21.2447 29.75 21.5469V22.9687C29.75 25.3941 28.8695 27.678 27.2699 29.4007C27.0635 29.6229 26.7729 29.75 26.4688 29.75C26.1646 29.75 25.874 29.6229 25.6676 29.4007C24.068 27.678 23.1875 25.3941 23.1875 22.9687V21.5469C23.1875 21.2447 23.4322 21 23.7344 21H24.8281C25.1303 21 25.375 21.2447 25.375 21.5469V21.5469ZM33.6465 10.6777L26.9541 3.97852C26.6465 3.6709 26.2295 3.5 25.792 3.5H25.375V12.25H34.125V11.833C34.125 11.4023 33.9541 10.9854 33.6465 10.6777Z" fill="#D1EAFE"/>
</svg>
