<svg width="146" height="48" viewBox="0 0 146 48" fill="none" xmlns="http://www.w3.org/2000/svg">
<path d="M4.69802 21.0487C4.50307 20.3214 4.50305 19.5555 4.69794 18.8281C4.89284 18.1007 5.27579 17.4374 5.8083 16.905L16.9045 5.80861C17.437 5.2761 18.1003 4.89315 18.8276 4.69825C19.555 4.50335 20.3209 4.50338 21.0483 4.69833L31.4316 7.48055C31.5396 6.05806 32.0349 4.69223 32.8637 3.53102L20.3577 0.18037C19.4601 -0.0601286 18.515 -0.0601237 17.6174 0.180386C16.7197 0.420897 15.9012 0.893441 15.2441 1.55052L1.5505 15.2442C0.893427 15.9014 0.420891 16.7199 0.180385 17.6175C-0.0601229 18.5152 -0.0601281 19.4603 0.180369 20.3579L3.65987 33.3437C4.79733 32.475 6.15156 31.9355 7.57474 31.7842L4.69802 21.0487Z" fill="#F2CF15"/>
<path d="M40.3287 15.8567L43.3015 26.951C43.4966 27.6785 43.4963 28.4443 43.3015 29.1715C43.1065 29.8991 42.7235 30.5623 42.191 31.0948L31.0948 42.1914C30.5623 42.7239 29.8991 43.1066 29.1716 43.3017C28.4443 43.4964 27.6783 43.4964 26.951 43.3017L16.2157 40.4249C16.0644 41.8482 15.525 43.2024 14.6562 44.3398L27.6418 47.8194C28.5394 48.0599 29.4846 48.0599 30.3821 47.8194C31.2799 47.5788 32.0983 47.1064 32.7555 46.4492L46.4491 32.7555C47.1063 32.0983 47.5786 31.2799 47.8192 30.3821C48.0598 29.4845 48.0598 28.5393 47.8192 27.6418L44.2085 14.1699C43.0951 15.0787 41.7525 15.6624 40.3287 15.8567Z" fill="#F2CF15"/>
<path d="M3.97464 35.1347C3.0952 36.0141 2.49629 37.1348 2.25365 38.3544C2.01101 39.5743 2.13553 40.8388 2.61148 41.9878C3.08741 43.1367 3.8934 44.1188 4.92749 44.8099C5.9616 45.5007 7.17736 45.8697 8.42108 45.8697C9.66477 45.8697 10.8806 45.5007 11.9146 44.8099C12.9488 44.1188 13.7547 43.1367 14.2307 41.9878C14.7066 40.8388 14.8311 39.5743 14.5885 38.3544C14.3459 37.1348 13.747 36.0141 12.8675 35.1347C11.6873 33.9573 10.0882 33.2959 8.42108 33.2959C6.75392 33.2959 5.15483 33.9573 3.97464 35.1347Z" fill="#74C0FC"/>
<path d="M34.8105 3.64843C33.9312 4.52786 33.332 5.64833 33.0896 6.86816C32.8469 8.08796 32.9714 9.35235 33.4474 10.5014C33.9234 11.6504 34.7293 12.6326 35.7632 13.3235C36.7975 14.0145 38.0132 14.3833 39.2568 14.3833C40.5007 14.3833 41.7164 14.0145 42.7506 13.3235C43.7846 12.6326 44.5905 11.6504 45.0665 10.5014C45.5425 9.35235 45.6669 8.08796 45.4242 6.86816C45.1818 5.64833 44.5827 4.52786 43.7034 3.64843C42.5233 2.47089 40.924 1.80957 39.2568 1.80957C37.5898 1.80957 35.9906 2.47089 34.8105 3.64843Z" fill="#74C0FC"/>
<path d="M27.6872 40.5927C27.4346 40.5927 27.1834 40.5596 26.9394 40.4943L17.1125 37.861C16.7849 36.1112 15.936 34.5012 14.6772 33.2425C13.4184 31.9838 11.8085 31.1347 10.0587 30.8071L7.42575 20.9809C7.29522 20.4908 7.29558 19.975 7.42687 19.4851C7.55815 18.9951 7.81572 18.5483 8.17383 18.1891L18.26 8.10249C18.6188 7.74368 19.0657 7.48566 19.5558 7.35432C20.046 7.22301 20.562 7.22304 21.0521 7.3544L30.6035 9.91374C30.9824 11.6527 31.8776 13.2367 33.1719 14.4582C34.4663 15.6798 36.0994 16.4819 37.8573 16.7595L40.5653 26.8683C40.6957 27.3586 40.6954 27.8744 40.5639 28.3642C40.4327 28.8542 40.1752 29.301 39.8169 29.6604L29.7307 39.7467C29.463 40.0157 29.1443 40.2292 28.7936 40.3742C28.4428 40.5195 28.0669 40.5937 27.6872 40.5927Z" fill="#091540"/>
<path d="M63.328 11.128L64.288 11.096C67.4667 11.096 70.0267 11.64 71.968 12.728C73.9093 13.816 74.88 15.3627 74.88 17.368C74.88 18.8613 74.5067 20.056 73.76 20.952C73.12 21.7413 72.544 22.264 72.032 22.52L71.712 22.712C72.0747 22.776 72.5653 22.9893 73.184 23.352C73.824 23.6933 74.3467 24.0773 74.752 24.504C75.1573 24.9093 75.5307 25.5067 75.872 26.296C76.2133 27.0853 76.384 27.96 76.384 28.92C76.384 31.4587 75.3173 33.3893 73.184 34.712C71.0507 36.0347 67.968 36.696 63.936 36.696C61.0347 36.696 58.6773 35.992 56.864 34.584C55.072 33.176 54.176 31.576 54.176 29.784C54.176 29.4853 54.272 29.24 54.464 29.048C54.6347 28.856 54.848 28.76 55.104 28.76C55.3387 28.76 55.52 28.824 55.648 28.952C55.648 30.2747 56.0853 31.4267 56.96 32.408C57.8347 33.3893 58.9973 34.1147 60.448 34.584V13.656C59.5093 14.0827 58.752 14.5947 58.176 15.192C57.6 15.768 57.312 16.3227 57.312 16.856C57.312 17.3893 57.376 17.848 57.504 18.232C57.376 18.488 57.088 18.616 56.64 18.616C56.192 18.616 55.808 18.456 55.488 18.136C55.168 17.816 55.008 17.3893 55.008 16.856C55.008 15.8533 55.5093 14.8613 56.512 13.88C57.5147 12.8987 58.8267 12.1627 60.448 11.672V10.456C60.448 9.816 60.608 9.336 60.928 9.016C61.248 8.67466 61.6427 8.504 62.112 8.504C62.5813 8.504 62.9867 8.65333 63.328 8.952V11.128ZM63.936 35.096C67.1147 35.096 69.4933 34.5947 71.072 33.592C72.6507 32.5893 73.44 31.032 73.44 28.92C73.44 25.2933 71.008 23.48 66.144 23.48C65.9307 23.48 65.7493 23.384 65.6 23.192C65.4507 23 65.376 22.744 65.376 22.424C65.376 22.0187 65.632 21.816 66.144 21.816C68.5333 21.816 70.1333 21.3253 70.944 20.344C71.6053 19.5547 71.936 18.5627 71.936 17.368C71.936 15.8533 71.232 14.7013 69.824 13.912C68.4373 13.1013 66.6453 12.6853 64.448 12.664C64.0427 12.664 63.712 12.696 63.456 12.76V35.096H63.936ZM77.9438 22.488C77.9438 21.848 78.1038 21.368 78.4238 21.048C78.7438 20.7067 79.1491 20.536 79.6398 20.536C80.1304 20.536 80.5251 20.6853 80.8238 20.984V30.168C80.8238 32.7067 81.4638 33.976 82.7438 33.976C83.8958 33.976 84.8344 33.368 85.5598 32.152C86.3064 30.936 86.6798 28.888 86.6798 26.008V22.488C86.6798 21.848 86.8398 21.368 87.1598 21.048C87.4798 20.7067 87.8851 20.536 88.3758 20.536C88.8664 20.536 89.2611 20.6853 89.5598 20.984V37.24C89.8158 37.2187 90.2211 37.208 90.7758 37.208C91.3304 37.208 91.6078 37.4427 91.6078 37.912L91.4158 38.392C90.6051 38.392 89.9864 38.4027 89.5598 38.424V40.024C89.5598 42.2213 89.0584 43.9493 88.0558 45.208C87.0744 46.488 85.7518 47.128 84.0878 47.128C83.1064 47.128 82.2318 46.8293 81.4638 46.232C80.7171 45.656 80.3438 44.7387 80.3438 43.48C80.3438 41.8587 80.9198 40.568 82.0718 39.608C83.2238 38.648 84.7598 37.976 86.6798 37.592V32.6C85.7838 34.264 84.3438 35.096 82.3598 35.096C80.9944 35.096 79.9171 34.6587 79.1278 33.784C78.3384 32.9093 77.9438 31.6507 77.9438 30.008V22.488ZM81.9758 43.576C81.9758 44.3227 82.1784 44.888 82.5838 45.272C82.9891 45.6773 83.4798 45.88 84.0558 45.88C84.6318 45.88 85.1011 45.7093 85.4638 45.368C86.2744 44.6427 86.6798 42.456 86.6798 38.808C83.5438 39.512 81.9758 41.1013 81.9758 43.576ZM91.1375 17.752C91.1375 17.112 91.2975 16.632 91.6175 16.312C91.9375 15.9707 92.3428 15.8 92.8335 15.8C93.3242 15.8 93.7188 15.9493 94.0175 16.248V20.984H98.4015C98.8495 20.984 99.1375 21.0693 99.2655 21.24C99.4148 21.4107 99.4895 21.6987 99.4895 22.104H94.0175V30.168C94.0175 31.3413 94.3482 32.248 95.0095 32.888C95.6922 33.528 96.4708 33.848 97.3455 33.848C98.6682 33.848 99.6388 33.3573 100.258 32.376C100.876 31.3947 101.186 29.8053 101.186 27.608C101.228 27.48 101.388 27.416 101.666 27.416C102.05 27.416 102.242 27.9813 102.242 29.112C102.242 30.84 101.804 32.2693 100.93 33.4C100.076 34.5307 98.7535 35.096 96.9615 35.096C95.1695 35.096 93.7508 34.6267 92.7055 33.688C91.6602 32.7493 91.1375 31.352 91.1375 29.496V17.752ZM104.782 28.568C103.929 28.2693 103.076 27.96 102.222 27.64C101.39 27.2987 100.686 26.8187 100.11 26.2C99.5345 25.5813 99.2465 24.792 99.2465 23.832C99.2465 22.8507 99.6945 22.0613 100.59 21.464C101.486 20.8453 102.788 20.536 104.494 20.536C106.222 20.536 107.566 20.8347 108.526 21.432C109.508 22.0293 109.998 22.7227 109.998 23.512C109.998 23.896 109.849 24.2053 109.55 24.44C109.273 24.6747 108.996 24.792 108.719 24.792C108.185 24.792 107.833 24.664 107.662 24.408C107.79 24.2587 107.854 23.9707 107.854 23.544C107.854 23.096 107.524 22.6907 106.862 22.328C106.201 21.9653 105.465 21.784 104.654 21.784C103.844 21.784 103.172 21.9333 102.638 22.232C102.105 22.5307 101.838 22.9893 101.838 23.608C101.838 24.2053 102.137 24.728 102.734 25.176C103.353 25.624 104.089 25.9973 104.942 26.296C105.817 26.5947 106.681 26.9147 107.535 27.256C108.409 27.5973 109.145 28.088 109.742 28.728C110.361 29.3467 110.67 30.1147 110.67 31.032C110.67 32.3973 110.073 33.4213 108.878 34.104C107.705 34.7653 106.148 35.096 104.206 35.096C102.286 35.096 100.718 34.5413 99.5025 33.432C98.3078 32.3013 97.7105 30.904 97.7105 29.24C97.7105 28.6427 97.8278 28.1733 98.0625 27.832C98.2972 27.4907 98.5638 27.32 98.8625 27.32C99.4172 27.32 99.7372 27.416 99.8225 27.608L99.8865 27.704C99.7585 28.024 99.6945 28.4187 99.6945 28.888C99.6945 30.3173 100.11 31.5013 100.942 32.44C101.774 33.3787 102.926 33.848 104.398 33.848C106.66 33.848 107.801 33.048 107.822 31.448C107.822 30.232 106.809 29.272 104.782 28.568ZM117.862 22.104H113.03V46.712C112.817 47.0107 112.443 47.16 111.91 47.16C111.377 47.16 110.95 46.9893 110.63 46.648C110.31 46.328 110.15 45.848 110.15 45.208V17.112C110.15 14.4027 110.438 12.408 111.014 11.128C111.59 9.848 112.614 9.208 114.086 9.208C116.198 9.208 117.254 10.6373 117.254 13.496C117.254 16.7813 116.145 19.2773 113.926 20.984H116.774C117.222 20.984 117.51 21.0693 117.638 21.24C117.787 21.4107 117.862 21.6987 117.862 22.104ZM115.878 13.528C115.878 11.48 115.366 10.456 114.342 10.456C114.065 10.456 113.851 10.552 113.702 10.744C113.553 10.9147 113.435 11.3733 113.35 12.12C113.179 13.4 113.073 16.1307 113.03 20.312C114.929 18.9253 115.878 16.664 115.878 13.528ZM116.719 22.488C116.719 21.848 116.879 21.368 117.199 21.048C117.519 20.7067 117.924 20.536 118.415 20.536C118.905 20.536 119.3 20.6853 119.599 20.984V30.168C119.599 32.7067 120.239 33.976 121.519 33.976C122.671 33.976 123.609 33.368 124.335 32.152C125.081 30.936 125.455 28.888 125.455 26.008V22.488C125.455 21.848 125.615 21.368 125.935 21.048C126.255 20.7067 126.66 20.536 127.151 20.536C127.641 20.536 128.036 20.6853 128.335 20.984V37.24C128.591 37.2187 128.996 37.208 129.551 37.208C130.105 37.208 130.383 37.4427 130.383 37.912L130.191 38.392C129.38 38.392 128.761 38.4027 128.335 38.424V40.024C128.335 42.2213 127.833 43.9493 126.831 45.208C125.849 46.488 124.527 47.128 122.863 47.128C121.881 47.128 121.007 46.8293 120.239 46.232C119.492 45.656 119.119 44.7387 119.119 43.48C119.119 41.8587 119.695 40.568 120.847 39.608C121.999 38.648 123.535 37.976 125.455 37.592V32.6C124.559 34.264 123.119 35.096 121.135 35.096C119.769 35.096 118.692 34.6587 117.903 33.784C117.113 32.9093 116.719 31.6507 116.719 30.008V22.488ZM120.751 43.576C120.751 44.3227 120.953 44.888 121.359 45.272C121.764 45.6773 122.255 45.88 122.831 45.88C123.407 45.88 123.876 45.7093 124.239 45.368C125.049 44.6427 125.455 42.456 125.455 38.808C122.319 39.512 120.751 41.1013 120.751 43.576Z" fill="#FFC700"/>
<circle cx="141" cy="35" r="5" fill="white"/>
</svg>
