<svg width="159" height="44" viewBox="0 0 159 44" fill="none" xmlns="http://www.w3.org/2000/svg">
<path d="M0 1.04762C0 0.469035 0.465624 0 1.04 0H8.32V8.38095H0V1.04762Z" fill="#FFC700"/>
<path d="M0 8.90476H8.32V17.2857H0V8.90476Z" fill="#FFC700"/>
<path d="M8.84 0H17.16V8.38095H8.84V0Z" fill="#FFC700"/>
<path d="M17.68 8.90476H26V17.2857H17.68V8.90476Z" fill="#FFC700"/>
<path d="M8.84 26.7143H17.16V35.0952H8.84V26.7143Z" fill="black"/>
<path d="M8.84 8.90476H17.16V17.2857H8.84V8.90476Z" fill="black"/>
<path d="M8.84 17.8095H24.96C25.5344 17.8095 26 18.2786 26 18.8571V25.1429C26 25.7214 25.5344 26.1905 24.96 26.1905H8.84V17.8095Z" fill="#FFC700"/>
<path d="M17.68 35.619H26V42.9524C26 43.531 25.5344 44 24.96 44H17.68V35.619Z" fill="#FFC700"/>
<path d="M17.68 26.7143H26V35.0952H17.68V26.7143Z" fill="#FFC700"/>
<path d="M17.68 0H24.96C25.5344 0 26 0.469035 26 1.04762V8.38095H17.68V0Z" fill="#FFC700"/>
<path d="M0 17.8095H8.32V26.1905H0V17.8095Z" fill="#FFC700"/>
<path d="M0 26.7143H8.32V35.0952H0V26.7143Z" fill="#FFC700"/>
<path d="M0 35.619H8.32V44H1.04C0.465624 44 0 43.531 0 42.9524V35.619Z" fill="#FFC700"/>
<path d="M8.84 35.619H17.16V44H8.84V35.619Z" fill="#FFC700"/>
<path d="M49.6 18.184C50.056 17.488 50.32 16.648 50.32 15.736C50.32 13.24 48.28 11.2 45.784 11.2H35.2V28H46.648C49.6 28 52 25.6 52 22.648C52 20.776 51.04 19.144 49.6 18.184ZM38.2 14.2H45.808C46.648 14.2 47.344 14.896 47.344 15.736C47.344 16.576 46.648 17.272 45.808 17.272H38.2V14.2ZM46.648 25H38.2V20.272H46.648C47.944 20.272 49 21.328 49 22.624C49 23.92 47.944 24.976 46.648 24.976V25ZM68.1627 11.176L63.5547 17.152L58.9467 11.176H55.1547L61.6587 19.6L62.0667 20.104V27.976H65.0667V20.056L65.4267 19.6L71.9307 11.176H68.1627ZM55.1307 28.048L55.1787 28H55.1307V28.048ZM71.9307 28.048V28H71.9067L71.9307 28.048ZM76.75 11.224V14.224H83.638V28.024H86.638V14.224H93.526V11.224H76.75ZM114.233 15.832V15.736C114.233 13.24 112.193 11.2 109.697 11.2H102.881C100.385 11.2 98.3693 13.24 98.3693 15.736V15.832C98.3693 16.792 98.6573 17.68 99.1613 18.4C99.3293 18.664 99.5213 18.904 99.7373 19.12C100.553 19.912 101.657 20.392 102.881 20.392H108.929C110.201 20.392 111.257 21.424 111.257 22.696C111.257 23.968 110.201 25 108.929 25H103.673C102.401 25 101.369 23.968 101.369 22.696H98.3693C98.3693 25.624 100.745 28 103.673 28H108.929C111.857 28 114.233 25.624 114.233 22.696C114.233 21.424 113.777 20.248 113.033 19.336C112.961 19.264 112.913 19.192 112.841 19.12C111.881 18.064 110.489 17.392 108.929 17.392H102.881C102.041 17.392 101.345 16.696 101.345 15.856V15.76C101.345 14.92 102.041 14.224 102.881 14.224H109.697C110.537 14.224 111.233 14.92 111.233 15.76V15.856L114.233 15.832ZM123.563 11.2C121.067 11.2 119.051 13.24 119.051 15.736V27.976H122.027V20.272H132.851V17.272H122.051V15.712C122.051 14.872 122.747 14.176 123.587 14.176H135.851V11.176L123.563 11.2ZM153.63 11.176L149.022 17.152L144.414 11.176H140.622L147.126 19.6L147.534 20.104V27.976H150.534V20.056L150.894 19.6L157.398 11.176H153.63ZM140.598 28.048L140.646 28H140.598V28.048ZM157.398 28.048V28H157.374L157.398 28.048Z" fill="white"/>
</svg>