<svg width="20" height="16" viewBox="0 0 20 16" fill="none" xmlns="http://www.w3.org/2000/svg">
<path d="M2.3 15.5C1.8 15.5 1.375 15.325 1.025 14.975C0.675 14.625 0.5 14.2 0.5 13.7V2.7C0.5 2.18333 0.675 1.75 1.025 1.4C1.375 1.05 1.8 0.875 2.3 0.875H8.375L10 2.5H17.7C18.2 2.5 18.625 2.675 18.975 3.025C19.325 3.375 19.5 3.8 19.5 4.3V13.7C19.5 14.2 19.325 14.625 18.975 14.975C18.625 15.325 18.2 15.5 17.7 15.5H2.3ZM14 14H17.7C17.7833 14 17.8543 13.971 17.913 13.913C17.971 13.8543 18 13.7833 18 13.7V4.3C18 4.21667 17.971 4.14567 17.913 4.087C17.8543 4.029 17.7833 4 17.7 4H14V6H16V8H14V10H16V12H14V14ZM2.3 14H12V12H14V10H12V8H14V6H12V4H9.375L7.775 2.375H2.3C2.21667 2.375 2.146 2.40433 2.088 2.463C2.02933 2.521 2 2.6 2 2.7V13.7C2 13.7833 2.02933 13.8543 2.088 13.913C2.146 13.971 2.21667 14 2.3 14Z" fill="#1C1B1F"/>
</svg>
