<svg width="42" height="42" viewBox="0 0 42 42" fill="none" xmlns="http://www.w3.org/2000/svg">
<path d="M35.5783 19.0546H32.6676V16.1378C32.6676 14.5275 31.3612 13.221 29.7509 13.221H20.0283L16.1393 9.33203H6.41676C4.80647 9.33203 3.5 10.6385 3.5 12.2488V29.7494C3.5 31.3597 4.80647 32.6661 6.41676 32.6661H30.7231C31.7257 32.6661 32.6615 32.1496 33.1963 31.2928L38.0515 23.5148C39.2668 21.5764 37.8692 19.0546 35.5783 19.0546V19.0546ZM6.41676 12.6134C6.41676 12.4129 6.58083 12.2488 6.78136 12.2488H14.9301L18.8191 16.1378H29.3863C29.5868 16.1378 29.7509 16.3019 29.7509 16.5024V19.0546H12.7364C11.7155 19.0546 10.7676 19.5893 10.2389 20.4643L6.41676 26.7961V12.6134ZM30.7231 29.7494H7.87514L12.5663 21.9713H35.5844L30.7231 29.7494Z" fill="#FFD02B"/>
</svg>
