<svg width="591" height="591" viewBox="0 0 591 591" fill="none" xmlns="http://www.w3.org/2000/svg">
<path d="M64.2428 237.613H56.9475C49.1189 237.613 41.6109 240.791 36.0752 246.446C30.5396 252.102 27.4297 259.772 27.4297 267.771V433.257C27.4297 441.255 30.5396 448.926 36.0752 454.581C41.6109 460.237 49.1189 463.414 56.9475 463.414H157.036C164.865 463.414 172.373 460.237 177.908 454.581C183.444 448.926 186.554 441.255 186.554 433.257" stroke="#263238" stroke-width="0.552835" stroke-linecap="round" stroke-linejoin="round" stroke-dasharray="2.21 2.21"/>
<path d="M178.398 81.4645V48.777C178.398 43.886 180.297 39.1947 183.679 35.7324C187.06 32.2701 191.648 30.3195 196.435 30.3086H326.593C331.387 30.3086 335.985 32.2544 339.375 35.7179C342.765 39.1813 344.67 43.8789 344.67 48.777" stroke="#263238" stroke-width="0.552835" stroke-linecap="round" stroke-linejoin="round" stroke-dasharray="2.21 2.21"/>
<path d="M295.505 591.001C437.876 591.001 553.291 574.525 553.291 554.202C553.291 533.878 437.876 517.402 295.505 517.402C153.133 517.402 37.7188 533.878 37.7188 554.202C37.7188 574.525 153.133 591.001 295.505 591.001Z" fill="#F5F5F5"/>
<path opacity="0.5" d="M295.505 591.001C437.876 591.001 553.291 574.525 553.291 554.202C553.291 533.878 437.876 517.402 295.505 517.402C153.133 517.402 37.7188 533.878 37.7188 554.202C37.7188 574.525 153.133 591.001 295.505 591.001Z" fill="white"/>
<path d="M538.506 125.318V372.928C538.506 381.023 535.36 388.786 529.759 394.511C524.158 400.235 516.561 403.453 508.638 403.457H82.3599C74.4373 403.453 66.8403 400.235 61.2394 394.511C55.6385 388.786 52.4922 381.023 52.4922 372.928V125.318C52.4922 124.589 52.4922 123.942 52.5864 123.172C53.1111 115.47 56.4757 108.257 62.0013 102.989C67.527 97.7218 74.8024 94.7913 82.3599 94.7891H508.638C516.204 94.7923 523.487 97.7305 529.014 103.01C534.541 108.289 537.9 115.515 538.412 123.227C538.479 123.887 538.506 124.602 538.506 125.318Z" fill="white" stroke="#263238" stroke-width="0.552835" stroke-linecap="round" stroke-linejoin="round"/>
<path d="M67.0312 134.613H525.492V363.343C525.492 370.929 522.543 378.205 517.292 383.569C512.042 388.933 504.921 391.947 497.496 391.947H95.0415C87.6163 391.947 80.4952 388.933 75.2448 383.569C69.9944 378.205 67.0447 370.929 67.0447 363.343V134.613H67.0312Z" fill="#D3D3D3"/>
<path d="M538.411 123.227H52.5859C53.1107 115.524 56.4752 108.312 62.0009 103.044C67.5265 97.7765 74.8019 94.846 82.3595 94.8438H508.638C516.195 94.846 523.471 97.7765 528.996 103.044C534.522 108.312 537.886 115.524 538.411 123.227Z" fill="#091540" stroke="#263238" stroke-width="0.552835" stroke-miterlimit="10"/>
<path d="M112.283 108.982C112.283 110.051 111.972 111.096 111.391 111.985C110.81 112.874 109.984 113.566 109.017 113.975C108.051 114.385 106.987 114.492 105.961 114.283C104.935 114.074 103.992 113.56 103.252 112.804C102.513 112.048 102.009 111.085 101.805 110.037C101.601 108.988 101.705 107.902 102.106 106.914C102.506 105.927 103.184 105.083 104.054 104.489C104.924 103.895 105.947 103.578 106.993 103.578C108.396 103.578 109.741 104.148 110.733 105.161C111.725 106.175 112.283 107.549 112.283 108.982Z" fill="#263238"/>
<path d="M134.65 108.982C134.65 110.051 134.34 111.096 133.758 111.985C133.177 112.874 132.351 113.566 131.384 113.975C130.418 114.385 129.354 114.492 128.328 114.283C127.302 114.074 126.359 113.56 125.62 112.804C124.88 112.048 124.376 111.085 124.172 110.037C123.968 108.988 124.073 107.902 124.473 106.914C124.873 105.927 125.551 105.083 126.421 104.489C127.291 103.895 128.314 103.578 129.36 103.578C130.763 103.578 132.108 104.148 133.101 105.161C134.093 106.175 134.65 107.549 134.65 108.982Z" fill="#263238"/>
<path d="M151.735 114.387C154.657 114.387 157.025 111.967 157.025 108.982C157.025 105.998 154.657 103.578 151.735 103.578C148.814 103.578 146.445 105.998 146.445 108.982C146.445 111.967 148.814 114.387 151.735 114.387Z" fill="#263238"/>
<path d="M525.491 134.613V363.343C525.491 370.929 522.541 378.205 517.291 383.569C512.041 388.933 504.919 391.947 497.494 391.947H95.0402C88.5597 391.945 82.2803 389.647 77.273 385.444C72.2656 381.241 68.8405 375.394 67.5818 368.899V368.816C67.2396 367.004 67.0683 365.162 67.0703 363.316V134.613H525.491Z" stroke="#263238" stroke-width="0.552835" stroke-miterlimit="10"/>
<path d="M525.061 169.984C523.098 168.858 521.01 167.976 518.842 167.358L516.325 155.875H505.638L503.148 167.358C500.967 167.965 498.869 168.847 496.902 169.984L487.251 163.672L479.7 171.359L485.771 181.219C484.66 183.23 483.796 185.373 483.2 187.6L471.961 190.144V201.063L483.2 203.634C483.789 205.872 484.653 208.026 485.771 210.042L479.593 219.971L487.157 227.686L496.862 221.374C498.825 222.512 500.918 223.399 503.094 224.014L505.597 235.483H516.244L518.748 224.014C520.917 223.393 523.005 222.507 524.966 221.374L525.464 221.704V169.709L525.061 169.984ZM511.008 209.864C508.276 209.864 505.606 209.036 503.335 207.485C501.063 205.934 499.293 203.73 498.248 201.151C497.204 198.572 496.931 195.734 497.465 192.997C497.999 190.26 499.315 187.746 501.248 185.773C503.181 183.8 505.643 182.458 508.322 181.915C511.002 181.372 513.779 181.653 516.303 182.723C518.826 183.793 520.982 185.604 522.498 187.926C524.013 190.248 524.821 192.977 524.818 195.768C524.818 197.621 524.461 199.455 523.767 201.166C523.073 202.877 522.055 204.431 520.773 205.74C519.49 207.049 517.968 208.087 516.292 208.795C514.617 209.502 512.821 209.866 511.008 209.864Z" fill="#AAAAAA"/>
<path d="M332.45 181.052V158.032L308.76 152.655C307.481 147.979 305.675 143.47 303.376 139.22L306.243 134.613H194.39L197.15 139.096C194.823 143.327 193.014 147.835 191.766 152.518L168.062 157.908V180.984L191.766 186.388C193.014 191.106 194.822 195.65 197.15 199.92L184.134 220.836L200.084 237.118L220.543 223.806C224.694 226.191 229.108 228.061 233.693 229.375L238.97 253.509H261.448L266.751 229.32C271.321 228 275.722 226.13 279.861 223.751L300.334 237.063L316.271 220.781L303.336 199.865C305.628 195.621 307.435 191.122 308.72 186.457L332.45 181.052ZM250.343 199.287C244.585 199.287 238.956 197.542 234.169 194.274C229.381 191.006 225.649 186.36 223.446 180.925C221.242 175.49 220.666 169.509 221.789 163.739C222.912 157.969 225.685 152.67 229.757 148.51C233.828 144.35 239.016 141.517 244.664 140.369C250.311 139.221 256.165 139.811 261.485 142.062C266.805 144.313 271.352 148.126 274.551 153.017C277.75 157.909 279.457 163.659 279.457 169.542C279.459 173.449 278.707 177.318 277.245 180.927C275.782 184.537 273.638 187.817 270.934 190.579C268.23 193.341 265.02 195.532 261.487 197.026C257.954 198.521 254.167 199.289 250.343 199.287Z" fill="#AAAAAA"/>
<path d="M182.949 339.126L183.904 320.85L165.37 315.515C164.51 311.759 163.236 308.115 161.574 304.651L172.773 288.589L160.767 274.989L143.996 284.615C140.79 282.554 137.362 280.879 133.779 279.623L130.576 260.206L112.701 259.367L107.532 278.358C103.85 279.202 100.28 280.495 96.899 282.209L81.1912 270.781L67.8523 283.034L77.3551 300.182C75.3178 303.443 73.6728 306.942 72.4556 310.606L67.0716 311.513V336.266L71.0019 337.394C71.8173 341.162 73.0784 344.814 74.7573 348.271L67.0312 359.341L67.5427 368.816V368.899L75.5245 377.933L92.3226 368.238C95.5227 370.341 98.9626 372.036 102.566 373.285L105.715 391.932L105.863 392.716L123.738 393.679L124.209 391.932L128.907 374.702C132.606 373.855 136.194 372.563 139.594 370.851L155.275 382.265L168.6 370.026L159.178 352.864C161.197 349.607 162.819 346.112 164.011 342.454L182.949 339.126ZM135.475 310.592C132.413 307.112 128.41 304.639 123.972 303.484C119.534 302.33 114.86 302.546 110.543 304.105C106.225 305.665 102.457 308.498 99.7149 312.245C96.9731 315.993 95.381 320.488 95.1399 325.16C94.8988 329.833 96.0196 334.473 98.3604 338.495C100.701 342.516 104.157 345.738 108.29 347.753C112.424 349.768 117.049 350.485 121.582 349.813C126.114 349.142 130.349 347.112 133.752 343.981C138.296 339.787 141.028 333.925 141.351 327.677C141.674 321.43 139.561 315.306 135.475 310.647V310.592Z" fill="#AAAAAA"/>
<path d="M325.919 311.887C326.61 309.057 326.976 306.154 327.009 303.238L339.863 296.362L336.31 283.036L321.8 283.724C320.33 281.234 318.582 278.926 316.591 276.848L320.885 262.67L309.174 255.795L299.375 266.713C296.61 266.031 293.78 265.662 290.936 265.613L284.206 252.48L271.177 256.097L271.863 270.935C269.425 272.436 267.167 274.222 265.133 276.257L251.242 271.87L244.512 283.82L255.28 293.818C254.584 296.637 254.227 299.532 254.217 302.44L241.336 309.316L244.889 322.627L259.426 321.926C260.867 324.429 262.608 326.739 264.608 328.802L260.288 342.911L272.011 349.787L281.756 338.95C284.525 339.662 287.368 340.027 290.223 340.037L296.953 353.183L309.982 349.567L309.403 336.888L309.309 334.715C311.781 333.228 314.068 331.441 316.12 329.393L329.997 333.794L335.731 323.562L336.7 321.83L325.919 311.887ZM295.136 319.973C291.794 320.915 288.255 320.821 284.965 319.704C281.676 318.588 278.786 316.498 276.661 313.701C274.535 310.903 273.271 307.524 273.029 303.992C272.786 300.459 273.575 296.933 275.297 293.86C277.019 290.786 279.595 288.304 282.699 286.729C285.803 285.154 289.295 284.556 292.733 285.011C296.17 285.466 299.397 286.954 302.006 289.285C304.614 291.617 306.486 294.688 307.384 298.108C308.581 302.667 307.965 307.523 305.67 311.62C303.376 315.716 299.589 318.719 295.136 319.973Z" fill="#AAAAAA"/>
<path d="M474.945 335.317L477.906 317.028L459.789 309.588C459.378 305.69 458.505 301.858 457.191 298.174L470.234 283.336L459.681 268.209L441.699 276.007C438.713 273.562 435.45 271.493 431.98 269.846L430.931 249.92L413.029 246.895L405.693 265.322C401.894 265.778 398.16 266.677 394.562 268.003L379.998 254.678L365.259 265.459L372.905 283.818C370.8 286.501 368.973 289.4 367.453 292.467C367.251 292.894 367.036 293.32 366.848 293.746L347.357 294.846L344.383 313.108L347.317 314.319L362.5 320.576C362.914 324.455 363.787 328.269 365.098 331.934L352.028 346.869L362.594 361.995L380.563 354.157C383.539 356.624 386.798 358.711 390.268 360.373L391.277 380.202L409.166 383.228L416.488 364.938C420.295 364.513 424.037 363.617 427.633 362.27L442.17 375.596L456.976 364.801L449.33 346.428C451.766 343.375 453.823 340.027 455.455 336.459L474.945 335.317ZM424.739 334.492C420.973 337.253 416.49 338.81 411.858 338.968C407.225 339.125 402.651 337.876 398.713 335.377C394.776 332.878 391.652 329.243 389.737 324.93C387.823 320.618 387.203 315.822 387.956 311.149C388.709 306.477 390.801 302.137 393.969 298.68C397.136 295.222 401.236 292.802 405.749 291.725C410.263 290.648 414.988 290.963 419.327 292.63C423.665 294.297 427.422 297.241 430.123 301.09C433.741 306.252 435.203 312.672 434.188 318.936C433.174 325.2 429.765 330.796 424.712 334.492H424.739Z" fill="#AAAAAA"/>
<path d="M232.348 172.816H91.5836C81.8379 172.816 73.9375 180.888 73.9375 190.845V389.954C73.9375 399.911 81.8379 407.982 91.5836 407.982H232.348C242.094 407.982 249.994 399.911 249.994 389.954V190.845C249.994 180.888 242.094 172.816 232.348 172.816Z" fill="#091540" fill-opacity="0.5" stroke="#263238" stroke-width="0.552835" stroke-miterlimit="10"/>
<path d="M266.371 235.716V434.825C266.373 437.194 265.918 439.539 265.032 441.728C264.146 443.917 262.847 445.906 261.208 447.582C259.569 449.257 257.623 450.586 255.481 451.493C253.34 452.4 251.044 452.867 248.725 452.867H107.961C105.643 452.865 103.349 452.397 101.209 451.489C99.0687 450.582 97.1244 449.252 95.487 447.577C93.8497 445.902 92.5514 443.913 91.6662 441.725C90.781 439.537 90.3264 437.192 90.3281 434.825V235.716C90.3281 230.937 92.1854 226.353 95.4918 222.973C98.7982 219.592 103.283 217.691 107.961 217.688H248.725C253.405 217.688 257.894 219.587 261.203 222.968C264.512 226.349 266.371 230.934 266.371 235.716Z" fill="white" stroke="#263238" stroke-width="0.552835" stroke-linecap="round" stroke-linejoin="round"/>
<path d="M266.371 235.716V246.373H90.3281V235.716C90.3281 230.937 92.1854 226.353 95.4918 222.973C98.7981 219.592 103.283 217.691 107.961 217.688H248.725C253.405 217.688 257.894 219.587 261.203 222.968C264.512 226.349 266.371 230.934 266.371 235.716Z" fill="#091540" stroke="#263238" stroke-width="0.552835" stroke-miterlimit="10"/>
<path d="M150.205 258.723H106.891V266.149H150.205V258.723Z" fill="#5D9ACA"/>
<path d="M150.205 325.266H106.891V332.691H150.205V325.266Z" fill="#5D9ACA"/>
<path d="M150.205 385.605H106.891V393.031H150.205V385.605Z" fill="#5D9ACA"/>
<path d="M229.902 277.105H106.891V282.551H229.902V277.105Z" fill="#263238"/>
<path d="M207.719 287.516H106.891V292.824H207.719V287.516Z" fill="#263238"/>
<path d="M220.924 297.762H106.891V303.07H220.924V297.762Z" fill="#263238"/>
<path d="M220.924 307.992H106.891V313.3H220.924V307.992Z" fill="#263238"/>
<path d="M229.902 337.449H106.891V342.895H229.902V337.449Z" fill="#263238"/>
<path d="M207.719 347.859H106.891V353.167H207.719V347.859Z" fill="#263238"/>
<path d="M220.924 358.102H106.891V363.41H220.924V358.102Z" fill="#263238"/>
<path d="M229.902 403.703H106.891V409.149H229.902V403.703Z" fill="#263238"/>
<path d="M207.719 414.129H106.891V419.437H207.719V414.129Z" fill="#263238"/>
<path d="M220.924 424.375H106.891V429.683H220.924V424.375Z" fill="#263238"/>
<path d="M464.79 79.6208V160.095C464.79 162.919 464.246 165.715 463.188 168.323C462.129 170.932 460.579 173.302 458.624 175.298C456.669 177.294 454.348 178.877 451.794 179.957C449.24 181.036 446.503 181.591 443.739 181.589H262.325C259.561 181.591 256.824 181.036 254.27 179.957C251.716 178.877 249.395 177.294 247.44 175.298C245.485 173.302 243.934 170.932 242.876 168.323C241.818 165.715 241.273 162.919 241.273 160.095V79.6208C241.277 73.9177 243.496 68.4493 247.443 64.4167C251.39 60.384 256.743 58.1169 262.325 58.1133H443.739C449.322 58.1133 454.676 60.3792 458.624 64.4127C462.572 68.4461 464.79 73.9166 464.79 79.6208Z" fill="white" stroke="#222221" stroke-width="0.552835" stroke-miterlimit="10"/>
<path d="M464.79 79.6208V81.4635H241.273V79.6208C241.277 73.9177 243.496 68.4493 247.443 64.4167C251.39 60.384 256.743 58.1169 262.325 58.1133H443.739C449.322 58.1133 454.676 60.3792 458.624 64.4127C462.572 68.4461 464.79 73.9166 464.79 79.6208Z" fill="#091540" stroke="#263238" stroke-width="0.552835" stroke-miterlimit="10"/>
<path d="M274.111 73.6391C273.66 74.1015 273.084 74.4166 272.457 74.5446C271.83 74.6726 271.18 74.6077 270.59 74.3581C269.999 74.1086 269.494 73.6855 269.139 73.1426C268.783 72.5997 268.594 71.9613 268.594 71.3082C268.594 70.6551 268.783 70.0167 269.139 69.4738C269.494 68.9309 269.999 68.5078 270.59 68.2583C271.18 68.0087 271.83 67.9438 272.457 68.0718C273.084 68.1998 273.66 68.5149 274.111 68.9773C274.712 69.5978 275.049 70.4354 275.049 71.3082C275.049 72.181 274.712 73.0186 274.111 73.6391Z" fill="#263238"/>
<path d="M289.08 73.6391C288.628 74.1015 288.053 74.4166 287.426 74.5446C286.799 74.6726 286.149 74.6077 285.558 74.3581C284.968 74.1086 284.463 73.6855 284.107 73.1426C283.752 72.5997 283.562 71.9613 283.562 71.3082C283.562 70.6551 283.752 70.0167 284.107 69.4738C284.463 68.9309 284.968 68.5078 285.558 68.2583C286.149 68.0087 286.799 67.9438 287.426 68.0718C288.053 68.1998 288.628 68.5149 289.08 68.9773C289.681 69.5978 290.018 70.4354 290.018 71.3082C290.018 72.181 289.681 73.0186 289.08 73.6391Z" fill="#263238"/>
<path d="M304.049 73.6391C303.597 74.1015 303.022 74.4166 302.395 74.5446C301.768 74.6726 301.118 74.6077 300.527 74.3581C299.937 74.1086 299.432 73.6855 299.076 73.1426C298.721 72.5997 298.531 71.9613 298.531 71.3082C298.531 70.6551 298.721 70.0167 299.076 69.4738C299.432 68.9309 299.937 68.5078 300.527 68.2583C301.118 68.0087 301.768 67.9438 302.395 68.0718C303.022 68.1998 303.597 68.5149 304.049 68.9773C304.65 69.5978 304.987 70.4354 304.987 71.3082C304.987 72.181 304.65 73.0186 304.049 73.6391Z" fill="#263238"/>
<path d="M328.584 96.2617H255.523V160.784H328.584V96.2617Z" stroke="#263238" stroke-width="0.552835" stroke-linecap="round" stroke-linejoin="round" stroke-dasharray="2.21 2.21"/>
<path d="M423.952 96.2617H339.867V100.8H423.952V96.2617Z" fill="#263238"/>
<path d="M404.368 105.652H339.867V110.177H404.368V105.652Z" fill="#263238"/>
<path d="M435.904 115.004H339.867V119.583H435.904V115.004Z" fill="#263238"/>
<path d="M421.65 124.121H339.867V128.7H421.65V124.121Z" fill="#263238"/>
<path d="M358.572 547.418C358.572 547.418 319.538 558.846 314.087 560.826C309.134 562.614 295.701 567.427 285.619 565.928C284.646 565.785 283.683 565.573 282.739 565.295C272.523 562.187 267.933 559.286 266.587 552.726C265.241 546.167 270.329 541.326 275.228 538.232C280.127 535.138 306.697 531.906 306.697 531.906L313.118 533.831L358.572 547.418Z" fill="#74C0FC"/>
<path d="M285.619 565.928C284.646 565.785 283.683 565.573 282.739 565.295C272.523 562.187 267.933 559.286 266.587 552.726C265.241 546.167 270.329 541.326 275.228 538.232C280.127 535.138 306.697 531.906 306.697 531.906L313.118 533.831C307.303 536.582 285.659 538.081 280.935 540.859C276.211 543.636 273.936 548.862 276.722 555.985C278.216 559.698 282.2 563.342 285.619 565.928Z" fill="white"/>
<path d="M352.702 549.042C352.702 549.042 323.387 556.797 311.757 561.762C300.128 566.726 277.959 568.899 270.031 558.668C262.103 548.436 269.116 539.608 277.017 537.641C284.918 535.675 300.895 532.581 309.617 533.832" fill="#555555"/>
<path d="M352.702 549.042C352.702 549.042 323.387 556.797 311.757 561.762C300.128 566.726 277.959 568.899 270.031 558.668C262.103 548.436 269.116 539.608 277.017 537.641C284.918 535.675 300.895 532.581 309.617 533.832" stroke="#263238" stroke-width="0.552835" stroke-linecap="round" stroke-linejoin="round"/>
<path d="M286.195 565.392C286.195 565.392 271.281 557.031 276.234 545.315C279.896 536.679 299.789 538.549 309.642 533.832" stroke="#263238" stroke-width="0.552835" stroke-linecap="round" stroke-linejoin="round"/>
<path d="M477.467 567.784C477.063 571.91 475.65 575.774 471.612 578.208C468.92 579.831 465.098 580.793 459.619 580.738C445.93 580.56 420.195 570.562 420.195 570.562L396.102 556.948L408.633 536.692L412.065 531.191L420.922 533.227C420.922 533.227 428.257 537.476 435.634 540.859C443.01 544.242 460.925 544.984 467.238 550.169C473.55 555.353 478.154 560.991 477.467 567.784Z" fill="#555555"/>
<path d="M477.467 567.784C477.063 571.91 475.65 575.774 471.612 578.208C472.775 574.153 472.538 569.812 470.939 565.914C468.247 559.74 459.485 554.294 447.963 553.386C436.441 552.479 427.625 546.978 423.008 544.517C419.401 542.605 411.796 538.425 408.633 536.692L412.065 531.191L420.922 533.227C420.922 533.227 428.257 537.476 435.634 540.859C443.01 544.242 460.925 544.984 467.238 550.169C473.55 555.353 478.154 560.991 477.467 567.784Z" fill="white"/>
<path d="M401.441 560.772C418.784 571.071 437.952 577.76 457.838 580.45C462.226 580.987 467.328 581.069 470.262 577.7C471.043 576.727 471.624 575.603 471.971 574.396C472.318 573.189 472.423 571.923 472.281 570.673C471.756 564.347 466.547 559.342 460.84 556.825C455.133 554.309 448.847 553.731 442.777 552.342C436.739 550.952 430.903 548.77 425.413 545.851C421.052 543.527 416.839 540.708 412.034 539.663C407.229 538.618 401.508 539.883 398.938 544.174" stroke="#263238" stroke-width="0.552835" stroke-linecap="round" stroke-linejoin="round"/>
<path d="M468.651 579.418C470.906 578.315 472.878 576.689 474.409 574.669C475.94 572.649 476.987 570.292 477.468 567.785C478.342 561.83 475.018 555.834 470.347 552.177C465.677 548.519 459.822 546.786 454.047 545.562C448.273 544.338 442.364 543.513 436.832 541.272C428.392 537.889 420.061 531.233 411.258 533.612" stroke="#263238" stroke-width="0.552835" stroke-linecap="round" stroke-linejoin="round"/>
<path d="M428.635 347.732L387.865 331.89L387.354 331.684C387.354 331.684 387.502 330.584 387.623 328.934C387.878 325.606 388.013 320.188 386.479 318.359C384.204 315.608 377.77 317.919 371.484 314.976C365.198 312.033 353.582 317.3 353.582 317.3C353.582 317.3 345.183 315.718 341.468 321.907C339.584 326.898 340.23 334.283 340.23 334.283L339.463 334.558C334.604 336.414 308.168 346.577 302.582 350.661C296.404 355.13 289.567 401.019 287.373 414.496C285.179 427.973 281.275 440.115 283.254 444.749C285.232 449.384 313.633 471.73 329.974 477.492C346.314 483.254 404.259 481.617 404.259 481.617C404.259 481.617 405.201 481.356 406.884 480.806C416.683 477.588 451.45 464.304 469.904 433.116C469.931 433.171 452.056 373.31 428.635 347.732ZM318.479 424.92C315.477 427.092 317.133 435.508 317.133 435.508L312.031 430.915L324.845 398.723L330.31 423.476C330.31 423.476 321.48 422.761 318.479 424.92ZM420.99 445.368C419.577 446.111 425.028 430.64 422.444 427.134C419.859 423.627 412.066 423.957 412.066 423.957L412.726 419.735L417.342 395.533L418.877 393.676C418.877 393.676 434.733 421.441 437.573 431.232C437.573 431.259 420.29 445.368 420.99 445.368Z" fill="#74C0FC"/>
<path d="M351.655 247.332L330.603 270.16C330.603 270.16 327.71 272.786 328.854 279.401C329.998 286.015 332.69 291.777 334.722 292.162C336.331 292.45 337.961 292.597 339.595 292.602C339.595 292.602 344.104 302.586 347.307 306.505C347.307 306.505 348.411 321.921 347.819 326.197C347.819 326.197 355.383 332.949 362.504 333.802C369.624 334.655 380.621 323.516 380.621 323.516L383.313 309.874C383.313 309.874 389.774 299.863 390.204 297.195C390.635 294.527 393.596 295.215 395.05 293.895C396.504 292.575 399.855 286.703 400.434 281.147C401.013 275.592 401.026 269.211 394.713 271.081C389.235 269.582 392.667 257.756 392.667 257.756L383.044 249.092L351.655 247.332Z" fill="white"/>
<path opacity="0.5" d="M387.86 331.892C387.542 332.741 387.178 333.572 386.769 334.381C383.297 341.064 368.168 353.812 368.168 353.812L363.591 339.441L361.088 353.812C356.04 351.556 340.642 337.929 340.642 337.929C340.642 337.929 340.117 336.65 339.484 334.656L340.252 334.381C340.252 334.381 339.606 326.941 341.49 322.004C345.178 315.816 353.604 317.397 353.604 317.397C353.604 317.397 365.22 312.131 371.506 315.073C377.792 318.016 384.225 315.734 386.5 318.456C388.775 321.179 387.375 331.74 387.375 331.74L387.86 331.892Z" fill="white"/>
<path opacity="0.2" d="M428.633 347.732L387.863 331.89L387.351 331.684C387.351 331.684 387.499 330.584 387.62 328.934L386.772 334.338L380.742 342.699C387.188 345.124 393.481 347.953 399.586 351.17C402.509 352.769 404.893 355.23 406.429 358.231C407.965 361.233 408.583 364.637 408.201 368.002L400.69 433.666L397.608 470.946L406.908 480.806C416.707 477.588 451.474 464.304 469.928 433.116C469.928 433.171 452.053 373.31 428.633 347.732ZM420.988 445.368C419.574 446.111 425.026 430.64 422.441 427.134C419.857 423.627 412.064 423.957 412.064 423.957L412.723 419.735L417.34 395.532L418.874 393.676C418.874 393.676 434.73 421.44 437.57 431.232C437.57 431.259 420.288 445.368 420.988 445.368Z" fill="black"/>
<path opacity="0.2" d="M333.014 427.136L326.675 405.491C326.675 405.491 315.301 365.873 307.508 356.109L309.554 383.97C309.554 383.97 302.824 417.249 296.672 427.136C290.521 437.024 289.148 439.513 296.672 439.513C304.197 439.513 322.516 454.419 322.516 454.419L321.102 442.043L333.014 427.136ZM317.037 435.511L311.936 430.918L324.75 398.726L330.215 423.478C330.215 423.478 321.439 422.805 318.437 424.964C315.436 427.123 317.037 435.511 317.037 435.511Z" fill="black"/>
<path d="M347.305 306.504C347.305 306.504 348.462 318.179 347.305 323.515" stroke="#263238" stroke-width="0.552835" stroke-linecap="round" stroke-linejoin="round"/>
<path d="M381.789 321.949C381.802 318.195 382.226 314.454 383.054 310.797" stroke="#263238" stroke-width="0.552835" stroke-linecap="round" stroke-linejoin="round"/>
<path d="M384.848 256.039C384.848 256.039 391.766 264.909 391.403 271.62C391.04 278.33 390.528 286.279 390.703 294.062C390.878 301.846 378.468 318.155 372.088 319.599C365.708 321.043 360.216 321.414 356.138 317.247C352.059 313.081 347.981 307.291 342.678 299.865C337.375 292.44 338.64 276.144 338.64 276.144" stroke="#263238" stroke-width="0.552835" stroke-linecap="round" stroke-linejoin="round"/>
<path d="M368.183 282.344C367.761 284.781 367.581 287.255 367.645 289.728C367.506 291.813 368.14 293.875 369.421 295.504C370.189 296.302 371.292 296.948 371.44 298.048C371.437 298.543 371.302 299.028 371.051 299.452C370.8 299.875 370.441 300.222 370.014 300.455C369.15 300.899 368.318 301.405 367.523 301.967" stroke="#263238" stroke-width="0.552835" stroke-linecap="round" stroke-linejoin="round"/>
<path d="M357.242 302.82C357.242 302.82 358.036 308.087 364.941 309.187" stroke="#263238" stroke-width="0.552835" stroke-linecap="round" stroke-linejoin="round"/>
<path d="M357.951 286.36C357.951 287.886 357.305 289.11 356.511 289.11C355.716 289.11 355.07 287.886 355.07 286.36C355.07 284.833 355.716 283.609 356.511 283.609C357.305 283.609 357.951 284.847 357.951 286.36Z" fill="#263238"/>
<path d="M378.56 287.02C378.56 288.546 377.914 289.77 377.12 289.77C376.326 289.77 375.68 288.533 375.68 287.02C375.68 285.507 376.326 284.27 377.12 284.27C377.914 284.27 378.56 285.493 378.56 287.02Z" fill="#263238"/>
<path d="M374.398 280.348C374.398 280.348 381.128 273.472 386.768 281.146" stroke="#263238" stroke-width="1.10566" stroke-linecap="round" stroke-linejoin="round"/>
<path d="M360.23 280.488C360.23 280.488 355.977 275.62 349.273 280.488" stroke="#263238" stroke-width="1.10566" stroke-linecap="round" stroke-linejoin="round"/>
<path d="M347.816 312.994C347.816 312.994 351.921 324.546 361.088 327.832C370.254 331.119 382.422 314.081 382.422 314.081L381.789 311.867C381.789 311.867 373.807 322.455 364.937 320.654C356.067 318.853 347.305 306.559 347.305 306.559L347.816 312.994Z" fill="#263238"/>
<path d="M339.594 292.162C339.594 292.162 334.129 294.129 332.676 289.783C331.222 285.438 326.242 273.983 330.603 270.16C334.964 266.337 338.463 275.207 338.463 275.207" stroke="#263238" stroke-width="0.552835" stroke-linecap="round" stroke-linejoin="round"/>
<path d="M390.688 294.529C390.688 294.529 395.762 295.574 397.216 291.229C398.669 286.883 403.649 275.428 399.288 271.605C394.927 267.782 391.428 276.652 391.428 276.652" stroke="#263238" stroke-width="0.552835" stroke-linecap="round" stroke-linejoin="round"/>
<path d="M338.46 286.36C340.358 286.054 342.072 285.021 343.252 283.472C343.973 282.112 344.43 280.622 344.598 279.085C345.098 276.161 345.35 273.198 345.352 270.229C345.292 269.069 345.397 267.907 345.661 266.777C346.065 265.641 346.688 264.598 347.492 263.711C349.39 261.428 351.691 259.503 353.508 257.137C354.482 256.021 355.223 254.714 355.686 253.295C356.149 251.877 356.324 250.377 356.2 248.887C360.365 252.394 365.23 254.927 370.456 256.308C375.681 257.688 381.139 257.882 386.445 256.876C396.069 254.951 405.289 246.329 404.172 235.492C403.961 233.676 403.198 231.972 401.991 230.62C400.784 229.269 399.193 228.337 397.442 227.957C392.69 226.746 388.424 229.332 384.116 230.996C376.269 234.021 368.584 228.823 360.656 227.957C353.926 227.2 345.54 228.067 342.014 234.956C342.014 234.956 329.9 236.414 324.516 246.645C319.132 256.876 329.321 271.027 329.321 271.027C329.321 271.027 333.359 265.966 338.649 276.197L338.46 286.36Z" fill="#263238"/>
<path d="M385.678 253.425C385.678 253.425 382.529 270.202 390.753 278.329C390.753 278.329 392.557 273.283 394.374 272.045C395.684 269.068 396.239 265.801 395.987 262.547C395.735 259.293 394.685 256.155 392.933 253.425C386.85 243.662 385.678 253.425 385.678 253.425Z" fill="#263238"/>
<path opacity="0.2" d="M400.678 234.336C399.956 236.625 398.732 238.716 397.099 240.448C395.466 242.181 393.468 243.509 391.256 244.333C379.842 249.091 368.764 243.825 357.323 242.793C347.996 241.941 337.699 250.549 337.039 260.34" stroke="white" stroke-width="0.552835" stroke-linecap="round" stroke-linejoin="round"/>
<path opacity="0.2" d="M330 257.757C330.14 253.893 331.353 250.15 333.498 246.964C335.644 243.779 338.632 241.284 342.114 239.77" stroke="white" stroke-width="0.552835" stroke-linecap="round" stroke-linejoin="round"/>
<path d="M344.672 321.949C349.691 327.294 355.747 331.509 362.453 334.326C362.453 334.326 376.114 330.269 383.06 320.574" stroke="#263238" stroke-width="0.552835" stroke-linecap="round" stroke-linejoin="round"/>
<path d="M358.628 297.558C364.695 294.715 367.358 287.385 364.575 281.185C361.792 274.986 354.617 272.266 348.549 275.109C342.481 277.953 339.819 285.283 342.602 291.482C345.385 297.681 352.56 300.402 358.628 297.558Z" stroke="#263238" stroke-width="0.552835" stroke-linecap="round" stroke-linejoin="round"/>
<path d="M382.052 298.642C388.678 297.81 393.39 291.649 392.576 284.88C391.763 278.111 385.732 273.297 379.106 274.128C372.481 274.959 367.769 281.12 368.582 287.89C369.396 294.659 375.427 299.473 382.052 298.642Z" stroke="#263238" stroke-width="0.552835" stroke-linecap="round" stroke-linejoin="round"/>
<path d="M347.305 317.344C346.08 317.672 344.933 318.249 343.932 319.041C342.93 319.832 342.095 320.822 341.477 321.951C339.337 325.801 340.629 337.916 340.629 337.916C340.629 337.916 351.679 349.082 361.088 353.799L363.861 337.861L368.168 353.799C368.168 353.799 382.732 343.279 386.77 334.382C386.77 334.382 388.116 323.999 386.77 320.63C386.464 319.695 385.881 318.879 385.103 318.295C384.324 317.711 383.388 317.389 382.422 317.371" stroke="#263238" stroke-width="0.552835" stroke-linecap="round" stroke-linejoin="round"/>
<path d="M329.998 423.974C329.998 423.974 325.677 394.408 319.93 382.348" stroke="#263238" stroke-width="0.552835" stroke-linecap="round" stroke-linejoin="round"/>
<path d="M307.508 356.109C310.854 360.968 313.842 366.075 316.445 371.387" stroke="#263238" stroke-width="0.552835" stroke-linecap="round" stroke-linejoin="round"/>
<path d="M420.984 378.179C422.145 373.236 423.735 368.408 425.736 363.754" stroke="#263238" stroke-width="0.552835" stroke-linecap="round" stroke-linejoin="round"/>
<path d="M412.062 423.972C412.062 423.972 415.172 403.702 418.887 387.008" stroke="#263238" stroke-width="0.552835" stroke-linecap="round" stroke-linejoin="round"/>
<path d="M417.336 395.506C420.341 391.435 424.567 388.479 429.369 387.09" stroke="#263238" stroke-width="0.552835" stroke-linecap="round" stroke-linejoin="round"/>
<path d="M387.367 331.684C387.367 331.684 412.443 341.929 428.636 347.745C428.636 347.745 448.556 366.874 469.917 433.17C469.917 433.17 450.347 466.807 413.116 477.588" stroke="#263238" stroke-width="0.552835" stroke-linecap="round" stroke-linejoin="round"/>
<path d="M419.57 446.564L437.566 431.258C437.566 431.258 447.083 423.874 456.976 428.921" stroke="#263238" stroke-width="0.552835" stroke-linecap="round" stroke-linejoin="round"/>
<path d="M418.883 393.676C418.883 393.676 433.756 416.132 437.565 431.259" stroke="#263238" stroke-width="0.552835" stroke-linecap="round" stroke-linejoin="round"/>
<path d="M317.239 436.362L311.976 431.26C311.976 431.26 304.169 429.885 295.312 435.922" stroke="#263238" stroke-width="0.552835" stroke-linecap="round" stroke-linejoin="round"/>
<path d="M311.977 431.257C311.977 431.257 318.518 409.255 324.965 397.992" stroke="#263238" stroke-width="0.552835" stroke-linecap="round" stroke-linejoin="round"/>
<path d="M340.252 334.379C340.252 334.379 304.166 348.213 300.626 352.256C297.086 356.299 283.639 433.652 283.276 442.508C282.966 450.428 311.071 468.209 325.002 475.704" stroke="#263238" stroke-width="0.552835" stroke-linecap="round" stroke-linejoin="round"/>
<path d="M367.241 360.52C367.241 361.001 367.102 361.472 366.84 361.872C366.578 362.273 366.206 362.585 365.771 362.769C365.335 362.953 364.856 363.001 364.394 362.907C363.932 362.813 363.508 362.582 363.174 362.241C362.841 361.901 362.614 361.467 362.522 360.995C362.43 360.523 362.478 360.033 362.658 359.589C362.838 359.144 363.144 358.764 363.535 358.496C363.927 358.229 364.388 358.086 364.859 358.086C365.172 358.084 365.483 358.146 365.773 358.268C366.063 358.389 366.326 358.568 366.548 358.795C366.769 359.021 366.945 359.29 367.064 359.586C367.183 359.882 367.243 360.2 367.241 360.52Z" fill="#263238"/>
<path d="M408.992 490.089H326.886C326.375 490.089 325.886 489.882 325.525 489.513C325.164 489.144 324.961 488.644 324.961 488.123C324.961 487.601 325.164 487.101 325.525 486.732C325.886 486.363 326.375 486.156 326.886 486.156H408.992C409.502 486.156 409.992 486.363 410.353 486.732C410.714 487.101 410.916 487.601 410.916 488.123C410.916 488.644 410.714 489.144 410.353 489.513C409.992 489.882 409.502 490.089 408.992 490.089Z" fill="#263238"/>
<path d="M411.871 483.515L422.868 430.709C423.039 429.89 423.028 429.043 422.836 428.229C422.645 427.415 422.277 426.655 421.761 426.005C421.245 425.355 420.593 424.831 419.853 424.472C419.113 424.113 418.303 423.928 417.484 423.93H321.514C320.702 423.93 319.899 424.114 319.165 424.469C318.431 424.824 317.783 425.342 317.268 425.984C316.753 426.625 316.384 427.376 316.187 428.181C315.99 428.987 315.971 429.827 316.13 430.64L325.996 481.686C326.238 482.94 326.892 484.072 327.849 484.894C328.806 485.717 330.009 486.181 331.259 486.211L406.352 487.971C407.636 488 408.889 487.571 409.897 486.758C410.904 485.944 411.602 484.798 411.871 483.515Z" fill="#D3D3D3" stroke="#263238" stroke-width="0.552835" stroke-linecap="round" stroke-linejoin="round"/>
<path d="M376.849 454.405C376.846 455.952 376.395 457.463 375.551 458.748C374.708 460.033 373.511 461.034 372.112 461.624C370.712 462.214 369.172 462.367 367.688 462.064C366.203 461.76 364.839 461.014 363.77 459.919C362.7 458.824 361.972 457.43 361.677 455.913C361.383 454.395 361.535 452.822 362.116 451.394C362.696 449.965 363.677 448.743 364.936 447.884C366.196 447.025 367.676 446.566 369.19 446.566C370.197 446.566 371.194 446.769 372.124 447.163C373.054 447.557 373.899 448.135 374.61 448.863C375.322 449.591 375.885 450.455 376.27 451.406C376.654 452.357 376.851 453.376 376.849 454.405Z" fill="#263238"/>
<path d="M391.914 428.977H403.315" stroke="#263238" stroke-width="0.552835" stroke-linecap="round" stroke-linejoin="round"/>
<path d="M337.469 428.977H380.743" stroke="#263238" stroke-width="0.552835" stroke-linecap="round" stroke-linejoin="round"/>
<path d="M412.062 539.581L403.313 563.041C403.313 563.041 380.997 557.293 352.421 551.311C322.526 545.054 291.313 536.955 275.12 507.925C273.155 504.391 271.836 500.21 272.765 496.25C275.093 486.225 287.867 483.502 296.279 482.498C301.568 481.914 306.883 481.611 312.203 481.591C314.895 481.591 323.845 480.092 326.012 481.728C329.268 484.155 332.743 486.259 336.39 488.013C341.168 490.089 410.918 486.156 410.918 486.156C412.132 483.453 412.874 480.553 413.112 477.589C424.082 471.896 449.454 467.083 460.222 469.214C477.088 472.556 486.927 482.608 485.056 493.142C483.185 503.676 445.928 531.922 412.062 539.581Z" fill="#263238"/>
<path d="M412.062 539.581C412.062 539.581 390.835 533.833 373.499 521.869C356.162 509.905 342.622 496.016 318.461 498.89" stroke="white" stroke-width="0.552835" stroke-linecap="round" stroke-linejoin="round"/>
<path d="M369.531 519.049C380.488 515.831 388.523 508.584 397.313 501.639C406.583 494.038 416.539 487.352 427.046 481.672" stroke="white" stroke-width="0.552835" stroke-linecap="round" stroke-linejoin="round"/>
<path d="M365.664 288.312H368.881" stroke="#263238" stroke-width="0.552835" stroke-linecap="round" stroke-linejoin="round"/>
</svg>
