<svg width="126" height="60" viewBox="0 0 126 60" fill="none" xmlns="http://www.w3.org/2000/svg">
<path d="M0 9.04762C0 8.46904 0.465624 8 1.04 8H8.32V16.381H0V9.04762Z" fill="#091540"/>
<path d="M0 16.9048H8.32V25.2857H0V16.9048Z" fill="#091540"/>
<path d="M8.84 8H17.16V16.381H8.84V8Z" fill="#091540"/>
<path d="M17.68 16.9048H26V25.2857H17.68V16.9048Z" fill="#091540"/>
<path d="M8.84 34.7143H17.16V43.0952H8.84V34.7143Z" fill="#FFC700"/>
<path d="M8.84 16.9048H17.16V25.2857H8.84V16.9048Z" fill="#FFC700"/>
<path d="M8.84 25.8095H24.96C25.5344 25.8095 26 26.2786 26 26.8571V33.1429C26 33.7214 25.5344 34.1905 24.96 34.1905H8.84V25.8095Z" fill="#091540"/>
<path d="M17.68 43.619H26V50.9524C26 51.531 25.5344 52 24.96 52H17.68V43.619Z" fill="#091540"/>
<path d="M17.68 34.7143H26V43.0952H17.68V34.7143Z" fill="#091540"/>
<path d="M17.68 8H24.96C25.5344 8 26 8.46904 26 9.04762V16.381H17.68V8Z" fill="#091540"/>
<path d="M0 25.8095H8.32V34.1905H0V25.8095Z" fill="#091540"/>
<path d="M0 34.7143H8.32V43.0952H0V34.7143Z" fill="#091540"/>
<path d="M0 43.619H8.32V52H1.04C0.465624 52 0 51.531 0 50.9524V43.619Z" fill="#091540"/>
<path d="M8.84 43.619H17.16V52H8.84V43.619Z" fill="#091540"/>
<path d="M42.5781 39H37V22.1953H39.6602C40.0508 22.1953 40.4531 22.2031 40.8672 22.2188C41.2891 22.2266 41.6914 22.2461 42.0742 22.2773C42.457 22.3008 42.8008 22.332 43.1055 22.3711C43.418 22.4102 43.6602 22.457 43.832 22.5117C44.8242 22.8008 45.6328 23.3008 46.2578 24.0117C46.875 24.6992 47.1836 25.5547 47.1836 26.5781C47.1836 27.2031 47.0273 27.7773 46.7148 28.3008C46.4727 28.8242 46.0547 29.3164 45.4609 29.7773C47.3984 30.707 48.3672 32.1406 48.3672 34.0781C48.3672 35.0703 48.1289 35.9297 47.6523 36.6562C47.1211 37.4453 46.4961 38.043 45.7773 38.4492C44.9883 38.8164 43.9219 39 42.5781 39ZM41.793 35.9414C43.1289 35.9414 44.0391 35.7852 44.5234 35.4727C45 35.1055 45.2383 34.6133 45.2383 33.9961C45.2383 33.3008 44.9766 32.7266 44.4531 32.2734C43.875 31.8594 42.9648 31.6523 41.7227 31.6523H40.1992V35.9414H41.793ZM41.7227 28.8398C42.4883 28.8398 43.0859 28.6602 43.5156 28.3008C43.875 27.9648 44.0547 27.5195 44.0547 26.9648C44.0547 26.4023 43.875 25.9883 43.5156 25.7227C43.1328 25.4102 42.5859 25.2539 41.875 25.2539H40.1992V28.8398H41.7227ZM62.6852 22.1953L59.1461 29.0977L57.4234 25.8047L59.2984 22.1953H62.6852ZM53.0289 22.1953L53.6617 23.3672L57.7281 31.3828V39H54.5172V31.6992L49.5719 22.1953H53.0289ZM79.4406 22.1953V25.3359H77.9172H74.8469V39H71.5539V25.3359H68.5656H67.0422V22.1953H79.4406ZM87.4188 39C85.1688 39 83.4578 37.832 82.2859 35.4961L84.8992 33.9375C85.6648 35.375 86.532 36.0938 87.5008 36.0938C88.0086 36.0938 88.4539 35.9453 88.8367 35.6484C89.1805 35.3281 89.3523 34.9805 89.3523 34.6055C89.3523 34.2383 89.2313 33.8672 88.9891 33.4922C88.8328 33.3125 88.6063 33.0898 88.3094 32.8242C88.0125 32.5508 87.6414 32.2266 87.1961 31.8516C86.3445 31.1406 85.6375 30.5156 85.075 29.9766C84.5203 29.4297 84.1141 28.9648 83.8563 28.582C83.3094 27.8008 83.0359 27.0352 83.0359 26.2852C83.0359 25.1602 83.4578 24.1953 84.3016 23.3906C85.1766 22.5938 86.2156 22.1953 87.4188 22.1953C88.2469 22.1953 89.0164 22.3945 89.7273 22.793C90.0945 22.9727 90.4734 23.2305 90.8641 23.5664C91.2547 23.9023 91.6688 24.3125 92.1063 24.7969L89.7977 26.8008C89.0242 25.7148 88.2313 25.1719 87.4188 25.1719C86.9656 25.1719 86.6453 25.2695 86.4578 25.4648C86.2078 25.6602 86.0828 25.9102 86.0828 26.2148C86.0828 26.4492 86.157 26.6914 86.3055 26.9414C86.4539 27.0977 86.7117 27.3438 87.0789 27.6797C87.4539 28.0078 87.9422 28.4336 88.5438 28.957C89.2469 29.543 89.782 30.0078 90.1492 30.3516C90.3914 30.5703 90.5711 30.7266 90.6883 30.8203C91.782 31.875 92.3289 33.0859 92.3289 34.4531C92.3289 35.7969 91.8797 36.8906 90.9813 37.7344C90.0906 38.5781 88.9031 39 87.4188 39ZM106.026 22.1953V25.3242H99.9203V29.0742H106.026V32.1211H99.9203V39H96.7094V22.1953H106.026ZM123.332 22.1953L119.793 29.0977L118.07 25.8047L119.945 22.1953H123.332ZM113.676 22.1953L114.309 23.3672L118.375 31.3828V39H115.164V31.6992L110.219 22.1953H113.676Z" fill="#091540"/>
</svg>
