<svg width="42" height="42" viewBox="0 0 42 42" fill="none" xmlns="http://www.w3.org/2000/svg">
<mask id="mask0_2075_22854" style="mask-type:alpha" maskUnits="userSpaceOnUse" x="0" y="0" width="42" height="42">
<rect width="42" height="42" fill="#D9D9D9"/>
</mask>
<g mask="url(#mask0_2075_22854)">
<path d="M9.275 35.875C8.4 35.875 7.65625 35.5688 7.04375 34.9563C6.43125 34.3438 6.125 33.6 6.125 32.725V9.275C6.125 8.4 6.43125 7.65625 7.04375 7.04375C7.65625 6.43125 8.4 6.125 9.275 6.125H32.725C33.6 6.125 34.3438 6.43125 34.9563 7.04375C35.5688 7.65625 35.875 8.4 35.875 9.275V32.725C35.875 33.6 35.5688 34.3438 34.9563 34.9563C34.3438 35.5688 33.6 35.875 32.725 35.875H9.275ZM9.275 33.25H32.725C32.8708 33.25 32.9951 33.1993 33.0978 33.0978C33.1993 32.9951 33.25 32.8708 33.25 32.725V12.25H8.75V32.725C8.75 32.8708 8.80133 32.9951 8.904 33.0978C9.0055 33.1993 9.12917 33.25 9.275 33.25ZM21 28.875C18.8417 28.875 16.9167 28.3062 15.225 27.1687C13.5333 26.0312 12.2792 24.5583 11.4625 22.75C12.2792 20.9417 13.5333 19.4688 15.225 18.3313C16.9167 17.1938 18.8417 16.625 21 16.625C23.1583 16.625 25.0833 17.1938 26.775 18.3313C28.4667 19.4688 29.7208 20.9417 30.5375 22.75C29.7208 24.5583 28.4667 26.0312 26.775 27.1687C25.0833 28.3062 23.1583 28.875 21 28.875ZM21 26.775C22.5167 26.775 23.9097 26.425 25.179 25.725C26.4472 25.025 27.475 24.0333 28.2625 22.75C27.475 21.4667 26.4472 20.475 25.179 19.775C23.9097 19.075 22.5167 18.725 21 18.725C19.4833 18.725 18.0909 19.075 16.8227 19.775C15.5534 20.475 14.525 21.4667 13.7375 22.75C14.525 24.0333 15.5534 25.025 16.8227 25.725C18.0909 26.425 19.4833 26.775 21 26.775ZM21 25.025C20.3583 25.025 19.8187 24.8063 19.3812 24.3688C18.9437 23.9313 18.725 23.3917 18.725 22.75C18.725 22.1083 18.9437 21.5687 19.3812 21.1312C19.8187 20.6937 20.3583 20.475 21 20.475C21.6417 20.475 22.1813 20.6937 22.6188 21.1312C23.0563 21.5687 23.275 22.1083 23.275 22.75C23.275 23.3917 23.0563 23.9313 22.6188 24.3688C22.1813 24.8063 21.6417 25.025 21 25.025Z" fill="#FFD02B"/>
</g>
</svg>
