<svg width="236" height="20" viewBox="0 0 236 20" fill="none" xmlns="http://www.w3.org/2000/svg">
<rect x="1.25" y="1.25" width="17.5" height="17.5" rx="8.75" fill="#1275B1"/>
<path d="M7.8866 6.05759C7.8866 6.64169 7.38032 7.11519 6.7558 7.11519C6.13128 7.11519 5.625 6.64169 5.625 6.05759C5.625 5.4735 6.13128 5 6.7558 5C7.38032 5 7.8866 5.4735 7.8866 6.05759Z" fill="white"/>
<path d="M5.77964 7.89256H7.71263V13.75H5.77964V7.89256Z" fill="white"/>
<path d="M10.8247 7.89256H8.89175V13.75H10.8247C10.8247 13.75 10.8247 11.906 10.8247 10.753C10.8247 10.061 11.061 9.36596 12.0039 9.36596C13.0694 9.36596 13.063 10.2716 13.058 10.9732C13.0515 11.8903 13.067 12.8262 13.067 13.75H15V10.6586C14.9836 8.68461 14.4693 7.77505 12.7771 7.77505C11.7721 7.77505 11.1492 8.23129 10.8247 8.64406V7.89256Z" fill="white"/>
<path d="M72.7511 10.1951C72.7511 9.47569 72.6915 8.95069 72.5626 8.40625H64.1797V11.6534H69.1003C69.0011 12.4604 68.4654 13.6757 67.2749 14.4923L67.2582 14.601L69.9087 16.6133L70.0924 16.6312C71.7788 15.1048 72.7511 12.859 72.7511 10.1951Z" fill="#4285F4"/>
<path d="M64.1793 18.75C66.59 18.75 68.6138 17.9722 70.092 16.6305L67.2745 14.4916C66.5206 15.0068 65.5086 15.3666 64.1793 15.3666C61.8182 15.3666 59.8143 13.8402 59.0999 11.7305L58.9952 11.7392L56.2392 13.8295L56.2031 13.9277C57.6714 16.786 60.6872 18.75 64.1793 18.75Z" fill="#34A853"/>
<path d="M59.0992 11.7322C58.9107 11.1877 58.8016 10.6044 58.8016 10.0016C58.8016 9.39881 58.9107 8.8155 59.0892 8.27106L59.0843 8.15511L56.2937 6.03125L56.2024 6.07381C55.5972 7.25994 55.25 8.59191 55.25 10.0016C55.25 11.4113 55.5972 12.7432 56.2024 13.9294L59.0992 11.7322Z" fill="#FBBC05"/>
<path d="M64.1794 4.63331C65.8559 4.63331 66.9868 5.34303 67.6317 5.93612L70.1516 3.525C68.604 2.11528 66.59 1.25 64.1794 1.25C60.6873 1.25 57.6714 3.21387 56.2031 6.07218L59.09 8.26943C59.8143 6.15972 61.8183 4.63331 64.1794 4.63331Z" fill="#EB4335"/>
<path d="M115.113 18.7352C115.398 18.6128 115.597 18.33 115.597 18.0008V15.8408C115.597 15.762 115.603 15.68 115.613 15.5968C115.608 15.5984 115.602 15.5996 115.597 15.6008C115.597 15.6008 114.397 15.6008 114.157 15.6008C113.557 15.6008 113.037 15.3608 112.797 14.8808C112.517 14.3608 112.397 13.4808 111.677 13.0008C111.557 12.9208 111.637 12.8008 111.877 12.8008C112.117 12.8408 112.637 13.1608 112.957 13.6008C113.317 14.0408 113.677 14.4008 114.317 14.4008C115.312 14.4008 115.845 14.3508 116.166 14.1788C116.539 13.6232 117.056 13.2008 117.597 13.2008V13.1908C115.33 13.118 113.881 12.3644 113.207 11.2008C111.741 11.2176 110.464 11.3628 109.736 11.4836C109.713 11.3528 109.693 11.2212 109.676 11.0888C110.394 10.9704 111.613 10.83 113.014 10.8032C112.969 10.6928 112.93 10.5796 112.897 10.4636C111.493 10.3924 110.281 10.448 109.622 10.5024C109.614 10.3696 109.604 10.2372 109.602 10.1028C110.262 10.0488 111.441 9.99478 112.809 10.0584C112.778 9.85838 112.757 9.65398 112.757 9.44118C112.757 8.76118 112.997 8.04118 113.437 7.44118C113.237 6.76118 112.957 5.32118 113.517 4.80118C114.597 4.80118 115.357 5.32118 115.717 5.64118C116.397 5.36078 117.157 5.20078 117.997 5.20078C118.837 5.20078 119.597 5.36078 120.237 5.64078C120.597 5.32078 121.357 4.80078 122.437 4.80078C123.037 5.36078 122.717 6.80078 122.517 7.44078C122.957 8.04078 123.197 8.72078 123.157 9.44078C123.157 9.63438 123.139 9.82118 123.113 10.0044C124.512 9.93558 125.724 9.99078 126.394 10.0452C126.394 10.18 126.381 10.3116 126.374 10.4448C125.706 10.3896 124.464 10.3328 123.03 10.4092C122.995 10.5436 122.952 10.6744 122.9 10.8012C124.319 10.8196 125.566 10.9568 126.32 11.0768C126.302 11.2096 126.282 11.3412 126.259 11.4716C125.494 11.3492 124.191 11.206 122.708 11.1988C122.042 12.35 120.62 13.1008 118.397 13.1884V13.2008C119.437 13.2008 120.397 14.7608 120.397 15.8408V18.0008C120.397 18.33 120.596 18.6128 120.88 18.7352C124.545 17.5224 127.197 14.0664 127.197 10.0008C127.197 4.92798 123.07 0.800781 117.997 0.800781C112.924 0.800781 108.797 4.92798 108.797 10.0008C108.797 14.0664 111.449 17.5224 115.113 18.7352Z" fill="white"/>
<path d="M172.836 7.08333H169.503C167.892 7.08333 166.586 5.7775 166.586 4.16667C166.586 2.55583 167.892 1.25 169.503 1.25H172.836V7.08333Z" fill="#E64A19"/>
<path d="M172.419 12.9154H169.503C167.892 12.9154 166.586 11.6095 166.586 9.9987C166.586 8.38786 167.892 7.08203 169.503 7.08203H172.419V12.9154Z" fill="#7C4DFF"/>
<path d="M169.503 18.7513C167.892 18.7513 166.586 17.4455 166.586 15.8346C166.586 14.2238 167.892 12.918 169.503 12.918H172.419V15.8346C172.419 17.4455 171.113 18.7513 169.503 18.7513Z" fill="#66BB6A"/>
<path d="M175.331 7.08333H172.414V1.25H175.331C176.942 1.25 178.247 2.55583 178.247 4.16667C178.247 5.7775 176.942 7.08333 175.331 7.08333Z" fill="#FF7043"/>
<path d="M175.331 12.9154C176.942 12.9154 178.247 11.6095 178.247 9.9987C178.247 8.38787 176.942 7.08203 175.331 7.08203C173.72 7.08203 172.414 8.38787 172.414 9.9987C172.414 11.6095 173.72 12.9154 175.331 12.9154Z" fill="#29B6F6"/>
<path d="M222.278 18.2137C219.967 18.2137 217.813 17.5416 216 16.382C217.539 16.4816 220.256 16.2431 221.945 14.6314C219.404 14.5148 218.257 12.5654 218.108 11.7323C218.324 11.8156 219.354 11.9156 219.935 11.6823C217.011 10.9492 216.563 8.38324 216.662 7.60014C217.211 7.98336 218.141 8.11665 218.507 8.08333C215.782 6.1339 216.762 3.20141 217.244 2.56826C219.199 5.27706 222.129 6.79842 225.755 6.88304C225.686 6.58327 225.65 6.27117 225.65 5.95062C225.65 3.6501 227.51 1.78516 229.803 1.78516C231.002 1.78516 232.082 2.29427 232.84 3.10861C233.641 2.92095 234.846 2.48163 235.435 2.10173C235.138 3.16809 234.214 4.05765 233.654 4.38735C233.659 4.39857 233.65 4.37609 233.654 4.38735C234.146 4.31304 235.475 4.05756 236 3.70127C235.74 4.30034 234.76 5.29639 233.956 5.85403C234.105 12.4552 229.055 18.2137 222.278 18.2137Z" fill="#47ACDF"/>
</svg>
