<svg width="56" height="61" viewBox="0 0 56 61" fill="none" xmlns="http://www.w3.org/2000/svg">
<rect x="0.5" y="0.5" width="55" height="59.0835" rx="3.5" fill="#D1EAFE"/>
<path d="M19.0369 16V19.68H17.2258L17.8011 19.105C17.8474 19.0602 17.8792 19.0025 17.8922 18.9395C17.9052 18.8764 17.8988 18.8109 17.874 18.7515C17.8491 18.6921 17.8069 18.6415 17.7528 18.6065C17.6988 18.5714 17.6354 18.5535 17.571 18.555C17.4873 18.5583 17.4083 18.5942 17.3508 18.655L16.2301 19.775L16 20L16.2301 20.225L17.3508 21.345C17.379 21.38 17.4143 21.4086 17.4543 21.4291C17.4943 21.4495 17.5382 21.4614 17.5831 21.4638C17.6279 21.4662 17.6728 21.4591 17.7148 21.443C17.7567 21.427 17.7949 21.4022 17.8266 21.3705C17.8584 21.3387 17.8831 21.3006 17.8992 21.2587C17.9153 21.2168 17.9224 21.1719 17.92 21.1271C17.9176 21.0822 17.9057 21.0384 17.8853 20.9984C17.8648 20.9584 17.8361 20.9232 17.8011 20.895L17.2258 20.32H19.0369V24H19.6773V16H19.0369ZM20.3177 16V24H20.9581V20.32H22.7742L22.1989 20.895C22.1683 20.9247 22.144 20.9601 22.1274 20.9993C22.1107 21.0384 22.1021 21.0805 22.1019 21.1231C22.1017 21.1656 22.11 21.2078 22.1263 21.2471C22.1427 21.2864 22.1667 21.3221 22.1969 21.352C22.2272 21.3819 22.2631 21.4055 22.3027 21.4214C22.3422 21.4373 22.3844 21.4451 22.427 21.4444C22.4696 21.4438 22.5116 21.4347 22.5506 21.4176C22.5896 21.4005 22.6248 21.3758 22.6542 21.345L23.7749 20.225L24 20L23.7749 19.775L22.6542 18.655C22.6245 18.6237 22.5888 18.5987 22.5493 18.5815C22.5097 18.5643 22.4671 18.5553 22.424 18.555C22.414 18.5545 22.404 18.5545 22.394 18.555C22.3325 18.5601 22.2739 18.5828 22.225 18.6204C22.1762 18.658 22.1392 18.7089 22.1186 18.767C22.098 18.8251 22.0946 18.8879 22.1089 18.9478C22.1231 19.0078 22.1544 19.0624 22.1989 19.105L22.7742 19.68H20.9581V16H20.3177Z" fill="#091540"/>
<path d="M21.3956 22L20.7174 22.6486L16 27.3661L17.3563 28.7224L20.4521 25.6265V31.3464C20.4521 33.6801 22.3641 35.5921 24.6978 35.5921C26.0117 35.5921 27.0565 36.637 27.0565 37.9509V44.0835H28.9435V37.9509C28.9435 35.6172 27.0315 33.7052 24.6978 33.7052C23.3839 33.7052 22.3391 32.6603 22.3391 31.3464V25.6265L25.4349 28.7224L26.7912 27.3661L22.0737 22.6486L21.3956 22ZM34.6044 22L33.9263 22.6486L29.2088 27.3661L30.5651 28.7224L33.6609 25.6265V31.3464C33.6609 32.6475 32.6033 33.7052 31.3022 33.7052C30.4804 33.7052 29.7124 33.9481 29.0614 34.3538C29.4586 34.8359 29.7832 35.3791 30.0049 35.9754C30.3785 35.7273 30.821 35.5921 31.3022 35.5921C33.643 35.5921 35.5479 33.6872 35.5479 31.3464V25.6265L38.6437 28.7224L40 27.3661L35.2826 22.6486L34.6044 22Z" fill="#091540"/>
<rect x="0.5" y="0.5" width="55" height="59.0835" rx="3.5" stroke="#74C0FC"/>
</svg>
