<?xml version="1.0" encoding="UTF-8" standalone="no"?>
<svg
   width="118.89367"
   height="44"
   viewBox="0 0 118.89367 44"
   fill="none"
   version="1.1"
   id="svg53"
   sodipodi:docname="Bytsfylogo_footer.svg"
   inkscape:version="1.1.2 (b8e25be833, 2022-02-05)"
   xmlns:inkscape="http://www.inkscape.org/namespaces/inkscape"
   xmlns:sodipodi="http://sodipodi.sourceforge.net/DTD/sodipodi-0.dtd"
   xmlns="http://www.w3.org/2000/svg"
   xmlns:svg="http://www.w3.org/2000/svg">
  <defs
     id="defs57" />
  <sodipodi:namedview
     id="namedview55"
     pagecolor="#ffffff"
     bordercolor="#666666"
     borderopacity="1.0"
     inkscape:pageshadow="2"
     inkscape:pageopacity="0.0"
     inkscape:pagecheckerboard="0"
     showgrid="false"
     inkscape:zoom="8.8615407"
     inkscape:cx="40.117177"
     inkscape:cy="41.753462"
     inkscape:window-width="1920"
     inkscape:window-height="986"
     inkscape:window-x="-11"
     inkscape:window-y="-11"
     inkscape:window-maximized="1"
     inkscape:current-layer="svg53" />
  <g
     id="g389"
     clip-path="none"
     transform="translate(89.682033,-36.239519)">
    <g
       inkscape:label="Clip"
       id="g387">
      <path
         d="m -51.542241,66.841004 h -5.57812 V 50.036316 h 2.66016 c 0.39062,0 0.79296,0.0078 1.20703,0.02344 0.42187,0.0078 0.82422,0.02734 1.20703,0.05859 0.38281,0.02344 0.72656,0.05469 1.03125,0.09375 0.3125,0.03906 0.55469,0.08594 0.72656,0.140626 0.99219,0.28906 1.80078,0.78906 2.42578,1.5 0.61719,0.6875 0.92579,1.54297 0.92579,2.5664 0,0.625 -0.1563,1.19922 -0.46876,1.72266 -0.24218,0.52344 -0.66015,1.01563 -1.2539,1.47656 1.93746,0.92969 2.90626,2.36326 2.90626,4.30076 0,0.9922 -0.2383,1.8516 -0.7149,2.5781 -0.5312,0.7891 -1.15621,1.3868 -1.87496,1.793 -0.78906,0.3672 -1.85546,0.5508 -3.19922,0.5508 z m -0.78515,-3.0586 c 1.33594,0 2.24609,-0.1562 2.73047,-0.4687 0.47656,-0.3672 0.71484,-0.8594 0.71484,-1.4766 0,-0.6953 -0.26172,-1.2695 -0.78516,-1.7227 -0.57812,-0.414 -1.48828,-0.6211 -2.73046,-0.6211 h -1.52344 v 4.2891 z m -0.07031,-7.10156 c 0.76562,0 1.36328,-0.17968 1.79296,-0.53906 0.35938,-0.33594 0.53907,-0.78125 0.53907,-1.33594 0,-0.5625 -0.17969,-0.97656 -0.53907,-1.24218 -0.38281,-0.3125 -0.92968,-0.46875 -1.64062,-0.46875 h -1.67578 v 3.58593 z m 20.96254,-6.644528 -3.5391,6.902348 -1.7227,-3.29297 1.875,-3.609378 z m -9.6563,0 0.6328,1.171878 4.0664,8.01562 v 7.61719 h -3.2109 v -7.3008 l -4.9453,-9.503888 z m 26.4117,0 v 3.140628 h -1.5234 -3.0703 v 13.66406 h -3.293 v -13.66406 h -2.9883 -1.5234 v -3.140628 z m 7.9782001,16.804688 c -2.25,0 -3.9610001,-1.168 -5.1329001,-3.5039 l 2.6133001,-1.5586 c 0.7656,1.4375 1.6328,2.1563 2.6016,2.1563 0.5078,0 0.9531,-0.1485 1.3359,-0.4454 0.3438,-0.3203 0.5156,-0.6679 0.5156,-1.0429 0,-0.3672 -0.121,-0.7383 -0.3632,-1.1133 -0.1563,-0.1797 -0.3828,-0.4024 -0.6797,-0.668 -0.2969,-0.2734 -0.668,-0.5976 -1.1133,-0.9726 -0.8516,-0.71098 -1.5586,-1.33598 -2.1211,-1.87504 -0.5547,-0.54687 -0.9609001,-1.01172 -1.2187001,-1.39453 -0.5469,-0.78125 -0.8204,-1.54687 -0.8204,-2.29687 0,-1.125 0.4219,-2.08985 1.2657001,-2.89454 0.875,-0.79687 1.914,-1.195308 3.1172,-1.195308 0.8281,0 1.5976,0.199219 2.3085,0.597658 0.3672,0.17969 0.7461,0.4375 1.1368,0.77344 0.3906,0.33593 0.8047,0.74609 1.2422,1.23047 l -2.3086,2.0039 c -0.7735,-1.08594 -1.5664,-1.6289 -2.3789,-1.6289 -0.4532,0 -0.7735,0.09765 -0.961,0.29296 -0.25,0.19532 -0.375,0.44532 -0.375,0.75 0,0.23438 0.0742,0.47657 0.2227,0.72657 0.1484,0.15625 0.4062,0.40234 0.7734,0.73828 0.375,0.32812 0.8633,0.7539 1.4649,1.27734 0.7031,0.58594 1.2382,1.05078 1.6054,1.39453 0.2422,0.21875 0.4219,0.375 0.5391,0.46875 1.0937,1.05469 1.6406,2.26559 1.6406,3.63279 0,1.3438 -0.4492,2.4375 -1.3476,3.2813 -0.8907,0.8437 -2.0782,1.2656 -3.5625,1.2656 z M 11.905439,50.036316 v 3.128908 H 5.7999388 v 3.75 h 6.1055002 v 3.04688 H 5.7999388 v 6.8789 H 2.5890391 V 50.036316 Z m 17.3062,0 -3.539,6.902348 -1.7227,-3.29297 1.875,-3.609378 z m -9.6562,0 0.6328,1.171878 4.0664,8.01562 v 7.61719 h -3.2109 v -7.3008 l -4.9453,-9.503888 z"
         fill="#ffc700"
         id="path51" />
      <g
         style="fill:none"
         id="g369"
         transform="translate(-89.682033,35.739519)">
        <path
           d="M 0,1.54762 C 0,0.969035 0.465624,0.5 1.04,0.5 H 8.32 V 8.88095 H 0 Z"
           fill="#091540"
           id="path321" />
        <path
           d="M 0,9.40476 H 8.32 V 17.7857 H 0 Z"
           fill="#091540"
           id="path323" />
        <path
           d="m 8.84,0.5 h 8.32 V 8.88095 H 8.84 Z"
           fill="#091540"
           id="path325" />
        <path
           d="M 17.68,9.40476 H 26 v 8.38094 h -8.32 z"
           fill="#091540"
           id="path327" />
        <path
           d="m 8.84,27.2143 h 8.32 v 8.3809 H 8.84 Z"
           fill="#ffc700"
           id="path329" />
        <path
           d="m 8.84,9.40476 h 8.32 V 17.7857 H 8.84 Z"
           fill="#ffc700"
           id="path331" />
        <path
           d="m 8.84,18.3095 h 16.12 c 0.5744,0 1.04,0.4691 1.04,1.0476 v 6.2858 c 0,0.5785 -0.4656,1.0476 -1.04,1.0476 H 8.84 Z"
           fill="#091540"
           id="path333" />
        <path
           d="M 17.68,36.119 H 26 v 7.3334 C 26,44.031 25.5344,44.5 24.96,44.5 h -7.28 z"
           fill="#091540"
           id="path335" />
        <path
           d="M 17.68,27.2143 H 26 v 8.3809 h -8.32 z"
           fill="#091540"
           id="path337" />
        <path
           d="m 17.68,0.5 h 7.28 C 25.5344,0.5 26,0.969035 26,1.54762 v 7.33333 h -8.32 z"
           fill="#091540"
           id="path339" />
        <path
           d="m 0,18.3095 h 8.32 v 8.381 H 0 Z"
           fill="#091540"
           id="path341" />
        <path
           d="m 0,27.2143 h 8.32 v 8.3809 H 0 Z"
           fill="#091540"
           id="path343" />
        <path
           d="M 0,36.119 H 8.32 V 44.5 H 1.04 C 0.465624,44.5 0,44.031 0,43.4524 Z"
           fill="#091540"
           id="path345" />
        <path
           d="m 8.84,36.119 h 8.32 V 44.5 H 8.84 Z"
           fill="#091540"
           id="path347" />
      </g>
    </g>
  </g>
  <path
     id="path26"
     d="m 32.560714,13.797408 v 16.804688 h 5.578124 c 1.34376,0 2.410159,-0.183581 3.199219,-0.550781 0.71875,-0.4062 1.3438,-1.003869 1.875,-1.792969 0.4766,-0.7265 0.714844,-1.585925 0.714844,-2.578125 0,-1.9375 -0.96879,-3.371091 -2.90625,-4.300781 0.59375,-0.46093 1.011726,-0.953123 1.253906,-1.476563 0.31246,-0.52344 0.46875,-1.097656 0.46875,-1.722656 0,-1.02343 -0.308591,-1.878906 -0.925781,-2.566406 -0.625,-0.71094 -1.433591,-1.21094 -2.425781,-1.5 -0.17187,-0.05469 -0.414063,-0.101565 -0.726563,-0.140625 -0.30469,-0.03906 -0.64844,-0.07031 -1.03125,-0.09375 -0.38281,-0.03125 -0.785161,-0.05079 -1.207031,-0.05859 -0.41407,-0.01564 -0.816411,-0.02344 -1.207031,-0.02344 z m 12.572265,0 4.945313,9.503907 v 7.300781 h 3.210937 V 22.984908 L 49.222823,14.969283 48.59001,13.797408 Z m 9.726563,0 -1.875,3.609375 1.722656,3.292969 3.539062,-6.902344 z m 7.74414,0 v 3.140625 h 1.523438 2.988281 V 30.602096 H 70.40837 V 16.938033 h 3.070312 1.523438 v -3.140625 z m 20.376953,0 c -1.2032,0 -2.242187,0.398443 -3.117187,1.195313 -0.8438,0.80469 -1.265625,1.769531 -1.265625,2.894531 0,0.75 0.273412,1.515625 0.820312,2.296875 0.2578,0.38281 0.66405,0.847661 1.21875,1.394531 0.5625,0.539061 1.269494,1.164021 2.121094,1.875 0.4453,0.375 0.816381,0.699257 1.113281,0.972657 0.2969,0.2656 0.523388,0.488268 0.679688,0.667969 0.2422,0.374999 0.363281,0.746081 0.363281,1.113281 0,0.375 -0.171825,0.722669 -0.515625,1.042969 -0.3828,0.2969 -0.828137,0.445312 -1.335937,0.445312 -0.9688,0 -1.835963,-0.71875 -2.601563,-2.15625 l -2.613281,1.558594 c 1.1719,2.3359 2.882812,3.503906 5.132812,3.503906 1.4843,0 2.6718,-0.421925 3.5625,-1.265625 0.8984,-0.8438 1.347657,-1.93745 1.347657,-3.28125 0,-1.3672 -0.546925,-2.578122 -1.640625,-3.632813 -0.1172,-0.09375 -0.296863,-0.25 -0.539063,-0.46875 -0.3672,-0.34375 -0.902369,-0.808591 -1.605469,-1.394531 -0.6016,-0.52344 -1.089843,-0.949224 -1.464843,-1.277344 -0.3672,-0.33594 -0.625038,-0.582031 -0.773438,-0.738281 -0.1485,-0.25 -0.222656,-0.492182 -0.222656,-0.726562 0,-0.30468 0.125,-0.55468 0.375,-0.75 0.1875,-0.19531 0.507737,-0.292969 0.960937,-0.292969 0.8125,0 1.605407,0.542966 2.378907,1.628906 l 2.308593,-2.003906 c -0.4375,-0.48438 -0.851587,-0.894539 -1.242187,-1.230469 -0.3907,-0.33594 -0.769519,-0.593747 -1.136719,-0.773437 -0.7109,-0.398439 -1.480494,-0.597657 -2.308594,-0.597657 z m 9.291016,0 v 16.804688 h 3.210937 V 23.72319 h 6.105472 v -3.046875 h -6.105472 v -3.75 h 6.105472 v -3.128907 z m 13.509769,0 4.94531,9.503907 v 7.300781 h 3.20898 v -7.617188 l -4.0664,-8.015625 -0.63086,-1.171875 z m 9.72461,0 -1.875,3.609375 1.72461,3.292969 3.53711,-6.902344 z m -79.746098,3.058594 h 1.675782 c 0.71094,0 1.257815,0.15625 1.640624,0.46875 0.35938,0.26562 0.539063,0.679688 0.539063,1.242188 0,0.55469 -0.179682,0.999997 -0.539063,1.335937 -0.429679,0.35938 -1.027348,0.539063 -1.792968,0.539063 h -1.523438 z m 0,6.398438 h 1.523438 c 1.24218,0 2.152349,0.207094 2.730468,0.621094 0.52344,0.453199 0.785157,1.027356 0.785157,1.722656 0,0.6172 -0.238284,1.109362 -0.714844,1.476562 -0.48438,0.3125 -1.394529,0.46875 -2.730469,0.46875 h -1.59375 z" />
  <path
     id="path28"
     d="m 1.039229,5.34e-4 c -0.574376,0 -1.039062,0.4682895 -1.039062,1.0468745 V 8.3813929 H 8.320479 V 5.34e-4 Z m 7.800781,0 v 8.3808589 h 8.320313 V 5.34e-4 Z m 8.839844,0 v 8.3808589 h 8.320313 V 1.0474085 c 0,-0.578585 -0.466616,-1.0468745 -1.041016,-1.0468745 z M 1.67e-4,8.9048304 V 17.28569 H 8.320479 V 8.9048304 Z m 8.839843,0 V 17.28569 h 8.320313 V 8.9048304 Z m 8.839844,0 V 17.28569 h 8.320313 V 8.9048304 Z M 1.67e-4,17.809127 v 8.38086 h 8.320312 v -8.38086 z m 8.839843,0 v 8.38086 h 16.119141 c 0.5744,0 1.041016,-0.468375 1.041016,-1.046875 v -6.285157 c 0,-0.5785 -0.466616,-1.048828 -1.041016,-1.048828 z M 1.67e-4,26.713424 v 8.38086 h 8.320312 v -8.38086 z m 8.839843,0 v 8.38086 h 8.320313 v -8.38086 z m 8.839844,0 v 8.38086 h 8.320313 v -8.38086 z M 1.67e-4,35.619674 v 7.332031 c 0,0.5786 0.464686,1.048829 1.039062,1.048829 h 7.28125 v -8.38086 z m 8.839843,0 v 8.38086 h 8.320313 v -8.38086 z m 8.839844,0 v 8.38086 h 7.279297 c 0.5744,0 1.041016,-0.470229 1.041016,-1.048829 v -7.332031 z" />
</svg>
