<svg width="20" height="20" viewBox="0 0 20 20" fill="none" xmlns="http://www.w3.org/2000/svg">
<path d="M0.714286 8.57143H19.2857C19.4752 8.57143 19.6568 8.49617 19.7908 8.36222C19.9247 8.22826 20 8.04658 20 7.85714V6.42857C20 6.23913 19.9247 6.05745 19.7908 5.9235C19.6568 5.78954 19.4752 5.71429 19.2857 5.71429H0.714286C0.524845 5.71429 0.343164 5.78954 0.209209 5.9235C0.0752549 6.05745 0 6.23913 0 6.42857L0 7.85714C0 8.04658 0.0752549 8.22826 0.209209 8.36222C0.343164 8.49617 0.524845 8.57143 0.714286 8.57143ZM19.2857 17.1429H0.714286C0.524845 17.1429 0.343164 17.2181 0.209209 17.3521C0.0752549 17.486 0 17.6677 0 17.8571L0 19.2857C0 19.4752 0.0752549 19.6568 0.209209 19.7908C0.343164 19.9247 0.524845 20 0.714286 20H19.2857C19.4752 20 19.6568 19.9247 19.7908 19.7908C19.9247 19.6568 20 19.4752 20 19.2857V17.8571C20 17.6677 19.9247 17.486 19.7908 17.3521C19.6568 17.2181 19.4752 17.1429 19.2857 17.1429ZM19.4272 1.74267e-07H7.71563C7.64039 -5.85331e-05 7.56588 0.0147164 7.49637 0.0434799C7.42685 0.0722434 7.36368 0.114431 7.31049 0.167629C7.25729 0.220827 7.2151 0.283992 7.18634 0.35351C7.15757 0.423028 7.1428 0.497535 7.14286 0.572768V2.28438C7.1428 2.35961 7.15757 2.43412 7.18634 2.50363C7.2151 2.57315 7.25729 2.63632 7.31049 2.68951C7.36368 2.74271 7.42685 2.7849 7.49637 2.81366C7.56588 2.84243 7.64039 2.8572 7.71563 2.85714H19.4272C19.5025 2.8572 19.577 2.84243 19.6465 2.81366C19.716 2.7849 19.7792 2.74271 19.8324 2.68951C19.8856 2.63632 19.9278 2.57315 19.9565 2.50363C19.9853 2.43412 20.0001 2.35961 20 2.28438V0.572768C20.0001 0.497535 19.9853 0.423028 19.9565 0.35351C19.9278 0.283992 19.8856 0.220827 19.8324 0.167629C19.7792 0.114431 19.716 0.0722434 19.6465 0.0434799C19.577 0.0147164 19.5025 -5.85331e-05 19.4272 1.74267e-07ZM19.4272 11.4286H7.71563C7.64039 11.4285 7.56588 11.4433 7.49637 11.4721C7.42685 11.5008 7.36368 11.543 7.31049 11.5962C7.25729 11.6494 7.2151 11.7126 7.18634 11.7821C7.15757 11.8516 7.1428 11.9261 7.14286 12.0013V13.7129C7.1428 13.7882 7.15757 13.8627 7.18634 13.9322C7.2151 14.0017 7.25729 14.0649 7.31049 14.1181C7.36368 14.1713 7.42685 14.2135 7.49637 14.2422C7.56588 14.271 7.64039 14.2858 7.71563 14.2857H19.4272C19.5025 14.2858 19.577 14.271 19.6465 14.2422C19.716 14.2135 19.7792 14.1713 19.8324 14.1181C19.8856 14.0649 19.9278 14.0017 19.9565 13.9322C19.9853 13.8627 20.0001 13.7882 20 13.7129V12.0013C20.0001 11.9261 19.9853 11.8516 19.9565 11.7821C19.9278 11.7126 19.8856 11.6494 19.8324 11.5962C19.7792 11.543 19.716 11.5008 19.6465 11.4721C19.577 11.4433 19.5025 11.4285 19.4272 11.4286Z" fill="black"/>
</svg>
