<svg width="157" height="144" viewBox="0 0 157 144" fill="none" xmlns="http://www.w3.org/2000/svg">
<mask id="mask0_2088_21921" style="mask-type:alpha" maskUnits="userSpaceOnUse" x="17" y="0" width="96" height="96">
<rect x="17" width="96" height="96" fill="#D9D9D9"/>
</mask>
<g mask="url(#mask0_2088_21921)">
<path d="M44.1953 82.8031C42.462 82.8031 41.0286 82.2365 39.8953 81.1031C38.762 79.9698 38.1953 78.5365 38.1953 76.8031V19.2031C38.1953 17.4698 38.762 16.0365 39.8953 14.9031C41.0286 13.7698 42.462 13.2031 44.1953 13.2031L75.5953 13.2031L91.7953 29.4031V76.8031C91.7953 78.5365 91.2286 79.9698 90.0953 81.1031C88.962 82.2365 87.5286 82.8031 85.7953 82.8031H44.1953ZM74.1953 30.8031V16.0031H44.1953C43.3953 16.0031 42.662 16.3365 41.9953 17.0031C41.3286 17.6698 40.9953 18.4031 40.9953 19.2031V76.8031C40.9953 77.6031 41.3286 78.3365 41.9953 79.0031C42.662 79.6698 43.3953 80.0031 44.1953 80.0031H85.7953C86.5953 80.0031 87.3286 79.6698 87.9953 79.0031C88.662 78.3365 88.9953 77.6031 88.9953 76.8031V30.8031H74.1953Z" fill="#2B2B2B"/>
</g>
<mask id="mask1_2088_21921" style="mask-type:alpha" maskUnits="userSpaceOnUse" x="45" y="48" width="96" height="96">
<rect x="45" y="48" width="96" height="96" fill="#D9D9D9"/>
</mask>
<g mask="url(#mask1_2088_21921)">
<path d="M72.1953 130.803C70.462 130.803 69.0286 130.236 67.8953 129.103C66.762 127.97 66.1953 126.536 66.1953 124.803V67.2031C66.1953 65.4698 66.762 64.0365 67.8953 62.9031C69.0286 61.7698 70.462 61.2031 72.1953 61.2031H103.595L119.795 77.4031V124.803C119.795 126.536 119.229 127.97 118.095 129.103C116.962 130.236 115.529 130.803 113.795 130.803H72.1953ZM102.195 78.8031V64.0031H72.1953C71.3953 64.0031 70.662 64.3365 69.9953 65.0031C69.3286 65.6698 68.9953 66.4031 68.9953 67.2031V124.803C68.9953 125.603 69.3286 126.336 69.9953 127.003C70.662 127.67 71.3953 128.003 72.1953 128.003H113.795C114.595 128.003 115.329 127.67 115.995 127.003C116.662 126.336 116.995 125.603 116.995 124.803V78.8031H102.195Z" fill="#2B2B2B"/>
</g>
<mask id="mask2_2088_21921" style="mask-type:alpha" maskUnits="userSpaceOnUse" x="81" y="93" width="24" height="24">
<rect x="81" y="93" width="24" height="24" rx="1" fill="#D9D9D9"/>
</mask>
<g mask="url(#mask2_2088_21921)">
<path d="M84.7339 113.5C83.9637 113.5 83.4826 112.666 83.8683 111.999L92.2594 97.496C92.6445 96.8304 93.6055 96.8304 93.9906 97.496L102.382 111.999C102.767 112.666 102.286 113.5 101.516 113.5H84.7339ZM86.4474 110.498C86.0603 111.164 86.5412 112 87.3122 112H98.9378C99.7088 112 100.19 111.164 99.8026 110.498L93.9897 100.489C93.6043 99.8252 92.6457 99.8252 92.2603 100.489L86.4474 110.498ZM93.125 110.8C93.3583 110.8 93.55 110.725 93.7 110.575C93.85 110.425 93.925 110.233 93.925 110C93.925 109.767 93.85 109.575 93.7 109.425C93.55 109.275 93.3583 109.2 93.125 109.2C92.8917 109.2 92.7 109.275 92.55 109.425C92.4 109.575 92.325 109.767 92.325 110C92.325 110.233 92.4 110.425 92.55 110.575C92.7 110.725 92.8917 110.8 93.125 110.8ZM92.375 107.45C92.375 107.864 92.7108 108.2 93.125 108.2C93.5392 108.2 93.875 107.864 93.875 107.45V103.95C93.875 103.536 93.5392 103.2 93.125 103.2C92.7108 103.2 92.375 103.536 92.375 103.95V107.45Z" fill="#E62F2F"/>
</g>
<mask id="mask3_2088_21921" style="mask-type:alpha" maskUnits="userSpaceOnUse" x="133" y="77" width="24" height="24">
<rect x="133" y="77" width="24" height="24" fill="#D9D9D9"/>
</mask>
<g mask="url(#mask3_2088_21921)">
<path d="M142.925 92L145 90.4L147.025 91.95L146.25 89.45L148.375 87.775H145.825L145 85.225L144.175 87.775H141.625L143.7 89.45L142.925 92ZM137 96C136.733 96 136.5 95.9 136.3 95.7C136.1 95.5 136 95.2667 136 95V91.8C136.583 91.5833 137.063 91.2207 137.438 90.712C137.813 90.204 138 89.6333 138 89C138 88.3667 137.813 87.7957 137.438 87.287C137.063 86.779 136.583 86.4167 136 86.2V83C136 82.7333 136.1 82.5 136.3 82.3C136.5 82.1 136.733 82 137 82H153C153.267 82 153.5 82.1 153.7 82.3C153.9 82.5 154 82.7333 154 83V86.2C153.417 86.4167 152.937 86.779 152.562 87.287C152.187 87.7957 152 88.3667 152 89C152 89.6333 152.187 90.204 152.562 90.712C152.937 91.2207 153.417 91.5833 154 91.8V95C154 95.2667 153.9 95.5 153.7 95.7C153.5 95.9 153.267 96 153 96H137ZM137 95H153V92.45C152.383 92.0833 151.896 91.596 151.538 90.988C151.179 90.3793 151 89.7167 151 89C151 88.2833 151.179 87.6207 151.538 87.012C151.896 86.404 152.383 85.9167 153 85.55V83H137V85.55C137.617 85.9167 138.104 86.404 138.463 87.012C138.821 87.6207 139 88.2833 139 89C139 89.7167 138.821 90.3793 138.463 90.988C138.104 91.596 137.617 92.0833 137 92.45V95Z" fill="#E62F2F"/>
</g>
<mask id="mask4_2088_21921" style="mask-type:alpha" maskUnits="userSpaceOnUse" x="109" y="21" width="24" height="24">
<rect x="109" y="21" width="24" height="24" fill="#D9D9D9"/>
</mask>
<g mask="url(#mask4_2088_21921)">
<path d="M128.928 43.05L125.228 39.35C125.078 39.6667 124.953 40 124.853 40.35C124.753 40.7 124.703 41.0833 124.703 41.5H123.203C123.203 40.9 123.278 40.3293 123.428 39.788C123.578 39.246 123.811 38.725 124.128 38.225L122.328 36.425C121.845 37.1083 121.453 37.879 121.153 38.737C120.853 39.5957 120.703 40.5167 120.703 41.5H119.203C119.203 40.3333 119.378 39.2333 119.728 38.2C120.078 37.1667 120.586 36.2167 121.253 35.35L118.653 32.75C117.753 33.4167 116.791 33.925 115.766 34.275C114.741 34.625 113.653 34.8 112.503 34.8V33.3C113.436 33.3 114.336 33.1583 115.203 32.875C116.07 32.5917 116.861 32.1917 117.578 31.675L115.778 29.875C115.295 30.1917 114.778 30.425 114.228 30.575C113.678 30.725 113.103 30.8 112.503 30.8V29.3C112.903 29.3 113.282 29.25 113.641 29.15C113.999 29.05 114.328 28.925 114.628 28.775L110.953 25.05L112.003 24L130.003 42L128.928 43.05ZM127.853 37L126.678 35.875C127.078 35.6417 127.524 35.471 128.016 35.363C128.507 35.2543 129.003 35.2 129.503 35.2V36.7C129.203 36.7 128.916 36.7207 128.641 36.762C128.366 36.804 128.103 36.8833 127.853 37ZM124.853 34.025L123.753 32.95C124.62 32.3667 125.532 31.929 126.491 31.637C127.449 31.3457 128.453 31.2 129.503 31.2V32.7C128.62 32.7 127.795 32.8167 127.028 33.05C126.261 33.2833 125.536 33.6083 124.853 34.025ZM121.053 30.225L119.978 29.125C120.411 28.4417 120.741 27.7123 120.966 26.937C121.191 26.1623 121.303 25.35 121.303 24.5H122.803C122.803 25.5667 122.653 26.579 122.353 27.537C122.053 28.4957 121.62 29.3917 121.053 30.225ZM118.153 27.3L117.003 26.175C117.103 25.9083 117.178 25.6373 117.228 25.362C117.278 25.0873 117.303 24.8 117.303 24.5H118.803C118.803 25.0167 118.749 25.5083 118.64 25.975C118.532 26.4417 118.37 26.8833 118.153 27.3Z" fill="#E62F2F"/>
</g>
<mask id="mask5_2088_21921" style="mask-type:alpha" maskUnits="userSpaceOnUse" x="17" y="96" width="24" height="24">
<rect x="17" y="96" width="24" height="24" fill="#D9D9D9"/>
</mask>
<g mask="url(#mask5_2088_21921)">
<path d="M19.1031 107.101L18.0781 106.076C19.4781 104.676 21.1075 103.571 22.9661 102.763C24.8241 101.955 26.8365 101.551 29.0031 101.551C29.3198 101.551 29.6658 101.559 30.0411 101.576C30.4158 101.592 30.7281 101.617 30.9781 101.651L30.2781 103.101C30.0448 103.067 29.8281 103.042 29.6281 103.026C29.4281 103.009 29.2198 103.001 29.0031 103.001C27.0698 103.001 25.2571 103.363 23.5651 104.088C21.8738 104.813 20.3865 105.817 19.1031 107.101ZM23.3531 111.351L22.3281 110.326C23.0781 109.576 23.9325 108.967 24.8911 108.501C25.8491 108.034 26.9698 107.717 28.2531 107.551L27.5031 109.151C26.6365 109.317 25.8491 109.605 25.1411 110.013C24.4325 110.421 23.8365 110.867 23.3531 111.351ZM28.5281 115.301C28.1781 115.184 27.9198 114.959 27.7531 114.626C27.5865 114.292 27.5865 113.942 27.7531 113.576L32.8281 102.451C32.8781 102.384 32.9405 102.33 33.0151 102.288C33.0905 102.246 33.1698 102.242 33.2531 102.276C33.3531 102.309 33.4281 102.363 33.4781 102.439C33.5281 102.513 33.5365 102.601 33.5031 102.701L30.2531 114.451C30.1365 114.834 29.9158 115.105 29.5911 115.263C29.2658 115.421 28.9115 115.434 28.5281 115.301ZM34.6531 111.351C34.4865 111.184 34.3075 111.017 34.1161 110.851C33.9241 110.684 33.7198 110.534 33.5031 110.401L33.9031 108.901C34.2198 109.101 34.5321 109.326 34.8401 109.576C35.1488 109.826 35.4281 110.076 35.6781 110.326L34.6531 111.351ZM38.9031 107.101C38.4031 106.601 37.8325 106.113 37.1911 105.638C36.5491 105.163 35.8698 104.751 35.1531 104.401L35.5281 102.976C36.3948 103.392 37.1781 103.846 37.8781 104.338C38.5781 104.83 39.2615 105.409 39.9281 106.076L38.9031 107.101Z" fill="#E62F2F"/>
</g>
<mask id="mask6_2088_21921" style="mask-type:alpha" maskUnits="userSpaceOnUse" x="0" y="36" width="24" height="24">
<rect y="36" width="24" height="24" fill="#D9D9D9"/>
</mask>
<g mask="url(#mask6_2088_21921)">
<path d="M5.67656 55.9C4.7599 55.0167 4.03923 53.9873 3.51456 52.812C2.98923 51.6373 2.72656 50.3667 2.72656 49C2.72656 47.6833 2.97656 46.4457 3.47656 45.287C3.97656 44.129 4.65156 43.125 5.50156 42.275C6.35156 41.425 7.35556 40.75 8.51356 40.25C9.67223 39.75 10.9099 39.5 12.2266 39.5C13.9432 39.5 15.5059 39.9083 16.9146 40.725C18.3226 41.5417 19.4516 42.6333 20.3016 44H18.4766C17.7266 43.0833 16.8142 42.354 15.7396 41.812C14.6642 41.2707 13.4932 41 12.2266 41C9.99323 41 8.10156 41.775 6.55156 43.325C5.00156 44.875 4.22656 46.7667 4.22656 49C4.22656 50.15 4.45156 51.225 4.90156 52.225C5.35156 53.225 5.96823 54.0917 6.75156 54.825L5.67656 55.9ZM8.50156 53.075C7.95156 52.5583 7.51823 51.954 7.20156 51.262C6.8849 50.5707 6.72656 49.8167 6.72656 49C6.72656 47.4667 7.2599 46.1667 8.32656 45.1C9.39323 44.0333 10.6932 43.5 12.2266 43.5C13.7432 43.5 15.0392 44.0333 16.1146 45.1C17.1892 46.1667 17.7266 47.4667 17.7266 49C17.7266 49.8167 17.5642 50.575 17.2396 51.275C16.9142 51.975 16.4849 52.575 15.9516 53.075L14.8766 52C15.2932 51.6167 15.6226 51.1667 15.8646 50.65C16.1059 50.1333 16.2266 49.5833 16.2266 49C16.2266 47.9 15.8349 46.9583 15.0516 46.175C14.2682 45.3917 13.3266 45 12.2266 45C11.1266 45 10.1849 45.3917 9.40156 46.175C8.61823 46.9583 8.22656 47.9 8.22656 49C8.22656 49.6 8.34756 50.154 8.58956 50.662C8.8309 51.1707 9.1599 51.6167 9.57656 52L8.50156 53.075ZM12.2266 50.5C11.8099 50.5 11.4559 50.354 11.1646 50.062C10.8726 49.7707 10.7266 49.4167 10.7266 49C10.7266 48.5833 10.8726 48.2293 11.1646 47.938C11.4559 47.646 11.8099 47.5 12.2266 47.5C12.6266 47.5 12.9766 47.646 13.2766 47.938C13.5766 48.2293 13.7266 48.5833 13.7266 49C13.7266 49.4167 13.5766 49.7707 13.2766 50.062C12.9766 50.354 12.6266 50.5 12.2266 50.5ZM20.4766 55.375C20.2432 55.375 20.0516 55.2957 19.9016 55.137C19.7516 54.979 19.6766 54.7833 19.6766 54.55C19.6766 54.3167 19.7516 54.125 19.9016 53.975C20.0516 53.825 20.2432 53.75 20.4766 53.75C20.7099 53.75 20.9016 53.825 21.0516 53.975C21.2016 54.125 21.2766 54.3167 21.2766 54.55C21.2766 54.7833 21.2016 54.979 21.0516 55.137C20.9016 55.2957 20.7099 55.375 20.4766 55.375ZM19.7266 51.875V46H21.2266V51.875H19.7266Z" fill="#E62F2F"/>
</g>
<mask id="mask7_2088_21921" style="mask-type:alpha" maskUnits="userSpaceOnUse" x="53" y="33" width="24" height="24">
<rect x="53" y="33" width="24" height="24" fill="#D9D9D9"/>
</mask>
<g mask="url(#mask7_2088_21921)">
<path d="M61.4 49.65L65 46.05L68.6 49.65L69.65 48.6L66.05 45L69.65 41.4L68.6 40.35L65 43.95L61.4 40.35L60.35 41.4L63.95 45L60.35 48.6L61.4 49.65ZM65 54.5C63.6833 54.5 62.446 54.25 61.288 53.75C60.1293 53.25 59.125 52.575 58.275 51.725C57.425 50.875 56.75 49.8707 56.25 48.712C55.75 47.554 55.5 46.3167 55.5 45C55.5 43.6833 55.75 42.4457 56.25 41.287C56.75 40.129 57.425 39.125 58.275 38.275C59.125 37.425 60.1293 36.75 61.288 36.25C62.446 35.75 63.6833 35.5 65 35.5C66.3167 35.5 67.5543 35.75 68.713 36.25C69.871 36.75 70.875 37.425 71.725 38.275C72.575 39.125 73.25 40.129 73.75 41.287C74.25 42.4457 74.5 43.6833 74.5 45C74.5 46.3167 74.25 47.554 73.75 48.712C73.25 49.8707 72.575 50.875 71.725 51.725C70.875 52.575 69.871 53.25 68.713 53.75C67.5543 54.25 66.3167 54.5 65 54.5ZM65 53C67.2333 53 69.125 52.225 70.675 50.675C72.225 49.125 73 47.2333 73 45C73 42.7667 72.225 40.875 70.675 39.325C69.125 37.775 67.2333 37 65 37C62.7667 37 60.875 37.775 59.325 39.325C57.775 40.875 57 42.7667 57 45C57 47.2333 57.775 49.125 59.325 50.675C60.875 52.225 62.7667 53 65 53Z" fill="#E62F2F"/>
</g>
</svg>
