<svg width="349" height="198" viewBox="0 0 349 198" fill="none" xmlns="http://www.w3.org/2000/svg">
<path d="M119.75 172H25.25C23.8576 172 22.5223 171.359 21.5377 170.218C20.5531 169.077 20 167.53 20 165.917V32.0833C20 30.4699 20.5531 28.9226 21.5377 27.7818C22.5223 26.6409 23.8576 26 25.25 26H88.25L125 68.5833V165.917C125 167.53 124.447 169.077 123.462 170.218C122.478 171.359 121.142 172 119.75 172Z" fill="#74C0FC" stroke="#61A0D2" stroke-linecap="round" stroke-linejoin="round"/>
<path d="M87.8789 26V68.7571H125" fill="#D1EAFE"/>
<path d="M87.8789 26V68.7571H125" stroke="white" stroke-linecap="round" stroke-linejoin="round"/>
<path d="M174.266 197.984C185.864 197.984 195.266 188.582 195.266 176.984C195.266 165.386 185.864 155.984 174.266 155.984C162.668 155.984 153.266 165.386 153.266 176.984C153.266 188.582 162.668 197.984 174.266 197.984Z" fill="#3A607E"/>
<path d="M174.73 174.367L182.16 166.938C182.37 166.729 182.709 166.729 182.918 166.938C184.382 168.402 184.382 170.777 182.918 172.241L177.761 177.398L178.871 178.508C179.358 178.315 179.889 178.209 180.445 178.209C182.812 178.209 184.73 180.128 184.73 182.495C184.73 184.862 182.812 186.781 180.445 186.781C178.078 186.781 176.159 184.862 176.159 182.495C176.159 182.292 176.173 182.094 176.201 181.899L174.73 180.429L173.26 181.899C173.288 182.094 173.302 182.293 173.302 182.495C173.302 184.862 171.383 186.781 169.016 186.781C166.649 186.781 164.73 184.862 164.73 182.495C164.73 180.128 166.649 178.209 169.016 178.209C169.572 178.209 170.103 178.315 170.59 178.508L171.7 177.398L166.543 172.241C165.079 170.777 165.079 168.402 166.543 166.938C166.752 166.729 167.091 166.729 167.301 166.938L174.73 174.367ZM179.016 182.495C179.016 183.283 179.657 183.924 180.445 183.924C181.232 183.924 181.873 183.283 181.873 182.495C181.873 181.708 181.232 181.066 180.445 181.066C179.657 181.066 179.016 181.708 179.016 182.495ZM167.588 182.495C167.588 183.283 168.229 183.924 169.016 183.924C169.804 183.924 170.445 183.283 170.445 182.495C170.445 181.708 169.804 181.066 169.016 181.066C168.229 181.066 167.588 181.708 167.588 182.495Z" fill="white"/>
<path d="M323.75 172H229.25C227.858 172 226.522 171.359 225.538 170.218C224.553 169.077 224 167.53 224 165.917V32.0833C224 30.4699 224.553 28.9226 225.538 27.7818C226.522 26.6409 227.858 26 229.25 26H292.25L329 68.5833V165.917C329 167.53 328.447 169.077 327.462 170.218C326.478 171.359 325.142 172 323.75 172Z" fill="#61A0D2" stroke="#61A0D2" stroke-linecap="round" stroke-linejoin="round"/>
<path d="M291.879 26V68.7571H329" fill="#D1EAFE"/>
<path d="M291.879 26V68.7571H329" stroke="white" stroke-linecap="round" stroke-linejoin="round"/>
<line x1="175.5" y1="7.00307" x2="174.5" y2="170.003" stroke="#5B6380" stroke-dasharray="2 2"/>
<path d="M56.82 59L63.06 45H66.26L72.52 59H69.12L64 46.64H65.28L60.14 59H56.82ZM59.94 56L60.8 53.54H68L68.88 56H59.94Z" fill="#2B2B2B"/>
<path d="M266.66 59V45H273.5C275.26 45 276.58 45.3333 277.46 46C278.353 46.6667 278.8 47.5467 278.8 48.64C278.8 49.3733 278.62 50.0133 278.26 50.56C277.9 51.0933 277.407 51.5067 276.78 51.8C276.153 52.0933 275.433 52.24 274.62 52.24L275 51.42C275.88 51.42 276.66 51.5667 277.34 51.86C278.02 52.14 278.547 52.56 278.92 53.12C279.307 53.68 279.5 54.3667 279.5 55.18C279.5 56.38 279.027 57.32 278.08 58C277.133 58.6667 275.74 59 273.9 59H266.66ZM269.88 56.56H273.66C274.5 56.56 275.133 56.4267 275.56 56.16C276 55.88 276.22 55.44 276.22 54.84C276.22 54.2533 276 53.82 275.56 53.54C275.133 53.2467 274.5 53.1 273.66 53.1H269.64V50.74H273.1C273.887 50.74 274.487 50.6067 274.9 50.34C275.327 50.06 275.54 49.64 275.54 49.08C275.54 48.5333 275.327 48.1267 274.9 47.86C274.487 47.58 273.887 47.44 273.1 47.44H269.88V56.56Z" fill="#2B2B2B"/>
<mask id="mask0_1526_10270" style="mask-type:alpha" maskUnits="userSpaceOnUse" x="59" y="132" width="24" height="24">
<rect x="59" y="132" width="24" height="24" fill="#D9D9D9"/>
</mask>
<g mask="url(#mask0_1526_10270)">
<path d="M68 150L62 144L68 138L69.4 139.4L65.8 143H80V145H65.8L69.4 148.6L68 150Z" fill="#2B2B2B"/>
</g>
<mask id="mask1_1526_10270" style="mask-type:alpha" maskUnits="userSpaceOnUse" x="268" y="132" width="24" height="24">
<rect width="24" height="24" transform="matrix(-1 0 0 1 292 132)" fill="#D9D9D9"/>
</mask>
<g mask="url(#mask1_1526_10270)">
<path d="M283 150L289 144L283 138L281.6 139.4L285.2 143H271V145H285.2L281.6 148.6L283 150Z" fill="#2B2B2B"/>
</g>
</svg>
