<svg width="43" height="42" viewBox="0 0 43 42" fill="none" xmlns="http://www.w3.org/2000/svg">
<mask id="mask0_1526_10315" style="mask-type:alpha" maskUnits="userSpaceOnUse" x="0" y="0" width="43" height="42">
<rect x="0.5" width="42" height="42" fill="#D9D9D9"/>
</mask>
<g mask="url(#mask0_1526_10315)">
<path d="M9.775 35.875C8.9 35.875 8.15625 35.5688 7.54375 34.9563C6.93125 34.3438 6.625 33.6 6.625 32.725V9.275C6.625 8.4 6.93125 7.65625 7.54375 7.04375C8.15625 6.43125 8.9 6.125 9.775 6.125H33.225C34.1 6.125 34.8438 6.43125 35.4563 7.04375C36.0688 7.65625 36.375 8.4 36.375 9.275V32.725C36.375 33.6 36.0688 34.3438 35.4563 34.9563C34.8438 35.5688 34.1 35.875 33.225 35.875H9.775ZM9.775 33.25H33.225C33.3708 33.25 33.4951 33.1992 33.5977 33.0977C33.6992 32.9951 33.75 32.8708 33.75 32.725V12.25H9.25V32.725C9.25 32.8708 9.30133 32.9951 9.404 33.0977C9.5055 33.1992 9.62917 33.25 9.775 33.25ZM21.5 28.875C19.3417 28.875 17.4167 28.3062 15.725 27.1687C14.0333 26.0312 12.7792 24.5583 11.9625 22.75C12.7792 20.9417 14.0333 19.4688 15.725 18.3313C17.4167 17.1938 19.3417 16.625 21.5 16.625C23.6583 16.625 25.5833 17.1938 27.275 18.3313C28.9667 19.4688 30.2208 20.9417 31.0375 22.75C30.2208 24.5583 28.9667 26.0312 27.275 27.1687C25.5833 28.3062 23.6583 28.875 21.5 28.875ZM21.5 26.775C23.0167 26.775 24.4097 26.425 25.679 25.725C26.9472 25.025 27.975 24.0333 28.7625 22.75C27.975 21.4667 26.9472 20.475 25.679 19.775C24.4097 19.075 23.0167 18.725 21.5 18.725C19.9833 18.725 18.5909 19.075 17.3228 19.775C16.0534 20.475 15.025 21.4667 14.2375 22.75C15.025 24.0333 16.0534 25.025 17.3228 25.725C18.5909 26.425 19.9833 26.775 21.5 26.775ZM21.5 25.025C20.8583 25.025 20.3187 24.8062 19.8812 24.3687C19.4437 23.9312 19.225 23.3917 19.225 22.75C19.225 22.1083 19.4437 21.5687 19.8812 21.1312C20.3187 20.6937 20.8583 20.475 21.5 20.475C22.1417 20.475 22.6812 20.6937 23.1187 21.1312C23.5562 21.5687 23.775 22.1083 23.775 22.75C23.775 23.3917 23.5562 23.9312 23.1187 24.3687C22.6812 24.8062 22.1417 25.025 21.5 25.025Z" fill="#AA8500"/>
</g>
</svg>
