<svg width="183" height="197" viewBox="0 0 183 197" fill="none" xmlns="http://www.w3.org/2000/svg">
<g filter="url(#filter0_d_1526_10177)">
<rect width="83" height="97" transform="translate(50 45)" fill="white"/>
<path d="M93.5833 65.1877V56.3335H80.5625C79.6966 56.3335 79 57.0301 79 57.896V88.1043C79 88.9702 79.6966 89.6668 80.5625 89.6668H102.438C103.303 89.6668 104 88.9702 104 88.1043V66.7502H95.1458C94.2865 66.7502 93.5833 66.047 93.5833 65.1877ZM87.3333 74.5627C87.3333 74.8504 87.1003 75.0835 86.8125 75.0835H86.2917C85.7161 75.0835 85.25 75.5496 85.25 76.1252V78.2085C85.25 78.784 85.7161 79.2502 86.2917 79.2502H86.8125C87.1003 79.2502 87.3333 79.4832 87.3333 79.771V80.8127C87.3333 81.1004 87.1003 81.3335 86.8125 81.3335H86.2917C84.5658 81.3335 83.1667 79.9344 83.1667 78.2085V76.1252C83.1667 74.3993 84.5658 73.0002 86.2917 73.0002H86.8125C87.1003 73.0002 87.3333 73.2332 87.3333 73.521V74.5627ZM90.2155 81.3335H89.4167C89.1289 81.3335 88.8958 81.1004 88.8958 80.8127V79.771C88.8958 79.4832 89.1289 79.2502 89.4167 79.2502H90.2155C90.6029 79.2502 90.8932 79.0223 90.8932 78.8192C90.8932 78.7345 90.8444 78.646 90.7552 78.5692L89.3301 77.3472C88.7786 76.8771 88.4622 76.2091 88.4622 75.5151C88.4622 74.1284 89.7005 73.0008 91.2233 73.0008H92.0208C92.3086 73.0008 92.5417 73.2339 92.5417 73.5216V74.5633C92.5417 74.8511 92.3086 75.0841 92.0208 75.0841H91.222C90.8346 75.0841 90.5443 75.312 90.5443 75.5151C90.5443 75.5998 90.5931 75.6883 90.6823 75.7651L92.1074 76.9871C92.6589 77.4572 92.9753 78.1252 92.9753 78.8192C92.9759 80.2052 91.7383 81.3335 90.2155 81.3335ZM95.6667 73.521V74.8752C95.6667 76.1948 96.0378 77.4904 96.7083 78.5783C97.3789 77.491 97.75 76.1948 97.75 74.8752V73.521C97.75 73.2332 97.9831 73.0002 98.2708 73.0002H99.3125C99.6003 73.0002 99.8333 73.2332 99.8333 73.521V74.8752C99.8333 77.1851 98.9948 79.3602 97.4714 81.0008C97.2747 81.2124 96.998 81.3335 96.7083 81.3335C96.4186 81.3335 96.1419 81.2124 95.9453 81.0008C94.4219 79.3602 93.5833 77.1851 93.5833 74.8752V73.521C93.5833 73.2332 93.8164 73.0002 94.1042 73.0002H95.1458C95.4336 73.0002 95.6667 73.2332 95.6667 73.521ZM103.544 63.1694L97.1706 56.7892C96.8776 56.4963 96.4805 56.3335 96.0638 56.3335H95.6667V64.6668H104V64.2697C104 63.8595 103.837 63.4624 103.544 63.1694Z" fill="#74C0FC"/>
<rect x="58.25" y="101.25" width="66.5" height="6.5" rx="3.25" fill="#0DC00A"/>
<rect x="58.25" y="101.25" width="66.5" height="6.5" rx="3.25" stroke="#808080" stroke-width="0.5"/>
<path d="M70.382 130.126C69.9527 130.126 69.5327 130.079 69.122 129.986C68.7113 129.893 68.324 129.757 67.96 129.58C67.6053 129.403 67.2927 129.188 67.022 128.936L67.456 128.04C67.9133 128.404 68.38 128.675 68.856 128.852C69.332 129.02 69.8407 129.104 70.382 129.104C71.0913 129.104 71.6467 128.913 72.048 128.53C72.4493 128.147 72.65 127.643 72.65 127.018C72.65 126.374 72.4587 125.847 72.076 125.436C71.6933 125.025 71.1613 124.82 70.48 124.82C69.9947 124.82 69.5607 124.918 69.178 125.114C68.7953 125.301 68.464 125.595 68.184 125.996H67.344V120.13H73.196V121.11H68.464V125.044H68.156C68.408 124.652 68.7533 124.353 69.192 124.148C69.64 123.933 70.144 123.826 70.704 123.826C71.3387 123.826 71.8847 123.957 72.342 124.218C72.8087 124.479 73.168 124.843 73.42 125.31C73.672 125.777 73.798 126.323 73.798 126.948C73.798 127.573 73.658 128.129 73.378 128.614C73.1073 129.09 72.7153 129.463 72.202 129.734C71.698 129.995 71.0913 130.126 70.382 130.126ZM78.6645 130.126C77.5445 130.126 76.6859 129.692 76.0885 128.824C75.4912 127.956 75.1925 126.701 75.1925 125.058C75.1925 123.406 75.4912 122.151 76.0885 121.292C76.6859 120.433 77.5445 120.004 78.6645 120.004C79.7939 120.004 80.6525 120.433 81.2405 121.292C81.8379 122.151 82.1365 123.401 82.1365 125.044C82.1365 126.696 81.8379 127.956 81.2405 128.824C80.6432 129.692 79.7845 130.126 78.6645 130.126ZM78.6645 129.118C79.4485 129.118 80.0319 128.787 80.4145 128.124C80.7972 127.461 80.9885 126.435 80.9885 125.044C80.9885 123.644 80.7972 122.622 80.4145 121.978C80.0319 121.325 79.4485 120.998 78.6645 120.998C77.8899 120.998 77.3065 121.325 76.9145 121.978C76.5319 122.631 76.3405 123.653 76.3405 125.044C76.3405 126.435 76.5319 127.461 76.9145 128.124C77.3065 128.787 77.8899 129.118 78.6645 129.118ZM83.8111 130V128.572H85.2391V130H83.8111ZM91.5886 130V127.858H86.8846V127.018L91.7706 120.13H92.7226V126.92H94.2346V127.858H92.7226V130H91.5886ZM91.5886 126.92V121.502H91.8966L87.8366 127.214V126.92H91.5886ZM99.6015 130V120.13H100.764V124.61H100.792L105.524 120.13H107.008L101.562 125.226L101.576 124.638L107.4 130H105.874L100.792 125.352H100.764V130H99.6015ZM108.545 130V120.13H112.493C113.538 120.13 114.345 120.354 114.915 120.802C115.484 121.25 115.769 121.885 115.769 122.706C115.769 123.322 115.582 123.835 115.209 124.246C114.845 124.657 114.336 124.927 113.683 125.058V124.862C114.411 124.946 114.98 125.198 115.391 125.618C115.811 126.029 116.021 126.584 116.021 127.284C116.021 128.161 115.727 128.833 115.139 129.3C114.56 129.767 113.739 130 112.675 130H108.545ZM109.679 129.062H112.563C113.272 129.062 113.832 128.927 114.243 128.656C114.663 128.376 114.873 127.914 114.873 127.27C114.873 126.617 114.663 126.155 114.243 125.884C113.832 125.604 113.272 125.464 112.563 125.464H109.679V129.062ZM109.679 124.54H112.325C113.09 124.54 113.664 124.391 114.047 124.092C114.429 123.793 114.621 123.364 114.621 122.804C114.621 122.225 114.429 121.791 114.047 121.502C113.664 121.203 113.09 121.054 112.325 121.054H109.679V124.54Z" fill="#2B2B2B"/>
</g>
<defs>
<filter id="filter0_d_1526_10177" x="0" y="0" width="183" height="197" filterUnits="userSpaceOnUse" color-interpolation-filters="sRGB">
<feFlood flood-opacity="0" result="BackgroundImageFix"/>
<feColorMatrix in="SourceAlpha" type="matrix" values="0 0 0 0 0 0 0 0 0 0 0 0 0 0 0 0 0 0 127 0" result="hardAlpha"/>
<feOffset dy="5"/>
<feGaussianBlur stdDeviation="25"/>
<feComposite in2="hardAlpha" operator="out"/>
<feColorMatrix type="matrix" values="0 0 0 0 0 0 0 0 0 0.262745 0 0 0 0 0.396078 0 0 0 0.08 0"/>
<feBlend mode="normal" in2="BackgroundImageFix" result="effect1_dropShadow_1526_10177"/>
<feBlend mode="normal" in="SourceGraphic" in2="effect1_dropShadow_1526_10177" result="shape"/>
</filter>
</defs>
</svg>
