<svg width="42" height="42" viewBox="0 0 42 42" fill="none" xmlns="http://www.w3.org/2000/svg">
<mask id="mask0_2075_22887" style="mask-type:alpha" maskUnits="userSpaceOnUse" x="0" y="0" width="42" height="42">
<rect width="42" height="42" fill="#D9D9D9"/>
</mask>
<g mask="url(#mask0_2075_22887)">
<path d="M11.375 34.1266C8.95417 34.1266 6.89033 33.2877 5.1835 31.6101C3.47783 29.9336 2.625 27.8849 2.625 25.4641C2.625 23.3057 3.31042 21.3953 4.68125 19.7328C6.05208 18.0703 7.80208 17.0932 9.93125 16.8016C10.3104 14.6724 11.4701 12.6745 13.4103 10.8078C15.3493 8.94115 17.4417 8.00781 19.6875 8.00781C20.4167 8.00781 21.0362 8.27031 21.546 8.79531C22.057 9.32031 22.3125 9.93281 22.3125 10.6328V22.3141L25.5062 19.1641L27.3438 21.0016L21 27.3453L14.6562 21.0016L16.4938 19.1641L19.6875 22.3141V10.6328C17.4708 10.8953 15.6771 11.9161 14.3063 13.6953C12.9354 15.4745 12.25 17.3266 12.25 19.2516H11.375C9.68333 19.2516 8.23958 19.8495 7.04375 21.0453C5.84792 22.2411 5.25 23.6849 5.25 25.3766C5.25 27.0682 5.84792 28.512 7.04375 29.7078C8.23958 30.9036 9.68333 31.5016 11.375 31.5016H32.375C33.6 31.5016 34.6354 31.0786 35.4812 30.2328C36.3271 29.387 36.75 28.3516 36.75 27.1266C36.75 25.9016 36.3271 24.8661 35.4812 24.0203C34.6354 23.1745 33.6 22.7516 32.375 22.7516H29.75V19.2516C29.75 17.8224 29.4292 16.5023 28.7875 15.2913C28.1458 14.0815 27.3 13.0682 26.25 12.2516V9.18906C28.1458 10.1516 29.6403 11.537 30.7335 13.3453C31.8278 15.1536 32.375 17.1224 32.375 19.2516V20.1266H32.9C34.7667 20.2724 36.3125 21.0161 37.5375 22.3578C38.7625 23.6995 39.375 25.2891 39.375 27.1266C39.375 29.0807 38.6966 30.7356 37.3397 32.0913C35.9841 33.4481 34.3292 34.1266 32.375 34.1266H11.375Z" fill="#FFD02B"/>
</g>
</svg>
