<svg width="56" height="61" viewBox="0 0 56 61" fill="none" xmlns="http://www.w3.org/2000/svg">
    <rect x="0.5" y="0.5" width="55" height="59.08" rx="3.5" fill="#D1EAFE"/>
    <path d="M31.1781 32.2038C31.1025 32.2042 31.0277 32.1903 30.9577 32.1629C30.8878 32.1355 30.8242 32.0951 30.7706 32.044L29.0489 30.3912C28.942 30.288 28.882 30.1484 28.882 30.0028C28.882 29.8573 28.942 29.7176 29.0489 29.6144L30.7706 27.9616C30.8804 27.8714 31.0216 27.8242 31.1661 27.8296C31.3105 27.8349 31.4475 27.8924 31.5497 27.9905C31.6519 28.0886 31.7118 28.2202 31.7174 28.3588C31.723 28.4975 31.6738 28.633 31.5798 28.7384L30.2656 30.0001L31.5798 31.2617C31.6604 31.3384 31.7155 31.4364 31.7381 31.5431C31.7607 31.6499 31.7498 31.7607 31.7068 31.8616C31.6638 31.9624 31.5906 32.0487 31.4965 32.1096C31.4024 32.1705 31.2916 32.2033 31.1781 32.2038ZM24.2911 32.2038C24.1771 32.2044 24.0655 32.1724 23.9705 32.1119C23.8755 32.0514 23.8015 31.9652 23.7577 31.8641C23.714 31.763 23.7027 31.6518 23.7251 31.5445C23.7475 31.4372 23.8027 31.3387 23.8836 31.2617L25.2036 30.0001L23.8836 28.7384C23.7756 28.6347 23.7149 28.494 23.7149 28.3473C23.7149 28.2006 23.7756 28.0599 23.8836 27.9561C23.9917 27.8524 24.1383 27.7941 24.2911 27.7941C24.444 27.7941 24.5905 27.8524 24.6986 27.9561L26.4203 29.6089C26.5272 29.7121 26.5872 29.8518 26.5872 29.9973C26.5872 30.1429 26.5272 30.2825 26.4203 30.3857L24.6986 32.0385C24.6454 32.0905 24.5821 32.132 24.5121 32.1603C24.4422 32.1887 24.3671 32.2035 24.2911 32.2038ZM27.7346 34.4075C27.5824 34.4075 27.4364 34.3494 27.3288 34.2461C27.2211 34.1428 27.1607 34.0027 27.1607 33.8565V30.0001V26.1436C27.1607 25.9975 27.2211 25.8573 27.3288 25.754C27.4364 25.6507 27.5824 25.5927 27.7346 25.5927C27.8868 25.5927 28.0328 25.6507 28.1404 25.754C28.248 25.8573 28.3085 25.9975 28.3085 26.1436V30.0001V33.8565C28.3085 34.0027 28.248 34.1428 28.1404 34.2461C28.0328 34.3494 27.8868 34.4075 27.7346 34.4075Z"
          fill="#091540"/>
    <path d="M42.1964 26H33.8929C33.0022 26 32.2857 25.3312 32.2857 24.5V16.75C32.2857 16.3375 32.6473 16 33.0893 16H35.7679C36.2098 16 36.5714 16.3375 36.5714 16.75V22H42.1964C42.6384 22 43 22.3375 43 22.75V25.25C43 25.6625 42.6384 26 42.1964 26ZM23.7143 24.5V16.75C23.7143 16.3375 23.3527 16 22.9107 16H20.2321C19.7902 16 19.4286 16.3375 19.4286 16.75V22H13.8036C13.3616 22 13 22.3375 13 22.75V25.25C13 25.6625 13.3616 26 13.8036 26H22.1071C22.9978 26 23.7143 25.3312 23.7143 24.5ZM23.7143 43.25V35.5C23.7143 34.6687 22.9978 34 22.1071 34H13.8036C13.3616 34 13 34.3375 13 34.75V37.25C13 37.6625 13.3616 38 13.8036 38H19.4286V43.25C19.4286 43.6625 19.7902 44 20.2321 44H22.9107C23.3527 44 23.7143 43.6625 23.7143 43.25ZM36.5714 43.25V38H42.1964C42.6384 38 43 37.6625 43 37.25V34.75C43 34.3375 42.6384 34 42.1964 34H33.8929C33.0022 34 32.2857 34.6687 32.2857 35.5V43.25C32.2857 43.6625 32.6473 44 33.0893 44H35.7679C36.2098 44 36.5714 43.6625 36.5714 43.25Z"
          fill="#091540"/>
    <rect x="0.5" y="0.5" width="55" height="59.08" rx="3.5" stroke="#74C0FC"/>
</svg>
