<svg width="240" height="240" viewBox="0 0 240 240" fill="none" xmlns="http://www.w3.org/2000/svg">
<circle cx="120" cy="120" r="120" fill="#CED0D9"/>
<path d="M119.1 157C113.633 157 108.4 156.233 103.4 154.7C98.4 153.1 94.4333 151.067 91.5 148.6L96 138.5C98.8 140.7 102.267 142.533 106.4 144C110.533 145.467 114.767 146.2 119.1 146.2C122.767 146.2 125.733 145.8 128 145C130.267 144.2 131.933 143.133 133 141.8C134.067 140.4 134.6 138.833 134.6 137.1C134.6 134.967 133.833 133.267 132.3 132C130.767 130.667 128.767 129.633 126.3 128.9C123.9 128.1 121.2 127.367 118.2 126.7C115.267 126.033 112.3 125.267 109.3 124.4C106.367 123.467 103.667 122.3 101.2 120.9C98.8 119.433 96.8333 117.5 95.3 115.1C93.7667 112.7 93 109.633 93 105.9C93 102.1 94 98.6333 96 95.5C98.0667 92.3 101.167 89.7667 105.3 87.9C109.5 85.9667 114.8 85 121.2 85C125.4 85 129.567 85.5333 133.7 86.6C137.833 87.6667 141.433 89.2 144.5 91.2L140.4 101.3C137.267 99.4333 134.033 98.0667 130.7 97.2C127.367 96.2667 124.167 95.8 121.1 95.8C117.5 95.8 114.567 96.2333 112.3 97.1C110.1 97.9667 108.467 99.1 107.4 100.5C106.4 101.9 105.9 103.5 105.9 105.3C105.9 107.433 106.633 109.167 108.1 110.5C109.633 111.767 111.6 112.767 114 113.5C116.467 114.233 119.2 114.967 122.2 115.7C125.2 116.367 128.167 117.133 131.1 118C134.1 118.867 136.8 120 139.2 121.4C141.667 122.8 143.633 124.7 145.1 127.1C146.633 129.5 147.4 132.533 147.4 136.2C147.4 139.933 146.367 143.4 144.3 146.6C142.3 149.733 139.2 152.267 135 154.2C130.8 156.067 125.5 157 119.1 157Z" fill="#091540"/>
<rect x="169" y="192" width="48" height="48" rx="8" fill="white"/>
<path d="M207.857 208.75V226.107C207.857 227.704 206.561 229 204.964 229H179.893C178.296 229 177 227.704 177 226.107V208.75C177 207.153 178.296 205.857 179.893 205.857H185.196L185.938 203.874C186.36 202.747 187.438 202 188.644 202H196.207C197.413 202 198.492 202.747 198.913 203.874L199.661 205.857H204.964C206.561 205.857 207.857 207.153 207.857 208.75ZM199.661 217.429C199.661 213.439 196.418 210.196 192.429 210.196C188.439 210.196 185.196 213.439 185.196 217.429C185.196 221.418 188.439 224.661 192.429 224.661C196.418 224.661 199.661 221.418 199.661 217.429ZM197.732 217.429C197.732 220.352 195.352 222.732 192.429 222.732C189.506 222.732 187.125 220.352 187.125 217.429C187.125 214.506 189.506 212.125 192.429 212.125C195.352 212.125 197.732 214.506 197.732 217.429Z" fill="#5B6380"/>
</svg>
