<?xml version="1.0" encoding="UTF-8" standalone="no"?>
<!-- Created with Inkscape (http://www.inkscape.org/) -->

<svg
        width="31.633423mm"
        height="11.64167mm"
        viewBox="0 0 31.633423 11.64167"
        version="1.1"
        id="svg5"
        inkscape:version="1.1.2 (b8e25be833, 2022-02-05)"
        sodipodi:docname="footer-logo.svg"
        xmlns:inkscape="http://www.inkscape.org/namespaces/inkscape"
        xmlns:sodipodi="http://sodipodi.sourceforge.net/DTD/sodipodi-0.dtd"
        xmlns="http://www.w3.org/2000/svg"
        xmlns:svg="http://www.w3.org/2000/svg">
    <sodipodi:namedview
            id="namedview7"
            pagecolor="#ffffff"
            bordercolor="#666666"
            borderopacity="1.0"
            inkscape:pageshadow="2"
            inkscape:pageopacity="0.0"
            inkscape:pagecheckerboard="0"
            inkscape:document-units="mm"
            showgrid="false"
            inkscape:zoom="3.735521"
            inkscape:cx="51.800003"
            inkscape:cy="39.08424"
            inkscape:window-width="1920"
            inkscape:window-height="986"
            inkscape:window-x="-11"
            inkscape:window-y="-11"
            inkscape:window-maximized="1"
            inkscape:current-layer="layer1"/>
    <defs
            id="defs2"/>
    <g
            inkscape:label="Layer 1"
            inkscape:groupmode="layer"
            id="layer1"
            transform="translate(-36.818729,-189.0142)">
        <a
                id="a8780">
            <path
                    d="m 36.818729,189.29138 c 0,-0.15308 0.123196,-0.27718 0.275167,-0.27718 h 1.926166 v 2.21746 h -2.201333 z"
                    fill="#091540"
                    id="path59"
                    style="stroke-width:0.264583"/>
        </a>
        <path
                d="m 36.818729,191.37025 h 2.201333 v 2.21746 h -2.201333 z"
                fill="#091540"
                id="path61"
                style="stroke-width:0.264583"/>
        <path
                d="m 39.157646,189.0142 h 2.201333 v 2.21746 h -2.201333 z"
                fill="#091540"
                id="path63"
                style="stroke-width:0.264583"/>
        <path
                d="m 41.496562,191.37025 h 2.201334 v 2.21746 h -2.201334 z"
                fill="#091540"
                id="path65"
                style="stroke-width:0.264583"/>
        <path
                d="m 39.157646,196.08236 h 2.201333 v 2.21745 h -2.201333 z"
                fill="#ffc700"
                id="path67"
                style="stroke-width:0.264583"/>
        <path
                d="m 39.157646,191.37025 h 2.201333 v 2.21746 h -2.201333 z"
                fill="#ffc700"
                id="path69"
                style="stroke-width:0.264583"/>
        <path
                d="m 39.157646,193.7263 h 4.265083 c 0.151977,0 0.275167,0.12411 0.275167,0.27718 v 1.66311 c 0,0.15307 -0.12319,0.27718 -0.275167,0.27718 h -4.265083 z"
                fill="#091540"
                id="path71"
                style="stroke-width:0.264583"/>
        <path
                d="m 41.496562,198.4384 h 2.201334 v 1.94029 c 0,0.15309 -0.12319,0.27718 -0.275167,0.27718 h -1.926167 z"
                fill="#091540"
                id="path73"
                style="stroke-width:0.264583"/>
        <path
                d="m 41.496562,196.08236 h 2.201334 v 2.21745 h -2.201334 z"
                fill="#091540"
                id="path75"
                style="stroke-width:0.264583"/>
        <path
                d="m 41.496562,189.0142 h 1.926167 c 0.151977,0 0.275167,0.1241 0.275167,0.27718 v 1.94028 h -2.201334 z"
                fill="#091540"
                id="path77"
                style="stroke-width:0.264583"/>
        <path
                d="m 36.818729,193.7263 h 2.201333 v 2.21747 h -2.201333 z"
                fill="#091540"
                id="path79"
                style="stroke-width:0.264583"/>
        <path
                d="m 36.818729,196.08236 h 2.201333 v 2.21745 h -2.201333 z"
                fill="#091540"
                id="path81"
                style="stroke-width:0.264583"/>
        <path
                d="m 36.818729,198.4384 h 2.201333 v 2.21747 h -1.926166 c -0.151971,0 -0.275167,-0.12409 -0.275167,-0.27718 z"
                fill="#091540"
                id="path83"
                style="stroke-width:0.264583"/>
        <path
                d="m 39.157646,198.4384 h 2.201333 v 2.21747 h -2.201333 z"
                fill="#091540"
                id="path85"
                style="stroke-width:0.264583"/>
        <path
                id="path117"
                style="fill:#ffc700;fill-opacity:1;stroke-width:0.999999"
                d="m 172.38477,728.8457 v 16.80469 h 5.57812 v -0.002 c 1.34376,0 2.41016,-0.18379 3.19922,-0.55078 0.71875,-0.40623 1.3438,-1.00388 1.875,-1.79297 0.4766,-0.7265 0.71484,-1.58593 0.71484,-2.57813 0,-1.9375 -0.96879,-3.37109 -2.90625,-4.30078 0.59375,-0.46095 1.01172,-0.9531 1.25391,-1.47656 0.31248,-0.52343 0.46875,-1.09767 0.46875,-1.72266 0,-1.02346 -0.30859,-1.87891 -0.92578,-2.5664 -0.625,-0.71093 -1.43359,-1.21087 -2.42578,-1.5 -0.17187,-0.0548 -0.41407,-0.1017 -0.72657,-0.14063 -0.30469,-0.0389 -0.64844,-0.0711 -1.03125,-0.0937 -0.38281,-0.0321 -0.78516,-0.051 -1.20703,-0.0586 -0.41407,-0.0151 -0.81641,-0.0215 -1.20703,-0.0215 z m 12.57226,0 4.94531,9.50391 v 7.30078 h 3.21094 v -7.61719 l -4.0664,-8.01562 -0.63282,-1.17188 z m 9.72656,0 -1.875,3.60938 1.72266,3.29297 3.53906,-6.90235 z m 7.74414,0 v 3.14063 h 1.52344 2.98828 v 13.66406 h 3.29297 v -13.66406 h 3.07031 1.52344 v -3.14063 z m 20.37696,0 c -1.2032,0 -2.24219,0.39844 -3.11719,1.19532 -0.8438,0.80466 -1.26562,1.76955 -1.26562,2.89453 -10e-6,0.75001 0.27341,1.51561 0.82031,2.29687 0.2578,0.38279 0.66405,0.84764 1.21875,1.39453 0.5625,0.53904 1.26949,1.16404 2.12109,1.875 0.4453,0.37501 0.81636,0.6994 1.11328,0.97266 0.2969,0.26562 0.52341,0.48806 0.67969,0.66797 0.24219,0.37497 0.36328,0.74591 0.36328,1.11328 0,0.375 -0.17184,0.72284 -0.51562,1.04297 -0.38281,0.29688 -0.82814,0.44531 -1.33594,0.44531 -0.9688,0 -1.83596,-0.71878 -2.60156,-2.15625 l -2.61328,1.55859 c 1.17189,2.3359 2.88281,3.50391 5.13281,3.50391 1.4843,0 2.6718,-0.42192 3.5625,-1.26562 0.8984,-0.84378 1.34765,-1.93744 1.34765,-3.28125 0,-1.36717 -0.54692,-2.57814 -1.64062,-3.63282 -0.1172,-0.0938 -0.29687,-0.24991 -0.53906,-0.46875 -0.3672,-0.34378 -0.90237,-0.80859 -1.60547,-1.39453 -0.6016,-0.52346 -1.08984,-0.94928 -1.46485,-1.27734 -0.3672,-0.33593 -0.62501,-0.58219 -0.77343,-0.73828 -0.1485,-0.25002 -0.22266,-0.49223 -0.22266,-0.72657 0,-0.3047 0.12502,-0.55459 0.375,-0.75 0.1875,-0.1954 0.50774,-0.29296 0.96094,-0.29296 0.8125,0 1.6054,0.54297 2.3789,1.6289 l 2.3086,-2.0039 c -0.4375,-0.48439 -0.85159,-0.89447 -1.24219,-1.23047 -0.3907,-0.33597 -0.7695,-0.59391 -1.13672,-0.77344 -0.7109,-0.39848 -1.48049,-0.59766 -2.30859,-0.59766 z m 9.28906,0 v 16.80469 h 3.21094 v -6.87891 h 6.10547 v -3.04687 h -6.10547 v -3.75 h 6.10547 v -3.12891 z m 13.50977,0 4.94531,9.50391 v 7.30078 h 3.21094 v -7.61719 l -4.06641,-8.01562 -0.63281,-1.17188 z m 9.72656,0 -1.875,3.60938 1.72265,3.29297 3.53907,-6.90235 z m -79.7461,3.0586 h 1.67579 c 0.71094,0 1.25781,0.15618 1.64062,0.46875 0.35939,0.26558 0.53906,0.67968 0.53906,1.24218 0,0.55469 -0.17966,0.99994 -0.53906,1.33594 -0.42968,0.35955 -1.02735,0.53906 -1.79297,0.53906 h -1.52344 z m 0,6.39843 h 1.52344 c 1.24218,0 2.15235,0.20709 2.73047,0.6211 0.52343,0.4532 0.78516,1.02733 0.78516,1.72265 0,0.6172 -0.23829,1.10957 -0.71485,1.47657 -0.48438,0.3126 -1.39453,0.46875 -2.73047,0.46875 h -1.59375 z"
                transform="scale(0.26458333)"/>
    </g>
</svg>
