<svg width="87" height="18" viewBox="0 0 87 18" fill="none" xmlns="http://www.w3.org/2000/svg">
<path d="M5.57812 17.5H0V0.695312H2.66016C3.05078 0.695312 3.45312 0.703125 3.86719 0.71875C4.28906 0.726563 4.69141 0.746094 5.07422 0.777344C5.45703 0.800781 5.80078 0.832031 6.10547 0.871094C6.41797 0.910156 6.66016 0.957031 6.83203 1.01172C7.82422 1.30078 8.63281 1.80078 9.25781 2.51172C9.875 3.19922 10.1836 4.05469 10.1836 5.07812C10.1836 5.70312 10.0273 6.27734 9.71484 6.80078C9.47266 7.32422 9.05469 7.81641 8.46094 8.27734C10.3984 9.20703 11.3672 10.6406 11.3672 12.5781C11.3672 13.5703 11.1289 14.4297 10.6523 15.1562C10.1211 15.9453 9.49609 16.543 8.77734 16.9492C7.98828 17.3164 6.92188 17.5 5.57812 17.5ZM4.79297 14.4414C6.12891 14.4414 7.03906 14.2852 7.52344 13.9727C8 13.6055 8.23828 13.1133 8.23828 12.4961C8.23828 11.8008 7.97656 11.2266 7.45312 10.7734C6.875 10.3594 5.96484 10.1523 4.72266 10.1523H3.19922V14.4414H4.79297ZM4.72266 7.33984C5.48828 7.33984 6.08594 7.16016 6.51562 6.80078C6.875 6.46484 7.05469 6.01953 7.05469 5.46484C7.05469 4.90234 6.875 4.48828 6.51562 4.22266C6.13281 3.91016 5.58594 3.75391 4.875 3.75391H3.19922V7.33984H4.72266ZM25.6852 0.695312L22.1461 7.59766L20.4234 4.30469L22.2984 0.695312H25.6852ZM16.0289 0.695312L16.6617 1.86719L20.7281 9.88281V17.5H17.5172V10.1992L12.5719 0.695312H16.0289ZM42.4406 0.695312V3.83594H40.9172H37.8469V17.5H34.5539V3.83594H31.5656H30.0422V0.695312H42.4406ZM50.4188 17.5C48.1688 17.5 46.4578 16.332 45.2859 13.9961L47.8992 12.4375C48.6648 13.875 49.532 14.5938 50.5008 14.5938C51.0086 14.5938 51.4539 14.4453 51.8367 14.1484C52.1805 13.8281 52.3523 13.4805 52.3523 13.1055C52.3523 12.7383 52.2313 12.3672 51.9891 11.9922C51.8328 11.8125 51.6063 11.5898 51.3094 11.3242C51.0125 11.0508 50.6414 10.7266 50.1961 10.3516C49.3445 9.64062 48.6375 9.01562 48.075 8.47656C47.5203 7.92969 47.1141 7.46484 46.8563 7.08203C46.3094 6.30078 46.0359 5.53516 46.0359 4.78516C46.0359 3.66016 46.4578 2.69531 47.3016 1.89062C48.1766 1.09375 49.2156 0.695312 50.4188 0.695312C51.2469 0.695312 52.0164 0.894531 52.7273 1.29297C53.0945 1.47266 53.4734 1.73047 53.8641 2.06641C54.2547 2.40234 54.6688 2.8125 55.1063 3.29688L52.7977 5.30078C52.0242 4.21484 51.2313 3.67188 50.4188 3.67188C49.9656 3.67188 49.6453 3.76953 49.4578 3.96484C49.2078 4.16016 49.0828 4.41016 49.0828 4.71484C49.0828 4.94922 49.157 5.19141 49.3055 5.44141C49.4539 5.59766 49.7117 5.84375 50.0789 6.17969C50.4539 6.50781 50.9422 6.93359 51.5438 7.45703C52.2469 8.04297 52.782 8.50781 53.1492 8.85156C53.3914 9.07031 53.5711 9.22656 53.6883 9.32031C54.782 10.375 55.3289 11.5859 55.3289 12.9531C55.3289 14.2969 54.8797 15.3906 53.9813 16.2344C53.0906 17.0781 51.9031 17.5 50.4188 17.5ZM69.0258 0.695312V3.82422H62.9203V7.57422H69.0258V10.6211H62.9203V17.5H59.7094V0.695312H69.0258ZM86.332 0.695312L82.793 7.59766L81.0703 4.30469L82.9453 0.695312H86.332ZM76.6758 0.695312L77.3086 1.86719L81.375 9.88281V17.5H78.1641V10.1992L73.2188 0.695312H76.6758Z" fill="#FFC700"/>
</svg>
