<svg width="20" height="20" viewBox="0 0 20 20" fill="none" xmlns="http://www.w3.org/2000/svg">
    <path d="M18.7511 10.1944C18.7511 9.47495 18.6915 8.94995 18.5626 8.40552H10.1797V11.6527H15.1003C15.0011 12.4597 14.4654 13.675 13.2749 14.4916L13.2582 14.6003L15.9087 16.6126L16.0924 16.6305C17.7788 15.1041 18.7511 12.8583 18.7511 10.1944Z"
          fill="#4285F4"/>
    <path d="M10.1793 18.75C12.59 18.75 14.6138 17.9722 16.092 16.6305L13.2745 14.4916C12.5206 15.0068 11.5086 15.3666 10.1793 15.3666C7.81822 15.3666 5.81427 13.8402 5.09992 11.7305L4.99522 11.7392L2.23917 13.8295L2.20312 13.9277C3.67136 16.786 6.68723 18.75 10.1793 18.75Z"
          fill="#34A853"/>
    <path d="M5.09916 11.7305C4.91068 11.186 4.80159 10.6027 4.80159 9.99992C4.80159 9.3971 4.91068 8.81379 5.08925 8.26935L5.08425 8.1534L2.29366 6.02954L2.20236 6.0721C1.59723 7.25823 1.25 8.5902 1.25 9.99992C1.25 11.4096 1.59723 12.7415 2.20236 13.9277L5.09916 11.7305Z"
          fill="#FBBC05"/>
    <path d="M10.1794 4.63331C11.8559 4.63331 12.9868 5.34303 13.6317 5.93612L16.1516 3.525C14.604 2.11528 12.59 1.25 10.1794 1.25C6.68725 1.25 3.67137 3.21387 2.20312 6.07218L5.09002 8.26943C5.8143 6.15972 7.81825 4.63331 10.1794 4.63331Z"
          fill="#EB4335"/>
</svg>
