<svg width="20" height="20" viewBox="0 0 20 20" fill="none" xmlns="http://www.w3.org/2000/svg">
    <path d="M2.5 4.16667C2.5 3.24625 3.24625 2.5 4.16667 2.5H15.8333C16.7537 2.5 17.5 3.24625 17.5 4.16667V15.8333C17.5 16.7537 16.7537 17.5 15.8333 17.5H4.16667C3.24625 17.5 2.5 16.7537 2.5 15.8333V4.16667Z"
          fill="#2196F3"/>
    <path d="M11.25 7.08203H14.1667V7.91536H11.25V7.08203ZM8.96333 9.76036C9.20708 9.64161 9.75625 9.3712 9.75625 8.56995C9.75625 7.06286 8.10958 7.08245 7.805 7.08245H5V12.9158H7.92708C8.17083 12.9154 10 12.8466 10 11.2483C10 10.217 9.32917 9.87953 8.96333 9.76036ZM6.25 8.0937H7.47C7.59167 8.0937 8.38458 8.13703 8.38458 8.7487C8.38458 9.35995 7.775 9.46286 7.59208 9.46286H6.25V8.0937ZM7.64 11.9033H6.23708V10.2966H7.64C7.94458 10.2966 8.61542 10.3954 8.61542 11.1299C8.61542 11.8637 7.76167 11.9033 7.64 11.9033ZM13.5158 11.8299C13.3221 11.9504 13.1287 12.0116 12.8704 12.0116C11.9012 12.0116 11.7083 11.1945 11.7083 10.8324H15C15 10.4704 15 10.2029 14.9354 9.90078C14.8704 9.5987 14.4292 8.33203 12.8058 8.33203C10.5371 8.33203 10.4167 10.3229 10.4167 10.6237C10.4167 10.9249 10.4817 11.2874 10.6112 11.5283C10.74 11.8299 10.8692 12.0716 11.0629 12.2516C11.2562 12.4329 11.5142 12.6124 11.7725 12.7337C12.095 12.8549 12.4179 12.9154 12.7408 12.9154C13.2567 12.9154 13.7092 12.7954 14.0963 12.5537C14.4842 12.3124 14.7421 11.9504 14.9354 11.4679H13.8383C13.7738 11.5887 13.7092 11.7087 13.5158 11.8299ZM12.8058 9.17661C13.4383 9.17661 13.7092 9.83995 13.7733 10.1408H11.7083C11.7083 10.0812 11.8629 9.17661 12.8058 9.17661Z"
          fill="white"/>
</svg>
