<svg width="20" height="20" viewBox="0 0 20 20" fill="none" xmlns="http://www.w3.org/2000/svg">
    <path d="M10.8359 7.08333H7.5026C5.89177 7.08333 4.58594 5.7775 4.58594 4.16667C4.58594 2.55583 5.89177 1.25 7.5026 1.25H10.8359V7.08333Z"
          fill="#E64A19"/>
    <path d="M10.4193 12.9154H7.5026C5.89177 12.9154 4.58594 11.6095 4.58594 9.9987C4.58594 8.38786 5.89177 7.08203 7.5026 7.08203H10.4193V12.9154Z"
          fill="#7C4DFF"/>
    <path d="M7.5026 18.7513C5.89177 18.7513 4.58594 17.4455 4.58594 15.8346C4.58594 14.2238 5.89177 12.918 7.5026 12.918H10.4193V15.8346C10.4193 17.4455 9.11344 18.7513 7.5026 18.7513Z"
          fill="#66BB6A"/>
    <path d="M13.3307 7.08333H10.4141V1.25H13.3307C14.9416 1.25 16.2474 2.55583 16.2474 4.16667C16.2474 5.7775 14.9416 7.08333 13.3307 7.08333Z"
          fill="#FF7043"/>
    <path d="M13.3307 12.9154C14.9416 12.9154 16.2474 11.6095 16.2474 9.9987C16.2474 8.38787 14.9416 7.08203 13.3307 7.08203C11.7199 7.08203 10.4141 8.38787 10.4141 9.9987C10.4141 11.6095 11.7199 12.9154 13.3307 12.9154Z"
          fill="#29B6F6"/>
</svg>
