<svg width="42" height="42" viewBox="0 0 42 42" fill="none" xmlns="http://www.w3.org/2000/svg">
<mask id="mask0_2075_22862" style="mask-type:alpha" maskUnits="userSpaceOnUse" x="0" y="0" width="42" height="42">
<rect width="42" height="42" fill="#D9D9D9"/>
</mask>
<g mask="url(#mask0_2075_22862)">
<path d="M16.8 26.6438L18.6375 24.7625L14.875 21L18.6375 17.2375L16.8 15.3562L11.1562 21L16.8 26.6438ZM25.2 26.6438L30.8438 21L25.2 15.3562L23.3625 17.2375L27.125 21L23.3625 24.7625L25.2 26.6438ZM9.275 35.875C8.4 35.875 7.65625 35.5688 7.04375 34.9562C6.43125 34.3438 6.125 33.6 6.125 32.725V9.275C6.125 8.4 6.43125 7.65625 7.04375 7.04375C7.65625 6.43125 8.4 6.125 9.275 6.125H17.0625C17.1792 5.1625 17.6097 4.33825 18.354 3.65225C19.0972 2.96742 19.9792 2.625 21 2.625C22.05 2.625 22.9396 2.96742 23.6687 3.65225C24.3979 4.33825 24.8208 5.1625 24.9375 6.125H32.725C33.6 6.125 34.3438 6.43125 34.9563 7.04375C35.5688 7.65625 35.875 8.4 35.875 9.275V32.725C35.875 33.6 35.5688 34.3438 34.9563 34.9562C34.3438 35.5688 33.6 35.875 32.725 35.875H9.275ZM9.275 33.25H32.725C32.8417 33.25 32.9583 33.1917 33.075 33.075C33.1917 32.9583 33.25 32.8417 33.25 32.725V9.275C33.25 9.15833 33.1917 9.04167 33.075 8.925C32.9583 8.80833 32.8417 8.75 32.725 8.75H9.275C9.15833 8.75 9.04167 8.80833 8.925 8.925C8.80833 9.04167 8.75 9.15833 8.75 9.275V32.725C8.75 32.8417 8.80833 32.9583 8.925 33.075C9.04167 33.1917 9.15833 33.25 9.275 33.25ZM21 7.6125C21.3792 7.6125 21.693 7.48825 21.9415 7.23975C22.1888 6.99242 22.3125 6.67917 22.3125 6.3C22.3125 5.92083 22.1888 5.607 21.9415 5.3585C21.693 5.11117 21.3792 4.9875 21 4.9875C20.6208 4.9875 20.3076 5.11117 20.0603 5.3585C19.8118 5.607 19.6875 5.92083 19.6875 6.3C19.6875 6.67917 19.8118 6.99242 20.0603 7.23975C20.3076 7.48825 20.6208 7.6125 21 7.6125Z" fill="#FFD02B"/>
</g>
</svg>
