<svg width="126" height="59" viewBox="0 0 126 59" fill="none" xmlns="http://www.w3.org/2000/svg">
    <path d="M0 8.54762C0 7.96904 0.465624 7.5 1.04 7.5H8.32V15.881H0V8.54762Z" fill="#091540"/>
    <path d="M0 16.4048H8.32V24.7857H0V16.4048Z" fill="#091540"/>
    <path d="M8.84 7.5H17.16V15.881H8.84V7.5Z" fill="#091540"/>
    <path d="M17.68 16.4048H26V24.7857H17.68V16.4048Z" fill="#091540"/>
    <path d="M8.84 34.2143H17.16V42.5952H8.84V34.2143Z" fill="#FFC700"/>
    <path d="M8.84 16.4048H17.16V24.7857H8.84V16.4048Z" fill="#FFC700"/>
    <path d="M8.84 25.3095H24.96C25.5344 25.3095 26 25.7786 26 26.3571V32.6429C26 33.2214 25.5344 33.6905 24.96 33.6905H8.84V25.3095Z"
          fill="#091540"/>
    <path d="M17.68 43.119H26V50.4524C26 51.031 25.5344 51.5 24.96 51.5H17.68V43.119Z" fill="#091540"/>
    <path d="M17.68 34.2143H26V42.5952H17.68V34.2143Z" fill="#091540"/>
    <path d="M17.68 7.5H24.96C25.5344 7.5 26 7.96904 26 8.54762V15.881H17.68V7.5Z" fill="#091540"/>
    <path d="M0 25.3095H8.32V33.6905H0V25.3095Z" fill="#091540"/>
    <path d="M0 34.2143H8.32V42.5952H0V34.2143Z" fill="#091540"/>
    <path d="M0 43.119H8.32V51.5H1.04C0.465624 51.5 0 51.031 0 50.4524V43.119Z" fill="#091540"/>
    <path d="M8.84 43.119H17.16V51.5H8.84V43.119Z" fill="#091540"/>
    <path d="M42.5781 38.5H37V21.6953H39.6602C40.0508 21.6953 40.4531 21.7031 40.8672 21.7188C41.2891 21.7266 41.6914 21.7461 42.0742 21.7773C42.457 21.8008 42.8008 21.832 43.1055 21.8711C43.418 21.9102 43.6602 21.957 43.832 22.0117C44.8242 22.3008 45.6328 22.8008 46.2578 23.5117C46.875 24.1992 47.1836 25.0547 47.1836 26.0781C47.1836 26.7031 47.0273 27.2773 46.7148 27.8008C46.4727 28.3242 46.0547 28.8164 45.4609 29.2773C47.3984 30.207 48.3672 31.6406 48.3672 33.5781C48.3672 34.5703 48.1289 35.4297 47.6523 36.1562C47.1211 36.9453 46.4961 37.543 45.7773 37.9492C44.9883 38.3164 43.9219 38.5 42.5781 38.5ZM41.793 35.4414C43.1289 35.4414 44.0391 35.2852 44.5234 34.9727C45 34.6055 45.2383 34.1133 45.2383 33.4961C45.2383 32.8008 44.9766 32.2266 44.4531 31.7734C43.875 31.3594 42.9648 31.1523 41.7227 31.1523H40.1992V35.4414H41.793ZM41.7227 28.3398C42.4883 28.3398 43.0859 28.1602 43.5156 27.8008C43.875 27.4648 44.0547 27.0195 44.0547 26.4648C44.0547 25.9023 43.875 25.4883 43.5156 25.2227C43.1328 24.9102 42.5859 24.7539 41.875 24.7539H40.1992V28.3398H41.7227ZM62.6852 21.6953L59.1461 28.5977L57.4234 25.3047L59.2984 21.6953H62.6852ZM53.0289 21.6953L53.6617 22.8672L57.7281 30.8828V38.5H54.5172V31.1992L49.5719 21.6953H53.0289ZM79.4406 21.6953V24.8359H77.9172H74.8469V38.5H71.5539V24.8359H68.5656H67.0422V21.6953H79.4406ZM87.4188 38.5C85.1688 38.5 83.4578 37.332 82.2859 34.9961L84.8992 33.4375C85.6648 34.875 86.532 35.5938 87.5008 35.5938C88.0086 35.5938 88.4539 35.4453 88.8367 35.1484C89.1805 34.8281 89.3523 34.4805 89.3523 34.1055C89.3523 33.7383 89.2313 33.3672 88.9891 32.9922C88.8328 32.8125 88.6063 32.5898 88.3094 32.3242C88.0125 32.0508 87.6414 31.7266 87.1961 31.3516C86.3445 30.6406 85.6375 30.0156 85.075 29.4766C84.5203 28.9297 84.1141 28.4648 83.8563 28.082C83.3094 27.3008 83.0359 26.5352 83.0359 25.7852C83.0359 24.6602 83.4578 23.6953 84.3016 22.8906C85.1766 22.0938 86.2156 21.6953 87.4188 21.6953C88.2469 21.6953 89.0164 21.8945 89.7273 22.293C90.0945 22.4727 90.4734 22.7305 90.8641 23.0664C91.2547 23.4023 91.6688 23.8125 92.1063 24.2969L89.7977 26.3008C89.0242 25.2148 88.2313 24.6719 87.4188 24.6719C86.9656 24.6719 86.6453 24.7695 86.4578 24.9648C86.2078 25.1602 86.0828 25.4102 86.0828 25.7148C86.0828 25.9492 86.157 26.1914 86.3055 26.4414C86.4539 26.5977 86.7117 26.8438 87.0789 27.1797C87.4539 27.5078 87.9422 27.9336 88.5438 28.457C89.2469 29.043 89.782 29.5078 90.1492 29.8516C90.3914 30.0703 90.5711 30.2266 90.6883 30.3203C91.782 31.375 92.3289 32.5859 92.3289 33.9531C92.3289 35.2969 91.8797 36.3906 90.9813 37.2344C90.0906 38.0781 88.9031 38.5 87.4188 38.5ZM106.026 21.6953V24.8242H99.9203V28.5742H106.026V31.6211H99.9203V38.5H96.7094V21.6953H106.026ZM123.332 21.6953L119.793 28.5977L118.07 25.3047L119.945 21.6953H123.332ZM113.676 21.6953L114.309 22.8672L118.375 30.8828V38.5H115.164V31.1992L110.219 21.6953H113.676Z"
          fill="#091540"/>
</svg>
