<svg width="42" height="42" viewBox="0 0 42 42" fill="none" xmlns="http://www.w3.org/2000/svg">
<mask id="mask0_2075_22879" style="mask-type:alpha" maskUnits="userSpaceOnUse" x="0" y="0" width="42" height="42">
<rect width="42" height="42" fill="#D9D9D9"/>
</mask>
<g mask="url(#mask0_2075_22879)">
<path d="M21 36.6641C17.4708 35.6432 14.5466 33.5211 12.2273 30.2976C9.90908 27.0752 8.75 23.4516 8.75 19.4266V9.97656L21 5.38281L33.25 9.97656V19.4266C33.25 23.4516 32.0903 27.0752 29.771 30.2976C27.4528 33.5211 24.5292 35.6432 21 36.6641ZM21 34.8266C23.8292 33.9516 26.1917 32.2237 28.0875 29.6431C29.9833 27.0612 31.0917 24.1807 31.4125 21.0016H21V7.26406L10.5 11.1578V20.1703C10.5 20.4036 10.5292 20.6807 10.5875 21.0016H21V34.8266Z" fill="#FFD02B"/>
</g>
</svg>
