<svg width="630" height="469" viewBox="0 0 630 469" fill="none" xmlns="http://www.w3.org/2000/svg">
<path d="M629.429 412.15H0V412.465H629.429V412.15Z" fill="#EBEBEB"/>
<path d="M566.362 432.405H539.07V432.72H566.362V432.405Z" fill="#EBEBEB"/>
<path d="M433.893 425.884H390.953V426.199H433.893V425.884Z" fill="#EBEBEB"/>
<path d="M555.307 420.723H499.25V421.037H555.307V420.723Z" fill="#EBEBEB"/>
<path d="M217.805 427.067H203.781V427.382H217.805V427.067Z" fill="#EBEBEB"/>
<path d="M192.57 427.067H144.242V427.382H192.57V427.067Z" fill="#EBEBEB"/>
<path d="M118.347 421.755H83.4766V422.07H118.347V421.755Z" fill="#EBEBEB"/>
<path d="M298.35 356.005H55.2771C53.3728 356.002 51.5478 355.243 50.2025 353.895C48.8571 352.548 48.1016 350.721 48.1016 348.817V7.12513C48.1181 5.23184 48.881 3.42155 50.2246 2.08746C51.5681 0.753374 53.3837 0.00324331 55.2771 0H298.35C300.256 0 302.085 0.757313 303.433 2.10534C304.781 3.45337 305.538 5.28168 305.538 7.18808V348.817C305.538 350.723 304.781 352.552 303.433 353.9C302.085 355.248 300.256 356.005 298.35 356.005ZM55.2771 0.251772C53.4563 0.255107 51.7113 0.980732 50.425 2.26938C49.1387 3.55802 48.4163 5.30438 48.4163 7.12513V348.817C48.4163 350.638 49.1387 352.384 50.425 353.673C51.7113 354.961 53.4563 355.687 55.2771 355.69H298.35C300.172 355.687 301.918 354.962 303.206 353.673C304.495 352.385 305.22 350.639 305.223 348.817V7.12513C305.22 5.30323 304.495 3.55689 303.206 2.26861C301.918 0.980323 300.172 0.2551 298.35 0.251772H55.2771Z" fill="#EBEBEB"/>
<path d="M570.656 356.005H327.571C325.666 356.002 323.839 355.243 322.492 353.896C321.145 352.549 320.386 350.722 320.383 348.817V7.12513C320.403 5.2307 321.168 3.42041 322.514 2.08667C323.859 0.752934 325.676 0.00320793 327.571 0H570.656C572.547 0.00655172 574.36 0.758146 575.701 2.09188C577.041 3.42561 577.803 5.23402 577.819 7.12513V348.817C577.819 350.719 577.065 352.543 575.723 353.891C574.38 355.238 572.558 355.998 570.656 356.005ZM327.571 0.251772C325.749 0.2551 324.003 0.980323 322.714 2.26861C321.426 3.55689 320.701 5.30323 320.698 7.12513V348.817C320.701 350.639 321.426 352.385 322.714 353.673C324.003 354.962 325.749 355.687 327.571 355.69H570.656C572.478 355.687 574.225 354.962 575.513 353.673C576.801 352.385 577.526 350.639 577.53 348.817V7.12513C577.526 5.30323 576.801 3.55689 575.513 2.26861C574.225 0.980323 572.478 0.2551 570.656 0.251772H327.571Z" fill="#EBEBEB"/>
<path d="M144.767 150.598C151.748 150.598 158.443 147.824 163.379 142.888C168.316 137.951 171.089 131.256 171.089 124.275C171.089 117.294 168.316 110.598 163.379 105.662C158.443 100.725 151.748 97.9521 144.767 97.9521H141.531V150.598H144.767Z" fill="#E0E0E0"/>
<path d="M141.51 150.598C156.048 150.598 167.833 138.813 167.833 124.275C167.833 109.737 156.048 97.9521 141.51 97.9521C126.973 97.9521 115.188 109.737 115.188 124.275C115.188 138.813 126.973 150.598 141.51 150.598Z" fill="#F5F5F5"/>
<path d="M140.303 127.573C130.954 127.573 121.989 123.859 115.379 117.249C108.768 110.639 105.055 101.673 105.055 92.3248V71.2893C105.055 70.4112 105.404 69.5691 106.024 68.9482C106.645 68.3273 107.487 67.9785 108.365 67.9785C109.244 67.9785 110.086 68.3273 110.707 68.9482C111.327 69.5691 111.676 70.4112 111.676 71.2893V92.3374C111.683 99.9254 114.699 107.201 120.064 112.568C125.428 117.934 132.702 120.954 140.29 120.964C140.741 120.936 141.193 121.001 141.618 121.154C142.043 121.308 142.433 121.547 142.762 121.856C143.091 122.166 143.354 122.539 143.533 122.954C143.712 123.369 143.805 123.816 143.805 124.268C143.805 124.72 143.712 125.167 143.533 125.582C143.354 125.997 143.091 126.371 142.762 126.68C142.433 126.99 142.043 127.229 141.618 127.382C141.193 127.536 140.741 127.601 140.29 127.573H140.303Z" fill="#E0E0E0"/>
<path d="M79.095 89.8194H137.657C138.594 89.8196 139.518 89.6047 140.358 89.1914C141.199 88.7781 141.933 88.1773 142.504 87.4355C143.076 86.6936 143.47 85.8303 143.655 84.9123C143.84 83.9943 143.813 83.046 143.574 82.1404L138.475 62.9428C138.131 61.6386 137.366 60.4848 136.298 59.6606C135.23 58.8365 133.92 58.3883 132.571 58.3857H84.1807C82.8303 58.3876 81.5183 58.8354 80.4485 59.6594C79.3786 60.4834 78.6107 61.6376 78.2641 62.9428L73.2287 82.1152C72.9836 83.0185 72.9494 83.966 73.1289 84.8846C73.3083 85.8031 73.6965 86.6681 74.2635 87.4128C74.8305 88.1574 75.5611 88.7617 76.3988 89.179C77.2366 89.5963 78.159 89.8154 79.095 89.8194Z" fill="#F5F5F5"/>
<path d="M516.485 150.598C523.466 150.598 530.162 147.824 535.098 142.888C540.035 137.951 542.808 131.256 542.808 124.275C542.808 117.294 540.035 110.598 535.098 105.662C530.162 100.725 523.466 97.9521 516.485 97.9521H513.25V150.598H516.485Z" fill="#E0E0E0"/>
<path d="M513.245 150.598C527.782 150.598 539.567 138.813 539.567 124.275C539.567 109.737 527.782 97.9521 513.245 97.9521C498.707 97.9521 486.922 109.737 486.922 124.275C486.922 138.813 498.707 150.598 513.245 150.598Z" fill="#F5F5F5"/>
<path d="M512.037 127.573C502.689 127.573 493.723 123.859 487.113 117.249C480.503 110.639 476.789 101.673 476.789 92.3248V71.2893C476.789 70.4112 477.138 69.5691 477.759 68.9482C478.38 68.3273 479.222 67.9785 480.1 67.9785C480.978 67.9785 481.82 68.3273 482.441 68.9482C483.062 69.5691 483.411 70.4112 483.411 71.2893V92.3374C483.417 99.9254 486.434 107.201 491.798 112.568C497.162 117.934 504.437 120.954 512.024 120.964C512.476 120.936 512.928 121.001 513.353 121.154C513.778 121.308 514.167 121.547 514.496 121.856C514.826 122.166 515.088 122.539 515.267 122.954C515.447 123.369 515.539 123.816 515.539 124.268C515.539 124.72 515.447 125.167 515.267 125.582C515.088 125.997 514.826 126.371 514.496 126.68C514.167 126.99 513.778 127.229 513.353 127.382C512.928 127.536 512.476 127.601 512.024 127.573H512.037Z" fill="#E0E0E0"/>
<path d="M450.838 89.8196H509.4C510.337 89.8198 511.261 89.6049 512.101 89.1916C512.942 88.7783 513.676 88.1775 514.248 87.4357C514.819 86.6938 515.213 85.8305 515.398 84.9125C515.584 83.9945 515.556 83.0462 515.317 82.1406L510.281 62.9682C509.937 61.664 509.172 60.5101 508.104 59.686C507.036 58.8619 505.726 58.4137 504.377 58.4111H455.924C454.574 58.413 453.262 58.8608 452.192 59.6848C451.122 60.5088 450.354 61.663 450.007 62.9682L444.972 82.1406C444.731 83.0422 444.701 83.987 444.882 84.9023C445.064 85.8176 445.453 86.6791 446.019 87.4207C446.586 88.1622 447.315 88.764 448.15 89.1799C448.985 89.5957 449.905 89.8146 450.838 89.8196Z" fill="#F5F5F5"/>
<path d="M168.665 328.386H187.812V254.201H168.665V328.386Z" fill="#E6E6E6"/>
<path d="M116.758 328.373H180.292L189.885 241.55H126.35L116.758 328.373Z" fill="#F0F0F0"/>
<path d="M109.875 328.373H175.512L185.104 241.55H119.48L109.875 328.373Z" fill="#F5F5F5"/>
<path d="M170.767 321.537L178.849 248.397H124.215L116.133 321.537H170.767Z" fill="white"/>
<path d="M159.483 303.8L159.874 300.867C161.9 282.513 150.445 266.16 135.565 266.16L135.225 269.144C133.198 287.485 144.654 303.838 159.546 303.838L159.483 303.8Z" fill="#F5F5F5"/>
<path d="M74.3888 412.15H130.836V328.373H74.3888V412.15Z" fill="#E6E6E6"/>
<path d="M80.0524 412.15H74.375V395.999H86.0068L80.0524 412.15Z" fill="#F0F0F0"/>
<path d="M232.584 412.15H289.031V328.373H232.584V412.15Z" fill="#E6E6E6"/>
<path d="M74.3707 402.243H237.531V328.386H74.3707V402.243Z" fill="#F0F0F0"/>
<path d="M231.853 412.15H237.53V395.999H225.898L231.853 412.15Z" fill="#F0F0F0"/>
<path d="M78.7765 362.803H233.125V332.993H78.7765V362.803Z" fill="#E6E6E6"/>
<path d="M145.665 352.48H166.247C170.672 352.482 175.052 351.581 179.117 349.832C183.182 348.083 186.847 345.523 189.888 342.309H122.023C125.066 345.521 128.732 348.08 132.797 349.829C136.861 351.578 141.24 352.48 145.665 352.48Z" fill="#F0F0F0"/>
<path d="M78.7765 397.422H233.125V367.612H78.7765V397.422Z" fill="#E6E6E6"/>
<path d="M145.665 387.049H166.247C170.672 387.05 175.052 386.149 179.117 384.4C183.182 382.651 186.847 380.091 189.888 376.877H122.023C125.066 380.09 128.732 382.648 132.797 384.397C136.861 386.146 141.24 387.048 145.665 387.049Z" fill="#F0F0F0"/>
<path d="M227.196 324.962H228.656C228.656 321.953 228.656 314.337 228.807 296.876C229.071 265.216 229.575 263.29 229.575 263.29L226.1 277.905C223.897 294.082 226.742 310.346 227.196 324.962Z" fill="#E6E6E6"/>
<path d="M224.32 275.69C219.285 269.735 208.647 267.998 197.72 266.513C193.428 265.934 208.987 275.74 216.603 282.702C222.52 288.115 226.296 289.613 227.933 295.001C228.764 288.278 228.625 280.864 224.32 275.69Z" fill="#E6E6E6"/>
<path d="M230.952 286.365C235.987 280.41 246.625 278.686 257.552 277.2C261.844 276.621 246.222 286.428 238.669 293.389C232.752 298.802 228.976 300.3 227.339 305.688C226.508 298.966 226.596 291.501 230.952 286.365Z" fill="#E6E6E6"/>
<path d="M228.812 261.843C232.589 254.718 241.98 247.995 252.567 245.477C256.721 244.483 242.937 258.62 237.7 267.747C233.634 274.821 228.246 283.155 227.402 289.147C226.144 277.339 225.061 269.006 228.812 261.843Z" fill="#E6E6E6"/>
<path d="M228.355 328.373C223.899 328.373 220.21 326.145 219.946 323.275L219.203 318.391H237.519L236.764 323.275C236.512 326.145 232.887 328.373 228.355 328.373Z" fill="#F0F0F0"/>
<path d="M238.704 320.266H218.021L217.43 314.815H239.296L238.704 320.266Z" fill="#F0F0F0"/>
<path d="M213.428 216.171L415.109 216.171V32.214L213.428 32.214L213.428 216.171Z" fill="#E6E6E6"/>
<path d="M208.896 216.171L413.133 216.171V32.214L208.896 32.214L208.896 216.171Z" fill="#F5F5F5"/>
<path d="M404.977 207.938V40.46L217.029 40.46V207.938H404.977Z" fill="#FAFAFA"/>
<path d="M381.925 207.938L307.955 40.46H282.828L356.799 207.938H381.925Z" fill="white"/>
<path d="M349.673 207.938L275.703 40.46H258.406L332.377 207.938H349.673Z" fill="white"/>
<path d="M286.82 207.926V40.4473H277.102V207.926H286.82Z" fill="#E6E6E6"/>
<path d="M351.422 207.926V40.4473H341.703V207.926H351.422Z" fill="#E6E6E6"/>
<path d="M285.07 213.162V34.3291H272.784V213.162H285.07Z" fill="#F5F5F5"/>
<path d="M349.672 213.162V34.3291H337.385V213.162H349.672Z" fill="#F5F5F5"/>
<path d="M217.906 207.938V40.46H217.038V207.938H217.906Z" fill="#E6E6E6"/>
<path d="M205.471 21.6143H423.959C424.238 21.6175 424.505 21.73 424.703 21.9276C424.901 22.1252 425.013 22.3923 425.016 22.6717C425.013 22.95 424.9 23.2157 424.702 23.4113C424.504 23.6069 424.237 23.7166 423.959 23.7165H205.471C205.193 23.7166 204.926 23.6069 204.728 23.4113C204.53 23.2157 204.417 22.95 204.414 22.6717C204.417 22.3923 204.53 22.1252 204.727 21.9276C204.925 21.73 205.192 21.6175 205.471 21.6143Z" fill="#E6E6E6"/>
<path d="M415.11 28.5506C415.485 28.5473 415.844 28.396 416.108 28.1296C416.372 27.8631 416.52 27.5032 416.52 27.1281V24.0817C416.522 23.8955 416.486 23.7108 416.416 23.5383C416.346 23.3658 416.243 23.2088 416.111 23.0766C415.98 22.9443 415.824 22.8393 415.653 22.7677C415.481 22.6961 415.296 22.6592 415.11 22.6592C414.735 22.6592 414.375 22.8073 414.109 23.0714C413.842 23.3354 413.691 23.694 413.688 24.0691V27.1155C413.687 27.494 413.837 27.8571 414.103 28.1259C414.37 28.3947 414.732 28.5473 415.11 28.5506Z" fill="#E6E6E6"/>
<path d="M221.308 28.5506C221.685 28.5473 222.045 28.3964 222.311 28.1304C222.577 27.8643 222.728 27.5044 222.731 27.1281V24.0817C222.731 23.7044 222.581 23.3426 222.314 23.0758C222.048 22.8091 221.686 22.6592 221.308 22.6592C220.934 22.6592 220.576 22.8077 220.311 23.0721C220.047 23.3365 219.898 23.6952 219.898 24.0691V27.1155C219.897 27.3023 219.932 27.4876 220.002 27.6609C220.072 27.8341 220.175 27.9918 220.306 28.1251C220.437 28.2584 220.593 28.3645 220.765 28.4376C220.937 28.5106 221.122 28.549 221.308 28.5506Z" fill="#E6E6E6"/>
<path opacity="0.6" d="M205.8 166.724L409.898 166.724V22.66L205.8 22.66L205.8 166.724Z" fill="#E0E0E0"/>
<path d="M428.377 258.028H393.179C389.438 258.028 386.406 261.061 386.406 264.801V281.091C386.406 284.831 389.438 287.863 393.179 287.863H428.377C432.117 287.863 435.149 284.831 435.149 281.091V264.801C435.149 261.061 432.117 258.028 428.377 258.028Z" fill="#FAFAFA"/>
<path d="M432.871 252.515H388.685C387.426 252.515 386.406 253.535 386.406 254.793V256.631C386.406 257.889 387.426 258.91 388.685 258.91H432.871C434.129 258.91 435.149 257.889 435.149 256.631V254.793C435.149 253.535 434.129 252.515 432.871 252.515Z" fill="#E6E6E6"/>
<path d="M387.125 321.009C387.125 321.009 387.767 341.994 412.214 341.994C436.661 341.994 437.303 321.009 437.303 321.009H387.125Z" fill="#F0F0F0"/>
<path d="M442.867 321.009C442.867 321.009 443.509 341.994 467.956 341.994C492.403 341.994 493.045 321.009 493.045 321.009H442.867Z" fill="#F0F0F0"/>
<path d="M480.937 244.521H432.597C427.452 244.521 423.281 248.691 423.281 253.836V278.56C423.281 283.705 427.452 287.876 432.597 287.876H480.937C486.082 287.876 490.252 283.705 490.252 278.56V253.836C490.252 248.691 486.082 244.521 480.937 244.521Z" fill="#F0F0F0"/>
<path d="M487.131 236.942H426.403C424.679 236.942 423.281 238.34 423.281 240.064V242.607C423.281 244.331 424.679 245.729 426.403 245.729H487.131C488.855 245.729 490.252 244.331 490.252 242.607V240.064C490.252 238.34 488.855 236.942 487.131 236.942Z" fill="#F5F5F5"/>
<path d="M368.702 412.15H375.047V308.118H368.702V412.15Z" fill="#E6E6E6"/>
<path d="M551.909 287.863H517.555V308.106H551.909V287.863Z" fill="#E6E6E6"/>
<path d="M346.737 308.118H517.539V287.876H346.737V308.118Z" fill="#F5F5F5"/>
<path d="M551.909 341.931H517.555V362.173H551.909V341.931Z" fill="#E6E6E6"/>
<path d="M346.737 362.174H517.539V341.931H346.737V362.174Z" fill="#F5F5F5"/>
<path d="M539.507 412.15H545.852V308.118H539.507V412.15Z" fill="#E6E6E6"/>
<path d="M511.21 412.15H517.555V308.118H511.21V412.15Z" fill="#F5F5F5"/>
<path d="M346.741 412.15H353.086V308.118H346.741V412.15Z" fill="#F5F5F5"/>
<path d="M314.713 469C449.514 469 558.793 462.619 558.793 454.749C558.793 446.879 449.514 440.499 314.713 440.499C179.911 440.499 70.6328 446.879 70.6328 454.749C70.6328 462.619 179.911 469 314.713 469Z" fill="#F5F5F5"/>
<path d="M327.818 390.875H167.225C164.643 390.839 162.17 389.827 160.302 388.043C158.434 386.26 157.31 383.836 157.154 381.258L142.753 102.358C142.673 101.117 142.85 99.8734 143.274 98.7046C143.697 97.5357 144.357 96.4669 145.213 95.5652C146.069 94.6634 147.101 93.9481 148.246 93.4641C149.391 92.9801 150.624 92.7379 151.867 92.7526H312.46C315.041 92.786 317.514 93.7949 319.382 95.5766C321.25 97.3583 322.375 99.7809 322.53 102.358L336.907 381.258C336.986 382.497 336.81 383.739 336.388 384.907C335.966 386.074 335.309 387.143 334.456 388.045C333.603 388.947 332.574 389.664 331.431 390.151C330.289 390.638 329.059 390.885 327.818 390.875Z" fill="#407BFF"/>
<path opacity="0.8" d="M327.818 390.875H167.225C164.643 390.839 162.17 389.827 160.302 388.043C158.434 386.26 157.31 383.836 157.154 381.258L142.753 102.358C142.673 101.117 142.85 99.8734 143.274 98.7046C143.697 97.5357 144.357 96.4669 145.213 95.5652C146.069 94.6634 147.101 93.9481 148.246 93.4641C149.391 92.9801 150.624 92.7379 151.867 92.7526H312.46C315.041 92.786 317.514 93.7949 319.382 95.5766C321.25 97.3583 322.375 99.7809 322.53 102.358L336.907 381.258C336.986 382.497 336.81 383.739 336.388 384.907C335.966 386.074 335.309 387.143 334.456 388.045C333.603 388.947 332.574 389.664 331.431 390.151C330.289 390.638 329.059 390.885 327.818 390.875Z" fill="white"/>
<path d="M296.614 83.6641H278.852V84.9229H296.614V83.6641Z" fill="#407BFF"/>
<path d="M272.696 83.6641H266.188V84.9229H272.696V83.6641Z" fill="#407BFF"/>
<path d="M334.732 373.176H181.151C178.678 373.152 176.306 372.192 174.512 370.489C172.718 368.787 171.636 366.467 171.483 363.999L157.737 97.247C157.66 96.0597 157.83 94.8695 158.235 93.7509C158.64 92.6324 159.272 91.6096 160.091 90.7468C160.911 89.884 161.899 89.1997 162.995 88.7369C164.091 88.2741 165.271 88.0427 166.46 88.0573H320.041C322.514 88.0846 324.885 89.0477 326.676 90.7528C328.468 92.4579 329.547 94.7783 329.697 97.247L343.443 363.999C343.52 365.184 343.35 366.373 342.946 367.49C342.541 368.607 341.91 369.629 341.092 370.49C340.274 371.352 339.287 372.035 338.193 372.497C337.098 372.96 335.92 373.191 334.732 373.176Z" fill="#407BFF"/>
<path d="M334.731 367.046H181.15C180.249 367.015 179.392 366.654 178.739 366.032C178.087 365.41 177.686 364.57 177.613 363.672L163.853 96.9325C163.822 96.5777 163.867 96.2203 163.984 95.884C164.101 95.5476 164.288 95.2399 164.533 94.9813C164.779 94.7232 165.076 94.5202 165.406 94.3857C165.736 94.2512 166.091 94.1881 166.447 94.2008H320.027C320.926 94.2348 321.781 94.5969 322.43 95.2185C323.08 95.8402 323.479 96.6784 323.552 97.5745L337.374 364.314C337.405 364.667 337.36 365.023 337.243 365.358C337.126 365.693 336.94 366 336.696 366.258C336.452 366.516 336.157 366.719 335.829 366.855C335.501 366.991 335.148 367.056 334.794 367.046H334.731ZM166.447 94.5155C166.134 94.5054 165.822 94.5606 165.532 94.6777C165.241 94.7947 164.978 94.971 164.76 95.1953C164.55 95.4278 164.389 95.7005 164.287 95.997C164.185 96.2934 164.145 96.6074 164.168 96.92L177.915 363.659C177.985 364.476 178.351 365.239 178.945 365.805C179.538 366.371 180.318 366.7 181.138 366.731H334.718C335.03 366.743 335.34 366.689 335.629 366.572C335.917 366.454 336.178 366.277 336.392 366.051C336.608 365.822 336.772 365.55 336.874 365.253C336.976 364.955 337.013 364.639 336.984 364.327L323.25 97.5871C323.183 96.7713 322.819 96.0082 322.228 95.4423C321.636 94.8763 320.858 94.5466 320.04 94.5155H166.447Z" fill="white"/>
<path opacity="0.3" d="M281.007 191.417C298.475 173.492 297.337 144.052 278.466 125.662C259.595 107.272 230.136 106.896 212.668 124.821C195.2 142.746 196.337 172.185 215.209 190.575C234.08 208.965 263.539 209.342 281.007 191.417Z" fill="white"/>
<path d="M284.504 158.126C284.857 164.312 283.613 170.485 280.892 176.052C277.946 182.023 273.373 187.04 267.701 190.526C262.028 194.011 255.486 195.823 248.828 195.753C241.929 195.691 235.163 193.844 229.189 190.391C223.215 186.939 218.237 181.999 214.739 176.052C211.478 170.613 209.602 164.458 209.275 158.126C208.965 153.269 209.66 148.401 211.318 143.826C212.975 139.25 215.559 135.067 218.908 131.536C222.257 128.005 226.298 125.203 230.779 123.306C235.261 121.409 240.085 120.458 244.951 120.511C255.079 120.616 264.79 124.556 272.129 131.535C279.469 138.515 283.891 148.016 284.504 158.126Z" fill="white"/>
<path d="M280.848 176.052C277.903 182.023 273.33 187.04 267.657 190.526C261.985 194.011 255.443 195.823 248.785 195.753C241.886 195.691 235.12 193.844 229.146 190.391C223.172 186.939 218.194 181.999 214.695 176.052C224.262 169.445 235.624 165.93 247.249 165.981C259.186 166.026 270.855 169.524 280.848 176.052Z" fill="#407BFF"/>
<path d="M258.503 157.251C264.796 150.793 264.384 140.184 257.582 133.556C250.781 126.928 240.165 126.79 233.872 133.248C227.578 139.706 227.99 150.315 234.792 156.943C241.594 163.571 252.209 163.709 258.503 157.251Z" fill="#407BFF"/>
<path d="M312.709 269.396H192.45C191.403 269.386 190.398 268.978 189.639 268.256C188.88 267.535 188.422 266.552 188.359 265.506L187.452 247.882C187.421 247.381 187.494 246.879 187.666 246.407C187.837 245.935 188.105 245.503 188.451 245.139C188.797 244.775 189.215 244.487 189.678 244.292C190.14 244.097 190.639 243.999 191.141 244.005H311.399C312.445 244.016 313.448 244.421 314.206 245.14C314.965 245.86 315.424 246.839 315.491 247.882L316.397 265.506C316.43 266.009 316.359 266.513 316.188 266.986C316.017 267.46 315.75 267.893 315.403 268.258C315.057 268.623 314.639 268.913 314.175 269.109C313.711 269.305 313.212 269.403 312.709 269.396Z" fill="white"/>
<path opacity="0.3" d="M275.888 234.273H225.66C224.608 234.265 223.599 233.858 222.837 233.133C222.075 232.408 221.617 231.421 221.556 230.371L221.367 226.594C221.334 226.092 221.405 225.588 221.576 225.115C221.747 224.641 222.015 224.208 222.361 223.843C222.707 223.478 223.126 223.188 223.589 222.992C224.053 222.796 224.552 222.698 225.056 222.704H275.272C276.319 222.715 277.323 223.122 278.083 223.844C278.842 224.566 279.299 225.549 279.363 226.594L279.564 230.371C279.595 230.872 279.523 231.375 279.352 231.847C279.181 232.32 278.916 232.752 278.571 233.118C278.227 233.484 277.811 233.775 277.349 233.973C276.888 234.172 276.391 234.274 275.888 234.273Z" fill="black"/>
<path opacity="0.3" d="M294.574 354.129H219.332C217.551 354.108 215.843 353.413 214.552 352.185C213.261 350.957 212.482 349.286 212.371 347.508L211.93 338.822C211.886 337.968 212.016 337.114 212.312 336.312C212.609 335.511 213.065 334.778 213.654 334.158C214.243 333.538 214.952 333.045 215.738 332.709C216.524 332.372 217.37 332.199 218.225 332.2H293.441C295.223 332.222 296.931 332.917 298.222 334.145C299.513 335.373 300.292 337.043 300.403 338.822L300.843 347.508C300.888 348.359 300.759 349.211 300.464 350.011C300.169 350.811 299.715 351.543 299.128 352.163C298.542 352.782 297.836 353.276 297.053 353.614C296.271 353.952 295.427 354.127 294.574 354.129Z" fill="black"/>
<path d="M314.917 312.021H194.645C193.599 312.007 192.596 311.599 191.837 310.878C191.079 310.157 190.621 309.176 190.554 308.131L189.648 290.507C189.617 290.005 189.689 289.502 189.861 289.03C190.032 288.557 190.3 288.125 190.646 287.76C190.992 287.395 191.409 287.105 191.872 286.909C192.335 286.712 192.833 286.613 193.336 286.617H313.595C314.642 286.628 315.647 287.035 316.406 287.757C317.165 288.479 317.622 289.462 317.686 290.507L318.605 308.131C318.634 308.633 318.56 309.135 318.388 309.607C318.216 310.079 317.948 310.51 317.603 310.875C317.257 311.239 316.84 311.529 316.378 311.726C315.916 311.923 315.419 312.024 314.917 312.021Z" fill="white"/>
<path d="M207.713 256.694C207.748 257.251 207.667 257.808 207.477 258.332C207.286 258.856 206.99 259.335 206.606 259.739C206.222 260.143 205.759 260.463 205.245 260.68C204.732 260.897 204.179 261.006 203.622 260.999C202.464 260.986 201.354 260.534 200.516 259.735C199.677 258.937 199.172 257.85 199.102 256.694C199.066 256.139 199.145 255.581 199.334 255.058C199.523 254.534 199.818 254.055 200.201 253.65C200.584 253.246 201.047 252.925 201.559 252.708C202.072 252.491 202.624 252.383 203.181 252.389C204.34 252.403 205.452 252.854 206.292 253.652C207.132 254.451 207.64 255.537 207.713 256.694Z" fill="#263238"/>
<path d="M220.966 256.694C221.003 257.25 220.924 257.807 220.735 258.331C220.546 258.855 220.25 259.334 219.867 259.738C219.484 260.142 219.022 260.463 218.509 260.68C217.996 260.897 217.444 261.006 216.887 261C215.729 260.989 214.617 260.538 213.778 259.739C212.939 258.939 212.435 257.851 212.368 256.694C212.332 256.139 212.41 255.581 212.599 255.058C212.789 254.534 213.084 254.055 213.467 253.65C213.85 253.246 214.312 252.925 214.825 252.708C215.338 252.491 215.89 252.383 216.447 252.389C217.606 252.4 218.717 252.85 219.556 253.65C220.395 254.449 220.899 255.537 220.966 256.694Z" fill="#263238"/>
<path d="M234.15 256.694C234.186 257.25 234.107 257.807 233.918 258.331C233.729 258.855 233.434 259.334 233.051 259.738C232.668 260.142 232.206 260.463 231.693 260.68C231.18 260.897 230.628 261.006 230.071 260.999C228.912 260.986 227.801 260.535 226.96 259.736C226.12 258.938 225.612 257.851 225.539 256.694C225.504 256.138 225.585 255.58 225.775 255.057C225.966 254.533 226.262 254.054 226.646 253.65C227.03 253.246 227.494 252.925 228.007 252.708C228.52 252.491 229.073 252.383 229.63 252.389C230.788 252.403 231.898 252.854 232.736 253.653C233.575 254.452 234.08 255.538 234.15 256.694Z" fill="#263238"/>
<path d="M247.431 256.694C247.465 257.249 247.385 257.806 247.196 258.329C247.006 258.852 246.711 259.33 246.328 259.734C245.945 260.138 245.484 260.458 244.972 260.676C244.46 260.894 243.909 261.004 243.352 260.999C242.193 260.986 241.082 260.535 240.241 259.736C239.401 258.938 238.893 257.851 238.82 256.694C238.786 256.139 238.866 255.582 239.056 255.059C239.245 254.537 239.541 254.058 239.923 253.654C240.306 253.251 240.768 252.93 241.28 252.712C241.791 252.494 242.343 252.384 242.899 252.389C244.058 252.402 245.169 252.854 246.01 253.652C246.85 254.451 247.358 255.537 247.431 256.694Z" fill="#263238"/>
<path d="M209.939 299.294C209.975 299.85 209.896 300.407 209.707 300.931C209.518 301.454 209.223 301.933 208.84 302.338C208.457 302.742 207.995 303.063 207.482 303.28C206.969 303.497 206.417 303.606 205.86 303.599C204.701 303.586 203.59 303.134 202.749 302.336C201.909 301.537 201.401 300.451 201.328 299.294C201.293 298.738 201.374 298.18 201.564 297.656C201.755 297.132 202.052 296.654 202.435 296.25C202.819 295.845 203.283 295.525 203.796 295.308C204.309 295.091 204.862 294.982 205.419 294.989C206.577 295.002 207.687 295.454 208.525 296.253C209.364 297.051 209.869 298.138 209.939 299.294Z" fill="#263238"/>
<path d="M223.166 299.294C223.201 299.849 223.121 300.406 222.931 300.928C222.741 301.451 222.446 301.93 222.063 302.334C221.681 302.737 221.219 303.058 220.707 303.276C220.195 303.494 219.644 303.604 219.087 303.599C217.928 303.586 216.817 303.134 215.977 302.336C215.136 301.537 214.629 300.451 214.556 299.294C214.519 298.738 214.598 298.181 214.787 297.657C214.976 297.133 215.271 296.654 215.654 296.25C216.037 295.846 216.5 295.525 217.012 295.308C217.525 295.091 218.077 294.982 218.634 294.989C219.793 295.002 220.905 295.453 221.745 296.252C222.586 297.05 223.093 298.137 223.166 299.294Z" fill="#263238"/>
<path d="M236.401 299.294C236.435 299.85 236.355 300.408 236.164 300.931C235.974 301.455 235.677 301.934 235.293 302.338C234.909 302.742 234.446 303.063 233.933 303.28C233.419 303.497 232.867 303.605 232.309 303.599C231.15 303.588 230.039 303.138 229.2 302.338C228.361 301.539 227.857 300.451 227.79 299.294C227.753 298.738 227.832 298.181 228.021 297.657C228.21 297.133 228.506 296.654 228.889 296.25C229.272 295.846 229.734 295.525 230.247 295.308C230.76 295.091 231.312 294.982 231.869 294.989C233.028 295.002 234.139 295.453 234.979 296.252C235.82 297.05 236.328 298.137 236.401 299.294Z" fill="#263238"/>
<path d="M249.618 299.294C249.655 299.85 249.576 300.407 249.387 300.931C249.198 301.454 248.903 301.933 248.52 302.338C248.137 302.742 247.674 303.063 247.162 303.28C246.649 303.497 246.097 303.606 245.54 303.599C244.381 303.586 243.269 303.134 242.429 302.336C241.588 301.537 241.081 300.451 241.008 299.294C240.973 298.738 241.054 298.18 241.244 297.656C241.435 297.132 241.731 296.654 242.115 296.25C242.499 295.845 242.962 295.525 243.476 295.308C243.989 295.091 244.542 294.982 245.099 294.989C246.258 294.999 247.369 295.45 248.208 296.249C249.047 297.049 249.551 298.137 249.618 299.294Z" fill="#263238"/>
<path d="M262.845 299.294C262.881 299.849 262.803 300.407 262.614 300.93C262.425 301.454 262.129 301.933 261.746 302.337C261.363 302.742 260.901 303.062 260.388 303.28C259.875 303.497 259.323 303.605 258.766 303.599C257.607 303.585 256.496 303.134 255.655 302.336C254.815 301.537 254.307 300.451 254.234 299.294C254.2 298.738 254.28 298.182 254.47 297.659C254.659 297.136 254.955 296.658 255.337 296.254C255.72 295.85 256.182 295.529 256.694 295.312C257.206 295.094 257.757 294.984 258.313 294.988C259.472 295.002 260.583 295.453 261.424 296.252C262.264 297.05 262.772 298.137 262.845 299.294Z" fill="#263238"/>
<path d="M276.08 299.294C276.115 299.85 276.034 300.408 275.844 300.931C275.653 301.455 275.357 301.934 274.973 302.338C274.589 302.742 274.126 303.063 273.612 303.28C273.099 303.497 272.546 303.605 271.989 303.599C270.831 303.585 269.721 303.134 268.883 302.335C268.044 301.536 267.54 300.45 267.47 299.294C267.433 298.738 267.512 298.181 267.701 297.657C267.89 297.133 268.185 296.654 268.568 296.25C268.951 295.846 269.414 295.525 269.927 295.308C270.439 295.091 270.991 294.982 271.548 294.989C272.707 295.002 273.819 295.453 274.659 296.252C275.5 297.05 276.007 298.137 276.08 299.294Z" fill="#263238"/>
<path d="M419.203 153.103C419.518 153.581 419.682 153.833 419.883 154.173L420.45 155.104C420.815 155.734 421.142 156.363 421.457 156.98C422.086 158.239 422.716 159.498 423.219 160.756C424.274 163.257 425.182 165.816 425.938 168.423C427.462 173.571 428.466 178.86 428.934 184.209L429.022 185.203C429.033 185.405 429.033 185.606 429.022 185.808V186.475C429.043 187.35 428.993 188.226 428.871 189.093C428.63 190.701 428.208 192.276 427.613 193.789C426.507 196.491 425.042 199.031 423.257 201.342C419.928 205.605 415.977 209.344 411.537 212.433L408.062 208.366C411.224 204.796 414.024 200.92 416.421 196.798C417.5 194.927 418.346 192.932 418.939 190.856C419.179 189.976 419.319 189.073 419.354 188.162C419.393 187.772 419.393 187.38 419.354 186.991V186.727C419.367 186.609 419.367 186.491 419.354 186.374L419.203 185.493C418.394 180.801 417.25 176.174 415.779 171.646C415.049 169.392 414.155 167.214 413.262 165.087C412.821 164.017 412.317 162.972 411.814 161.965L411.033 160.479L410.643 159.787L410.316 159.233L419.203 153.103Z" fill="#803E3C"/>
<path d="M407.492 212.457L412.049 222.088L415.662 213.943C415.662 213.943 412.452 206.893 408.109 207.548L407.492 212.457Z" fill="#7F3E3B"/>
<path d="M415.315 222.567L418.941 216.625L415.668 213.943L412.055 222.088L415.315 222.567Z" fill="#7F3E3B"/>
<path d="M394.819 444.654C395.762 444.631 396.699 444.504 397.614 444.276C397.66 444.262 397.702 444.236 397.735 444.201C397.768 444.166 397.792 444.122 397.803 444.075C397.811 444.027 397.804 443.977 397.784 443.932C397.764 443.888 397.731 443.85 397.69 443.823C397.324 443.584 394.127 441.52 392.893 442.073C392.757 442.137 392.639 442.236 392.553 442.36C392.467 442.484 392.415 442.628 392.402 442.778C392.364 443.006 392.382 443.24 392.454 443.459C392.527 443.679 392.652 443.877 392.818 444.037C393.389 444.478 394.1 444.697 394.819 444.654ZM396.896 443.911C395.071 444.289 393.686 444.226 393.12 443.735C393.004 443.62 392.919 443.478 392.873 443.322C392.827 443.166 392.821 443.001 392.856 442.841C392.856 442.627 392.981 442.564 393.07 442.527C393.749 442.225 395.6 443.118 396.896 443.911Z" fill="#407BFF"/>
<path d="M397.546 444.276H397.672C397.71 444.251 397.742 444.218 397.763 444.178C397.785 444.139 397.797 444.095 397.798 444.049C397.798 443.924 397.798 440.89 396.64 439.87C396.498 439.742 396.33 439.647 396.147 439.59C395.965 439.534 395.772 439.518 395.583 439.543C395.384 439.544 395.192 439.614 395.039 439.74C394.885 439.866 394.78 440.041 394.739 440.235C394.5 441.431 396.414 443.697 397.421 444.276H397.546ZM395.746 440.008C395.848 440.006 395.95 440.023 396.045 440.06C396.14 440.097 396.227 440.152 396.3 440.223C396.964 441.202 397.307 442.363 397.282 443.546C396.275 442.74 395.079 441.028 395.23 440.311C395.23 440.197 395.318 440.046 395.633 440.008H395.746Z" fill="#407BFF"/>
<path d="M382.936 439.518C382.966 439.481 382.985 439.437 382.992 439.39C382.998 439.343 382.992 439.296 382.974 439.252C382.956 439.208 382.927 439.17 382.889 439.142C382.852 439.113 382.807 439.095 382.76 439.09C382.244 439.09 377.724 438.876 376.692 439.984V440.059C376.607 440.168 376.552 440.297 376.532 440.434C376.512 440.571 376.528 440.711 376.579 440.84C376.646 441.056 376.765 441.252 376.925 441.412C377.085 441.573 377.282 441.691 377.498 441.759C378.958 442.212 381.539 440.563 382.949 439.543L382.936 439.518ZM377.07 440.311C377.636 439.707 380.129 439.543 381.992 439.568C380.041 440.903 378.417 441.532 377.599 441.28C377.456 441.237 377.326 441.159 377.221 441.054C377.115 440.948 377.038 440.819 376.994 440.676C376.969 440.627 376.956 440.573 376.956 440.519C376.956 440.464 376.969 440.41 376.994 440.361L377.07 440.311Z" fill="#407BFF"/>
<path d="M382.93 439.518C382.949 439.478 382.959 439.435 382.959 439.392C382.959 439.348 382.949 439.305 382.93 439.266C382.867 439.165 381.458 436.748 379.796 436.245C379.557 436.175 379.307 436.154 379.06 436.185C378.813 436.215 378.575 436.295 378.361 436.421C377.756 436.773 377.719 437.189 377.794 437.453C378.122 438.624 381.332 439.656 382.716 439.643C382.76 439.643 382.803 439.631 382.84 439.609C382.878 439.587 382.909 439.555 382.93 439.518ZM378.411 437C378.482 436.93 378.563 436.871 378.65 436.824C378.806 436.725 378.981 436.661 379.164 436.637C379.346 436.613 379.532 436.629 379.708 436.685C380.803 436.975 381.823 438.385 382.288 439.077C380.79 438.913 378.512 437.994 378.323 437.289C378.307 437.236 378.307 437.179 378.322 437.125C378.338 437.072 378.369 437.024 378.411 436.987V437Z" fill="#407BFF"/>
<path d="M396.792 116.23C395.534 122.525 392.814 136.133 397.183 140.312C397.183 140.312 395.471 146.607 383.851 146.607C371.061 146.607 377.746 140.312 377.746 140.312C384.72 138.651 384.544 133.464 383.323 128.605L396.792 116.23Z" fill="#7F3E3B"/>
<path d="M375.492 101.476C375.563 101.488 375.635 101.488 375.706 101.476C375.766 101.447 375.819 101.406 375.863 101.356C375.907 101.306 375.94 101.247 375.961 101.184C375.982 101.121 375.99 101.054 375.986 100.987C375.981 100.921 375.962 100.856 375.932 100.797C375.594 100.079 375.088 99.4523 374.457 98.9703C373.826 98.4884 373.089 98.165 372.307 98.0272C372.176 98.0162 372.045 98.0557 371.942 98.1376C371.84 98.2195 371.772 98.3376 371.753 98.4678C371.739 98.5995 371.777 98.7315 371.859 98.8352C371.942 98.9389 372.062 99.0059 372.194 99.0217C372.811 99.1402 373.391 99.4041 373.886 99.7916C374.38 100.179 374.776 100.679 375.039 101.25C375.087 101.324 375.155 101.385 375.235 101.424C375.314 101.464 375.403 101.482 375.492 101.476Z" fill="#263238"/>
<path d="M371.676 107.003C370.685 108.841 369.448 110.535 368 112.038C368.392 112.397 368.858 112.666 369.364 112.827C369.871 112.988 370.406 113.037 370.933 112.97L371.676 107.003Z" fill="#630F0F"/>
<path d="M372.627 105.58C372.527 106.424 371.985 107.053 371.444 106.99C370.903 106.927 370.525 106.184 370.626 105.341C370.726 104.498 371.268 103.868 371.885 103.931C372.501 103.994 372.715 104.737 372.627 105.58Z" fill="#263238"/>
<path d="M372.04 104.007L370.102 103.227C370.102 103.227 370.92 104.888 372.04 104.007Z" fill="#263238"/>
<path d="M394.047 437.126L383.775 439.518L377.531 415.902L387.804 413.51L394.047 437.126Z" fill="#7F3E3B"/>
<path d="M409.81 444.025H399.273L400.092 419.615H410.641L409.81 444.025Z" fill="#7F3E3B"/>
<path d="M398.432 442.803H410.278C410.484 442.801 410.683 442.874 410.838 443.008C410.993 443.143 411.094 443.329 411.122 443.533L412.469 452.899C412.495 453.136 412.471 453.375 412.399 453.602C412.326 453.829 412.206 454.038 412.047 454.216C411.887 454.393 411.692 454.534 411.474 454.631C411.256 454.727 411.02 454.776 410.782 454.775C406.653 454.712 404.664 454.46 399.452 454.46C396.242 454.46 391.559 454.8 387.14 454.8C382.722 454.8 382.47 450.419 384.321 450.029C392.579 448.241 393.888 445.799 396.67 443.457C397.161 443.038 397.786 442.806 398.432 442.803Z" fill="#263238"/>
<path d="M382.874 437.944L393.637 432.997C393.82 432.91 394.028 432.892 394.223 432.948C394.418 433.004 394.585 433.128 394.694 433.299L399.843 441.255C399.963 441.46 400.039 441.687 400.066 441.923C400.093 442.159 400.07 442.398 399.999 442.625C399.928 442.851 399.81 443.06 399.653 443.239C399.496 443.417 399.304 443.56 399.088 443.659C395.311 445.321 393.398 445.938 388.664 448.116C385.757 449.45 379.852 452.522 375.849 454.41C371.846 456.298 369.782 452.383 371.292 451.25C378.052 446.215 379.991 442.602 381.539 439.316C381.801 438.711 382.276 438.223 382.874 437.944Z" fill="#263238"/>
<path opacity="0.2" d="M377.531 415.902L380.88 428.566L391.026 425.683L387.816 413.51L377.531 415.902Z" fill="black"/>
<path opacity="0.2" d="M410.644 419.615H400.095L399.68 432.204H410.229L410.644 419.615Z" fill="black"/>
<path d="M415.422 142.705C419.803 143.674 424.486 159.422 424.486 159.422L412.099 172.602C412.099 172.602 401.814 157.798 403.916 152.36C406.044 146.683 410.198 141.572 415.422 142.705Z" fill="#263238"/>
<path opacity="0.4" d="M408.425 152.737C406.209 150.71 404.711 151.314 403.692 152.926C402.684 157.609 408.651 167.415 411.056 171.129C412.164 166.698 413.435 157.357 408.425 152.737Z" fill="black"/>
<path d="M359.923 143.019C359.923 143.019 354.887 144.782 364.958 206.654H407.76C407.042 189.232 407.017 178.481 415.313 142.704C409.315 141.467 403.236 140.668 397.122 140.313C390.652 139.846 384.156 139.846 377.685 140.313C369.39 141.081 359.923 143.019 359.923 143.019Z" fill="#263238"/>
<path opacity="0.4" d="M359.531 166.761C359.808 169.769 360.173 173.156 360.652 176.982C364.164 173.823 367.034 164.835 365.977 159.598C363.467 161.634 361.293 164.051 359.531 166.761Z" fill="black"/>
<path d="M364.113 157.357C361.803 163.17 359.203 168.863 356.321 174.415C353.472 180.167 350.101 185.645 346.25 190.78L345.444 191.774L345.041 192.265C344.903 192.429 344.79 192.58 344.576 192.807C343.818 193.633 342.974 194.376 342.058 195.022C340.439 196.143 338.666 197.025 336.796 197.641C333.533 198.682 330.147 199.284 326.725 199.428C320.317 199.683 313.903 199.112 307.641 197.729L308.333 192.441C311.228 192.441 314.262 192.441 317.145 192.202C320.04 192.06 322.924 191.74 325.781 191.246C328.434 190.832 331.028 190.105 333.51 189.08C334.512 188.652 335.449 188.084 336.292 187.393C336.614 187.124 336.905 186.82 337.161 186.487C337.161 186.487 337.312 186.286 337.413 186.147L337.702 185.732L338.294 184.901C341.453 180.022 344.267 174.928 346.716 169.656C349.233 164.306 351.751 158.754 354.055 153.291L364.113 157.357Z" fill="#803E3C"/>
<path d="M359.921 143.019C354.672 144.278 348.227 158.68 348.227 158.68L359.103 174.667C359.103 174.667 373.593 156.426 371.868 150.862C370.106 145.059 366.329 141.458 359.921 143.019Z" fill="#263238"/>
<path d="M311.358 193.248L302.281 189.056L301.375 198.082C301.375 198.082 308.928 200.31 312.705 198.082L311.358 193.248Z" fill="#7F3E3B"/>
<path d="M296.853 188.149L295.984 195.023L301.372 198.082L302.279 189.056L296.853 188.149Z" fill="#7F3E3B"/>
<path d="M401.349 106.197C399.423 116.482 398.832 120.888 392.94 125.559C384.128 132.583 371.854 127.976 370.671 117.326C369.588 107.733 372.912 92.5262 383.574 89.6308C385.923 88.9829 388.399 88.9474 390.765 89.5277C393.131 90.1081 395.31 91.285 397.092 92.9462C398.874 94.6074 400.201 96.6976 400.947 99.0173C401.692 101.337 401.831 103.809 401.349 106.197Z" fill="#7F3E3B"/>
<path d="M378.754 108.363C378.162 113.612 377.936 127.246 389.467 127.674C403.578 128.19 407.808 116.13 406.549 111.309C413.901 105.329 414.959 95.0443 406.7 87.1764C398.442 79.3085 380.264 83.7019 375.229 91.3684C368.847 100.873 378.754 108.363 378.754 108.363Z" fill="#263238"/>
<path d="M392.893 90.2351C392.213 84.6962 392.742 80.8818 397.928 80.8818C403.115 80.8818 410.19 82.7575 412.783 88.0573C415.376 93.3571 415.59 101.653 408.352 100.81C401.113 99.9661 393.711 96.8567 392.893 90.2351Z" fill="#407BFF"/>
<path d="M400.923 88.9005C399.664 82.3041 405.568 63.7234 419.906 62.4645C426.553 61.898 429.625 69.0483 426.201 70.2317C432.495 70.1561 436.523 78.4772 430.657 79.7235C435.29 82.6944 434.144 88.7872 427.535 91.7833C422.613 94.0493 402.622 98.0398 400.923 88.9005Z" fill="#263238"/>
<path d="M416.24 95.9879C411.62 95.9879 406.798 95.3081 403.802 93.3065C402.965 92.8015 402.259 92.1042 401.745 91.2723C401.23 90.4404 400.922 89.4979 400.844 88.5229C400.84 88.4401 400.868 88.359 400.922 88.2959C400.976 88.2328 401.051 88.1925 401.134 88.183C401.175 88.1777 401.218 88.1812 401.258 88.1932C401.298 88.2052 401.335 88.2255 401.367 88.2527C401.399 88.28 401.425 88.3136 401.444 88.3514C401.462 88.3893 401.472 88.4305 401.474 88.4725C401.549 89.3524 401.832 90.202 402.298 90.9523C402.764 91.7025 403.4 92.3323 404.155 92.7904C409.857 96.567 423.038 95.3081 427.142 94.0493C430.692 92.8911 433.096 90.6378 433.574 88.0445C433.724 87.0929 433.606 86.1185 433.235 85.2297C432.864 84.3408 432.254 83.5721 431.472 83.0091C431.442 82.9808 431.418 82.9467 431.402 82.9088C431.385 82.8709 431.377 82.8301 431.377 82.7888C431.377 82.7475 431.385 82.7066 431.402 82.6687C431.418 82.6309 431.442 82.5967 431.472 82.5685C431.531 82.5108 431.61 82.4785 431.692 82.4785C431.775 82.4785 431.854 82.5108 431.913 82.5685C432.791 83.2096 433.475 84.0825 433.886 85.0895C434.297 86.0966 434.42 87.1981 434.242 88.2711C433.725 91.1035 431.17 93.5205 427.393 94.7542C423.749 95.6728 419.997 96.0879 416.24 95.9879Z" fill="#263238"/>
<path d="M375.547 107.003C374.375 108.647 373.892 110.684 374.2 112.68C374.616 115.324 377.184 115.5 379.047 113.813C380.91 112.126 382.534 109.08 381.162 106.889C380.857 106.416 380.436 106.029 379.939 105.765C379.442 105.5 378.886 105.367 378.323 105.379C377.76 105.39 377.21 105.545 376.724 105.829C376.238 106.114 375.833 106.518 375.547 107.003Z" fill="#7F3E3B"/>
<path d="M376.258 206.654C376.258 206.654 382.376 279.026 388.733 319.813C393.857 352.757 397.91 429.762 397.91 429.762H412.286C412.286 429.762 417.397 355.061 414.804 322.482C408.22 240.027 422.911 233.304 407.792 206.667L376.258 206.654Z" fill="#407BFF"/>
<path opacity="0.4" d="M394.364 234.009C388.667 239.989 384.069 246.926 380.781 254.503C382.456 270.767 384.445 288.819 386.559 304.631C395.237 282.164 397.927 257.828 394.364 234.009Z" fill="black"/>
<path d="M366.207 206.201C366.207 206.201 352.926 285.245 350.836 320.871C356.048 353.815 377.373 423.455 377.373 423.455L390.452 418.709C390.452 418.709 383.214 342.775 375.346 321.991C393.058 262.359 406.075 247.278 402.285 206.654C393.209 206.654 366.207 206.201 366.207 206.201Z" fill="#407BFF"/>
<path d="M375.621 426.929L393.295 422.133L392.288 415.083L373.367 420.207L375.621 426.929Z" fill="#263238"/>
<path d="M395.937 430.051H414.253L415.21 423.631L395.836 422.977L395.937 430.051Z" fill="#263238"/>
<path d="M408.428 204.137L410.354 207.976C410.505 208.279 410.152 208.581 409.661 208.581H364.745C364.368 208.581 364.04 208.392 364.015 208.14L363.625 204.363C363.625 204.099 363.94 203.873 364.355 203.873H407.723C407.853 203.855 407.986 203.87 408.109 203.916C408.232 203.962 408.341 204.038 408.428 204.137Z" fill="#407BFF"/>
<path opacity="0.5" d="M408.428 204.137L410.354 207.976C410.505 208.279 410.152 208.581 409.661 208.581H364.745C364.368 208.581 364.04 208.392 364.015 208.14L363.625 204.363C363.625 204.099 363.94 203.873 364.355 203.873H407.723C407.853 203.855 407.986 203.87 408.109 203.916C408.232 203.962 408.341 204.038 408.428 204.137Z" fill="black"/>
<path d="M402.597 208.97H403.755C403.994 208.97 404.17 208.845 404.158 208.706L403.604 203.671C403.604 203.52 403.39 203.406 403.163 203.406H401.992C401.766 203.406 401.59 203.52 401.602 203.671L402.144 208.706C402.169 208.87 402.37 208.97 402.597 208.97Z" fill="#407BFF"/>
<path d="M387.01 172.312C386.871 172.31 386.737 172.264 386.626 172.18C386.515 172.096 386.433 171.979 386.393 171.846C382.289 156.664 373.805 144.151 369.688 142.263C369.368 142.067 368.984 142.003 368.618 142.087C368.542 142.127 368.459 142.151 368.373 142.158C368.287 142.164 368.201 142.153 368.12 142.125C368.039 142.097 367.964 142.053 367.901 141.995C367.837 141.937 367.786 141.867 367.751 141.789C367.716 141.71 367.697 141.626 367.695 141.54C367.694 141.454 367.71 141.368 367.743 141.289C367.776 141.21 367.825 141.138 367.887 141.078C367.948 141.018 368.022 140.972 368.102 140.941C368.446 140.815 368.814 140.765 369.179 140.796C369.544 140.826 369.899 140.936 370.217 141.118C374.573 143.182 383.183 155.519 387.488 171.041C390.573 171.041 395.331 170.625 396.489 170.525C397.924 168.812 408.474 155.62 404.533 141.181C404.511 141.101 404.504 141.018 404.514 140.936C404.524 140.854 404.55 140.775 404.591 140.703C404.632 140.632 404.687 140.569 404.753 140.519C404.819 140.469 404.894 140.433 404.974 140.413C405.134 140.37 405.305 140.393 405.449 140.475C405.592 140.558 405.698 140.693 405.742 140.853C410.135 156.916 397.396 171.406 397.257 171.544C397.208 171.605 397.147 171.656 397.078 171.693C397.008 171.729 396.933 171.752 396.854 171.758C396.791 171.758 390.51 172.312 387.01 172.312Z" fill="#407BFF"/>
<path d="M407.871 181.2C401.011 168.348 398.203 167.441 396.982 163.312C397.907 161.003 399.228 158.873 400.885 157.018C400.054 156.779 398.266 156.426 397.108 156.212C397.234 155.646 397.373 155.092 397.498 154.55C396.238 154.409 394.963 154.469 393.722 154.727V153.468C392.123 153.12 390.481 153.014 388.85 153.153C388.993 153.749 389.131 154.353 389.265 154.966C388.007 155.205 386.093 155.595 385.174 155.86C386.96 157.882 388.272 160.278 389.014 162.872C385.313 169.229 370.936 210.091 394.326 213.226C417.716 216.36 414.72 194.066 407.871 181.2Z" fill="#407BFF"/>
<path opacity="0.4" d="M407.871 181.2C401.011 168.348 398.203 167.441 396.982 163.312C397.907 161.003 399.228 158.873 400.885 157.018C400.054 156.779 398.266 156.426 397.108 156.212C397.234 155.646 397.373 155.092 397.498 154.55C396.238 154.409 394.963 154.469 393.722 154.727V153.468C392.123 153.12 390.481 153.014 388.85 153.153C388.993 153.749 389.131 154.353 389.265 154.966C388.007 155.205 386.093 155.595 385.174 155.86C386.96 157.882 388.272 160.278 389.014 162.872C385.313 169.229 370.936 210.091 394.326 213.226C417.716 216.36 414.72 194.066 407.871 181.2Z" fill="white"/>
<path d="M388.06 161.65C387.914 162.298 387.851 162.962 387.871 163.626C387.871 164.092 389.13 164.407 390.527 164.545C391.924 164.684 397.791 164.91 397.602 164.256C397.413 163.601 397.891 162.707 397.917 162.153C397.942 161.599 395.588 161.574 393.611 161.65C391.635 161.725 388.45 160.945 388.06 161.65Z" fill="#407BFF"/>
<path d="M374.45 208.97H375.608C375.834 208.97 376.011 208.845 375.998 208.706L375.457 203.671C375.457 203.52 375.243 203.406 375.003 203.406H373.883C373.656 203.406 373.48 203.52 373.493 203.671L374.034 208.706C374.009 208.87 374.21 208.97 374.45 208.97Z" fill="#407BFF"/>
</svg>
