<svg width="42" height="42" viewBox="0 0 42 42" fill="none" xmlns="http://www.w3.org/2000/svg">
<path d="M35.5783 19.0555H32.6676V16.1388C32.6676 14.5285 31.3612 13.222 29.7509 13.222H20.0283L16.1393 9.33301H6.41676C4.80647 9.33301 3.5 10.6395 3.5 12.2498V29.7503C3.5 31.3606 4.80647 32.6671 6.41676 32.6671H30.7231C31.7257 32.6671 32.6615 32.1506 33.1963 31.2938L38.0515 23.5158C39.2668 21.5773 37.8692 19.0555 35.5783 19.0555ZM6.41676 12.6144C6.41676 12.4138 6.58083 12.2498 6.78136 12.2498H14.9301L18.8191 16.1388H29.3863C29.5868 16.1388 29.7509 16.3029 29.7509 16.5034V19.0555H12.7364C11.7155 19.0555 10.7676 19.5903 10.2389 20.4653L6.41676 26.7971V12.6144ZM30.7231 29.7503H7.87514L12.5663 21.9723H35.5844L30.7231 29.7503Z" fill="#AA8500"/>
</svg>
