<svg width="43" height="42" viewBox="0 0 43 42" fill="none" xmlns="http://www.w3.org/2000/svg">
<mask id="mask0_1526_10334" style="mask-type:alpha" maskUnits="userSpaceOnUse" x="0" y="0" width="43" height="42">
<rect x="0.5" width="42" height="42" fill="#D9D9D9"/>
</mask>
<g mask="url(#mask0_1526_10334)">
<path d="M21.5 36.6621C17.9708 35.6413 15.0466 33.5191 12.7273 30.2956C10.4091 27.0733 9.25 23.4496 9.25 19.4246V9.97461L21.5 5.38086L33.75 9.97461V19.4246C33.75 23.4496 32.5903 27.0733 30.271 30.2956C27.9528 33.5191 25.0292 35.6413 21.5 36.6621ZM21.5 34.8246C24.3292 33.9496 26.6917 32.2218 28.5875 29.6411C30.4833 27.0593 31.5917 24.1788 31.9125 20.9996H21.5V7.26211L11 11.1559V20.1684C11 20.4017 11.0292 20.6788 11.0875 20.9996H21.5V34.8246Z" fill="#AA8500"/>
</g>
</svg>
