<svg width="237" height="21" viewBox="0 0 237 21" fill="none" xmlns="http://www.w3.org/2000/svg">
<rect x="1.25" y="1.52344" width="17.5" height="17.5" rx="8.75" fill="#1275B1"/>
<path d="M7.8866 6.33103C7.8866 6.91512 7.38032 7.38862 6.7558 7.38862C6.13128 7.38862 5.625 6.91512 5.625 6.33103C5.625 5.74694 6.13128 5.27344 6.7558 5.27344C7.38032 5.27344 7.8866 5.74694 7.8866 6.33103Z" fill="white"/>
<path d="M5.77964 8.166H7.71263V14.0234H5.77964V8.166Z" fill="white"/>
<path d="M10.8247 8.166H8.89175V14.0234H10.8247C10.8247 14.0234 10.8247 12.1794 10.8247 11.0265C10.8247 10.3344 11.061 9.6394 12.0039 9.6394C13.0694 9.6394 13.063 10.545 13.058 11.2466C13.0515 12.1637 13.067 13.0996 13.067 14.0234H15V10.932C14.9836 8.95805 14.4693 8.04849 12.7771 8.04849C11.7721 8.04849 11.1492 8.50472 10.8247 8.9175V8.166Z" fill="white"/>
<path d="M72.7511 10.4686C72.7511 9.74912 72.6915 9.22412 72.5626 8.67969H64.1797V11.9269H69.1003C69.0011 12.7338 68.4654 13.9491 67.2749 14.7657L67.2582 14.8745L69.9087 16.8867L70.0924 16.9047C71.7788 15.3783 72.7511 13.1324 72.7511 10.4686Z" fill="#4285F4"/>
<path d="M64.1793 19.0234C66.59 19.0234 68.6138 18.2456 70.092 16.904L67.2745 14.765C66.5206 15.2803 65.5086 15.64 64.1793 15.64C61.8182 15.64 59.8143 14.1136 59.0999 12.0039L58.9952 12.0126L56.2392 14.1029L56.2031 14.2011C57.6714 17.0595 60.6872 19.0234 64.1793 19.0234Z" fill="#34A853"/>
<path d="M59.0992 12.0056C58.9107 11.4612 58.8016 10.8778 58.8016 10.2751C58.8016 9.67225 58.9107 9.08894 59.0892 8.5445L59.0843 8.42855L56.2937 6.30469L56.2024 6.34725C55.5972 7.53337 55.25 8.86534 55.25 10.2751C55.25 11.6848 55.5972 13.0167 56.2024 14.2028L59.0992 12.0056Z" fill="#FBBC05"/>
<path d="M64.1794 4.90675C65.8559 4.90675 66.9868 5.61647 67.6317 6.20956L70.1516 3.79844C68.604 2.38872 66.59 1.52344 64.1794 1.52344C60.6873 1.52344 57.6714 3.48731 56.2031 6.34562L59.09 8.54287C59.8143 6.43315 61.8183 4.90675 64.1794 4.90675Z" fill="#EB4335"/>
<circle cx="118.27" cy="10.2743" r="8.75" transform="rotate(-1.5844 118.27 10.2743)" fill="url(#paint0_linear_2279_25974)"/>
<path d="M121.601 12.8582L121.921 10.3787L119.491 10.4459L119.446 8.8446C119.428 8.16905 119.748 7.50078 120.837 7.47067L121.943 7.44008L121.885 5.33834C121.885 5.33834 120.877 5.19928 119.918 5.22579C117.916 5.28119 116.641 6.49999 116.7 8.64012L116.752 10.5217L114.527 10.5832L114.595 13.0519L116.82 12.9904L116.985 18.9587C117.434 19.0147 117.892 19.0371 118.358 19.0242C118.823 19.0113 119.279 18.9637 119.724 18.8829L119.559 12.9146L121.601 12.8582Z" fill="white"/>
<rect x="163.797" y="1.52344" width="17.5" height="17.5" rx="6" fill="url(#paint1_radial_2279_25974)"/>
<rect x="163.797" y="1.52344" width="17.5" height="17.5" rx="6" fill="url(#paint2_radial_2279_25974)"/>
<rect x="163.797" y="1.52344" width="17.5" height="17.5" rx="6" fill="url(#paint3_radial_2279_25974)"/>
<path d="M176.922 6.83594C176.922 7.3537 176.502 7.77344 175.984 7.77344C175.467 7.77344 175.047 7.3537 175.047 6.83594C175.047 6.31817 175.467 5.89844 175.984 5.89844C176.502 5.89844 176.922 6.31817 176.922 6.83594Z" fill="white"/>
<path fill-rule="evenodd" clip-rule="evenodd" d="M172.547 13.3984C174.273 13.3984 175.672 11.9993 175.672 10.2734C175.672 8.54755 174.273 7.14844 172.547 7.14844C170.821 7.14844 169.422 8.54755 169.422 10.2734C169.422 11.9993 170.821 13.3984 172.547 13.3984ZM172.547 12.1484C173.582 12.1484 174.422 11.309 174.422 10.2734C174.422 9.2379 173.582 8.39844 172.547 8.39844C171.511 8.39844 170.672 9.2379 170.672 10.2734C170.672 11.309 171.511 12.1484 172.547 12.1484Z" fill="white"/>
<path fill-rule="evenodd" clip-rule="evenodd" d="M166.297 10.0234C166.297 7.92324 166.297 6.87314 166.706 6.07097C167.065 5.36537 167.639 4.79169 168.344 4.43216C169.147 4.02344 170.197 4.02344 172.297 4.02344H172.797C174.897 4.02344 175.947 4.02344 176.749 4.43216C177.455 4.79169 178.029 5.36537 178.388 6.07097C178.797 6.87314 178.797 7.92324 178.797 10.0234V10.5234C178.797 12.6236 178.797 13.6737 178.388 14.4759C178.029 15.1815 177.455 15.7552 176.749 16.1147C175.947 16.5234 174.897 16.5234 172.797 16.5234H172.297C170.197 16.5234 169.147 16.5234 168.344 16.1147C167.639 15.7552 167.065 15.1815 166.706 14.4759C166.297 13.6737 166.297 12.6236 166.297 10.5234V10.0234ZM172.297 5.27344H172.797C173.868 5.27344 174.595 5.27441 175.158 5.32038C175.706 5.36515 175.986 5.44631 176.182 5.54592C176.652 5.7856 177.035 6.16806 177.274 6.63846C177.374 6.83396 177.455 7.11422 177.5 7.66223C177.546 8.22485 177.547 8.95271 177.547 10.0234V10.5234C177.547 11.5942 177.546 12.322 177.5 12.8846C177.455 13.4327 177.374 13.7129 177.274 13.9084C177.035 14.3788 176.652 14.7613 176.182 15.001C175.986 15.1006 175.706 15.1817 175.158 15.2265C174.595 15.2725 173.868 15.2734 172.797 15.2734H172.297C171.226 15.2734 170.498 15.2725 169.936 15.2265C169.388 15.1817 169.107 15.1006 168.912 15.001C168.441 14.7613 168.059 14.3788 167.819 13.9084C167.72 13.7129 167.639 13.4327 167.594 12.8846C167.548 12.322 167.547 11.5942 167.547 10.5234V10.0234C167.547 8.95271 167.548 8.22485 167.594 7.66223C167.639 7.11422 167.72 6.83396 167.819 6.63846C168.059 6.16806 168.441 5.7856 168.912 5.54592C169.107 5.44631 169.388 5.36515 169.936 5.32038C170.498 5.27441 171.226 5.27344 172.297 5.27344Z" fill="white"/>
<path d="M222.825 18.4872C220.514 18.4872 218.36 17.8151 216.547 16.6555C218.086 16.7551 220.803 16.5165 222.492 14.9049C219.951 14.7882 218.804 12.8388 218.655 12.0057C218.871 12.089 219.901 12.189 220.482 11.9557C217.558 11.2226 217.11 8.65668 217.209 7.87358C217.758 8.2568 218.688 8.39009 219.053 8.35677C216.329 6.40733 217.309 3.47485 217.791 2.8417C219.746 5.5505 222.676 7.07186 226.301 7.15648C226.233 6.85671 226.197 6.54461 226.197 6.22405C226.197 3.92353 228.056 2.05859 230.35 2.05859C231.549 2.05859 232.629 2.5677 233.387 3.38205C234.188 3.19438 235.393 2.75507 235.982 2.37517C235.685 3.44153 234.76 4.33109 234.201 4.66079C234.206 4.67201 234.197 4.64953 234.201 4.66079C234.692 4.58648 236.022 4.331 236.547 3.9747C236.287 4.57377 235.307 5.56983 234.502 6.12747C234.652 12.7286 229.602 18.4872 222.825 18.4872Z" fill="#47ACDF"/>
<defs>
<linearGradient id="paint0_linear_2279_25974" x1="118.27" y1="1.52425" x2="118.27" y2="18.9724" gradientUnits="userSpaceOnUse">
<stop stop-color="#18ACFE"/>
<stop offset="1" stop-color="#0163E0"/>
</linearGradient>
<radialGradient id="paint1_radial_2279_25974" cx="0" cy="0" r="1" gradientUnits="userSpaceOnUse" gradientTransform="translate(170.047 14.6484) rotate(-55.3758) scale(15.9498)">
<stop stop-color="#B13589"/>
<stop offset="0.79309" stop-color="#C62F94"/>
<stop offset="1" stop-color="#8A3AC8"/>
</radialGradient>
<radialGradient id="paint2_radial_2279_25974" cx="0" cy="0" r="1" gradientUnits="userSpaceOnUse" gradientTransform="translate(169.422 19.6484) rotate(-65.1363) scale(14.1214)">
<stop stop-color="#E0E8B7"/>
<stop offset="0.444662" stop-color="#FB8A2E"/>
<stop offset="0.71474" stop-color="#E2425C"/>
<stop offset="1" stop-color="#E2425C" stop-opacity="0"/>
</radialGradient>
<radialGradient id="paint3_radial_2279_25974" cx="0" cy="0" r="1" gradientUnits="userSpaceOnUse" gradientTransform="translate(162.859 2.14844) rotate(-8.1301) scale(24.3068 5.19897)">
<stop offset="0.156701" stop-color="#406ADC"/>
<stop offset="0.467799" stop-color="#6A45BE"/>
<stop offset="1" stop-color="#6A45BE" stop-opacity="0"/>
</radialGradient>
</defs>
</svg>
